<svg width="660" height="491" viewBox="0 0 660 491" fill="none" xmlns="http://www.w3.org/2000/svg">
<g clip-path="url(#clip0_503_88287)">
<path d="M229.565 491H0V178.271C9.16751 177.062 17.8215 174.176 26.551 171.155C33.8156 168.632 39.0563 164.175 43.9648 158.827C45.0069 157.679 45.46 156.213 44.2517 154.778C44.9314 154.37 45.611 153.977 46.2906 153.57C46.9098 154.083 47.227 153.932 47.227 153.131C47.9973 152.557 48.7524 151.998 49.5227 151.424C51.5314 152.905 53.6156 154.234 56.0773 154.703C64.1725 153.373 69.4133 148.161 74.0197 142.027C75.968 141.65 77.8407 141.408 79.9249 141.725C83.595 142.284 86.2531 140.819 86.5854 136.649C89.1529 137.45 89.5908 139.882 90.5876 141.891C90.5876 142.496 90.6178 143.115 90.633 143.719C90.9954 153.706 93.4874 163.359 95.9341 172.938C97.822 180.295 99.151 188.03 104.135 194.255C109.27 210.616 117.38 224.999 131.486 235.378C131.849 235.635 132.453 235.574 132.936 235.665C133.269 241.496 133.133 247.192 128.058 251.573C130.46 255.078 129.251 259.323 131.547 264.007C134.96 252.389 143.191 243.007 138.071 230.755C134.885 231.767 134.628 234.501 132.846 235.801C133.435 227.129 138.298 220.134 142.708 213.275C147.103 206.462 153.597 202.458 162.614 204.211C166.148 204.905 170.15 205.283 173.654 203.153C175.572 201.657 177.505 200.162 179.423 198.666C182.459 200.932 185.042 203.636 187.368 206.613C192.533 213.23 199.148 218.382 206.11 222.672C210.747 225.527 213.692 228.64 215.384 233.686C217.362 239.563 222.059 241.934 228.417 241.073C237.389 239.865 241.179 235.438 242.524 224.621C245.378 219.016 244.698 213.653 242.146 208.003C239.005 201.083 235.199 194.678 230.502 188.74C226.59 183.815 222.905 178.739 219.854 173.225C221.47 172.56 223.026 171.714 224.702 171.261C239.427 167.378 254.123 163.42 268.908 159.794C277.351 157.724 285.552 154.461 294.433 154.446C294.463 154.808 294.433 155.156 294.387 155.518C294.342 156.017 294.281 156.5 294.236 156.999C293.904 158.419 293.572 159.839 293.254 161.274C292.741 161.441 292.514 161.803 292.56 162.347C292.409 162.604 292.258 162.861 292.107 163.133C290.959 166.381 289.554 169.569 289.479 173.074C291.714 174.569 294.07 173.572 296.2 174.116C296.275 176.805 296.139 179.509 296.487 182.168C296.909 185.386 295.762 189.103 299.099 191.535C294.931 197.261 295.354 203.969 295.082 210.526C291.336 211.689 287.591 212.852 283.921 213.985C282.546 217.022 282.728 219.968 283.211 222.944C282.38 224.213 281.535 225.482 280.704 226.751C276.052 224.515 271.521 221.766 265.994 223.322L266.054 223.533C266.19 222.204 265.223 222.098 264.302 221.962L264.453 222.098C263.849 220.678 262.324 220.542 261.251 219.787C260.073 218.457 258.744 217.4 256.751 217.354C254.576 217.883 252.794 219.077 251.48 221.524C251.661 223.639 251.419 226.132 253.216 228.186L255.527 231.193C255.829 232.145 255.98 233.172 256.449 234.018C264.166 248.159 268.44 263.01 266.281 279.311C265.843 282.589 267.006 285.565 268.863 288.466C273.711 282.045 274.179 279.87 272.745 270.11C272.171 266.167 270.978 262.254 272.835 258.356C276.52 263.977 277.88 270.579 280.492 276.637C280.387 277.166 280.568 277.528 281.051 277.77C283.256 287.665 285.476 297.561 287.621 307.2C290.113 308.816 292.227 310.146 294.281 311.536C309.339 321.748 325.258 330.632 339.877 341.524C335.905 341.66 332.673 339.666 329.487 337.717C318.22 330.813 307.013 323.833 295.792 316.853C293.692 315.554 291.759 313.802 288.391 315.192C287.41 319.225 287.228 323.652 287.364 328.109C287.243 332.263 284.495 336.055 285.718 340.391C285.295 340.648 285.159 341.011 285.31 341.479C281.006 343.05 280.1 346.646 279.828 350.634C277.593 351.435 276.249 353.293 274.738 354.955C269.784 360.379 263.471 363.038 256.479 361.089C243.747 357.554 233.386 362.992 223.267 369.035C220.065 370.954 215.429 371.528 213.571 376.937C222.316 388.162 231.091 399.976 237.343 414.011C247.81 413.497 258.004 414.132 268.123 415.688C267.806 429.058 265.238 442.051 261.84 454.923C259.424 459.818 263.064 466.117 257.929 470.725C252.205 472.266 245.816 470.544 240.077 472.1C238.219 473.732 237.404 475.514 237.087 477.539C236.875 477.901 236.633 478.249 236.392 478.596C234.111 482.736 230.789 486.316 229.565 491.03V491ZM223.464 249.926C229.384 256.574 235.893 261.106 244.91 259.323C247.447 257.087 249.154 254.716 250.105 251.437C249.758 249.02 249.411 246.376 247.236 243.581C240.137 249.156 231.891 249.398 223.464 249.926ZM208.089 337.491C204.962 344.501 204.328 351.647 202.652 359.382C210.007 355.242 216.426 351.646 223.887 347.447C217.422 345.875 213.783 341.222 208.074 337.491H208.089Z" fill="#1B3F79"/>
<path d="M253.202 228.156C251.42 226.101 251.646 223.609 251.465 221.494C252.779 219.046 254.561 217.853 256.736 217.324C258.729 217.369 260.058 218.427 261.236 219.756C262.007 220.95 262.701 222.234 264.438 222.068L264.287 221.932C264.484 222.899 265.088 223.397 266.039 223.503L265.979 223.291C264.937 227.537 267.081 232.084 264.786 236.208C264.469 235.891 264.151 235.574 263.819 235.257C261.81 234.018 260.783 235.211 259.756 237.07C260.572 239.472 261.599 241.783 264.469 242.659C266.13 246.482 268.909 244.654 271.431 244.034C274.285 243.339 276.959 241.436 281.006 242.448C277.246 245.228 272.7 244.699 270.615 248.536C275.207 247.509 279.723 246.27 283.891 244.276C286.821 242.871 290.144 241.088 289.6 236.737C289.358 234.063 292.877 234.698 293.889 232.779C289.026 230.694 284.253 229.984 280.689 226.691C281.52 225.422 282.366 224.153 283.196 222.883C286.368 224.908 289.419 227.144 293.406 228.337C297.635 227.975 301.969 226.902 305.775 225.573C307.89 223.518 306.998 220.708 308.554 219.318C311.65 217.143 315.562 217.007 319.232 213.502C314.792 214.438 312.209 216.432 308.282 215.707C304.446 213.879 300.187 211.054 295.067 210.465C295.339 203.908 294.901 197.2 299.085 191.475C301.803 190.568 304.506 191.399 307.18 191.641C317.54 192.562 327.886 193.605 338.231 194.602C338.231 196.611 338.398 198.636 338.186 200.615C337.084 211.235 338.896 214.861 348.35 219.786C354.346 222.914 360.463 225.799 367.139 229.093C368.739 230.165 368.528 233.368 370.944 234.637C384.522 241.557 398.13 248.4 412.463 253.748C415.8 251.86 419.183 251.633 421.645 252.283C426.599 250.123 426.297 245.923 427.445 241.919C434.755 243.354 441.128 245.983 447.109 249.7C446.792 253.733 448.997 257.495 448.302 261.574C446.339 267.889 440.086 273.147 443.167 280.867C450.673 285.626 458.874 288.632 466.048 293.708C469.733 296.307 473.886 299.631 478.704 300.038C484.836 300.552 489.684 302.969 493.143 307.471C496.42 307.471 498.157 305.402 500.392 304.359C504.893 302.274 509.363 299.464 514.71 301.519C522.261 304.42 530.477 302.803 538.165 304.933C539.509 305.311 541.2 305.039 542.514 303.09C541.548 298.633 540.309 293.844 537.243 288.526C553.041 294.615 566.785 302.048 580.861 306.595C590.738 303.075 594.831 303.77 601.884 310.025C585.256 317.563 568.854 324.996 552.467 332.429C551.833 332.596 551.183 332.762 549.93 333.079C551.168 333.321 551.803 333.442 552.437 333.562C552.648 334.59 552.86 335.602 553.071 336.629C547.846 336.841 542.756 338.548 537.47 338.125C532.894 334.983 528.136 332.218 522.82 330.48C522.533 329.619 521.944 328.788 522.548 327.837C523.53 327.837 524.512 327.837 525.493 327.822C526.505 328.32 527.532 328.819 528.544 329.302C528.967 329.498 529.269 330.314 530.069 329.574C529.405 329.498 528.937 329.453 528.469 329.408C527.895 327.988 526.641 328.003 525.418 327.912C523.031 324.014 519.074 322.776 514.966 321.794C514.257 320.691 513.154 320.373 511.946 320.268C511.221 319.18 510.149 318.817 508.925 318.757C508.231 317.624 507.128 317.322 505.905 317.261C505.18 316.068 503.971 315.932 502.748 315.811C501.917 313.877 500.317 313.031 498.353 312.714C497.945 312.442 497.734 311.46 496.903 312.321C497.477 312.442 497.945 312.533 498.429 312.623C498.897 313.65 499.365 314.663 499.833 315.69C498.459 315.932 497.085 316.158 495.031 316.521C498.58 319.633 501.993 321.748 506.886 322.866C505.089 319.089 500.452 319.482 499.894 315.735C500.875 315.735 501.857 315.735 502.839 315.735C503.881 316.219 504.938 316.702 505.98 317.186C506.75 318.137 507.838 318.485 509.001 318.696C509.711 319.784 510.843 320.041 512.021 320.207C512.731 321.31 513.864 321.567 515.042 321.718L516.431 324.74C514.347 326.039 512.233 323.41 508.925 324.709C513.788 327.595 517.625 330.042 522.11 331.326C525.342 333.623 528.559 335.934 531.791 338.231C523.047 341.449 514.257 344.123 504.878 340.89C503.896 340.149 502.884 339.575 501.691 340.482C501.902 341.569 502.869 341.796 503.639 342.249C509.152 345.241 514.997 345.135 520.932 344.123C526.988 343.095 532.954 341.403 539.146 341.177C545.565 345.679 552.331 346.978 559.747 343.745C562.073 342.733 564.625 342.612 567.177 342.869C569.987 341.449 572.433 343.322 574.986 343.836C582.22 345.286 589.167 348.217 596.9 347.673C589.213 345.346 581.525 343.02 573.823 340.693C580.06 336.75 587.053 335.149 593.759 337.974C600.812 340.935 607.2 345.437 613.634 349.108C613.951 351.45 610.795 351.556 611.444 353.746C613.544 354.532 614.963 351.707 618.074 353.248C620.551 359.759 627.031 363.793 633.026 368.189C639.053 372.631 645.411 376.634 651.739 380.653C654.216 382.224 656.663 384.234 659.97 383.72V400.338C657.463 400.958 657.282 403.028 657.146 405.037C656.798 410.249 656.512 415.461 656.225 420.265C657.04 422.26 658.505 422.637 659.97 423V469.834C654.246 468.232 647.993 469.063 642.3 466.359C640.442 455.134 638.615 444.09 636.606 431.989C631.35 439.543 629.009 447.051 628.42 455.074C628.088 459.576 627.907 464.048 626.925 468.504C625.279 475.892 624.765 483.416 625.233 490.985H619.192C619.117 481.754 622.243 472.795 621.926 463.413C618.95 462.22 616.443 461.343 613.483 462.295C611.188 469.804 611.188 477.312 611.354 484.972C610.145 484.413 609.556 482.902 608.107 483.627C605.237 485.38 606.46 488.537 605.614 490.985H602.594C602.745 488.023 604.391 485.062 602.488 481.074C600.766 484.926 599.407 487.963 598.063 490.985H589.001C591.659 473.611 588.02 456.766 584.334 439.921C583.609 437.594 580.815 436.597 580.09 433.349C578.882 430.886 582.779 427.094 579.456 424.405C576.783 424.284 577.417 427.653 574.215 427.336C574.427 421.701 570.696 418.135 566.588 415.476C564.791 413.195 566.256 410.461 564.67 409.01C563.281 407.575 561.967 406.759 560.366 407.031C553.842 408.089 549.295 404.946 545.384 400.263C543.451 397.936 541.276 395.867 538.693 394.22C535.673 392.286 532.697 390.337 529.027 392.603C528.091 396.531 525.841 399.059 522.276 400.187C510.526 389.129 499.486 376.952 489.609 364.805C485.863 364.156 483.22 363.294 480.411 363.491C477.723 363.687 475.14 365.289 472.421 364.186C467.785 356.043 461.593 352.9 455.415 355.438C454.253 358.294 459.07 359.004 457.832 361.768C455.702 364.654 451.277 363.461 449.722 366.709C449.389 369.005 452.606 369.866 450.96 373.764C433.169 374.58 416.284 385.216 397.148 382.678C380.52 372.087 364.42 361.149 347.127 352.734C342.536 357.13 340.165 361.602 337.008 365.651C332.568 367.056 328.218 368.809 325.016 372.178C320.621 370.41 319.489 365.696 315.637 364.095L315.547 363.974C308.75 355.317 301.984 346.646 295.112 338.049C292.469 334.756 288.784 332.278 287.35 328.048C287.214 323.591 287.395 319.165 288.377 315.131C291.744 313.756 293.693 315.494 295.777 316.793C306.998 323.773 318.205 330.752 329.472 337.657C332.658 339.606 335.89 341.6 339.863 341.464L339.712 341.343C340.24 341.434 340.769 341.524 341.297 341.615C361.671 353.535 380.973 367.162 401.135 379.883C408.868 374.036 418.519 371.588 427.203 367.102C435.736 362.69 444.889 359.412 454.132 353.187C404.322 325.147 355.857 297.863 306.923 270.322C313.478 265.548 321.12 266.001 329.079 262.481C319.156 257.873 310.699 254.897 302.105 252.223C303.948 247.539 310.548 250.772 312.436 246.104C307.859 241.708 294.342 244.503 282.804 252.359C289.494 252.751 295.732 253.038 301.984 252.328C300.746 254.579 298.42 255.033 296.275 255.214C290.763 255.697 285.703 257.737 281.203 259.293C277.895 259.64 275.705 256.483 272.836 258.311C270.993 262.224 272.171 266.137 272.745 270.065C274.18 279.839 273.696 282 268.863 288.421C266.991 285.52 265.843 282.529 266.281 279.265C268.456 262.964 264.182 248.113 256.449 233.973C255.981 233.111 255.83 232.099 255.528 231.147C257.506 229.047 261.01 232.628 262.807 229.214C259.847 225.981 256.464 227.657 253.217 228.141L253.202 228.156ZM385.685 307.26C386.803 306.988 387.815 306.55 388.479 305.553C389.446 305.024 390.427 304.48 391.394 303.951C399.278 301.066 407.403 300.069 415.77 300.824C427.626 301.897 438.712 305.734 449.646 310.145C451.081 311.233 452.501 312.321 453.935 313.424C454.555 315.766 455.974 317.352 458.285 318.137C459.267 319.119 460.233 320.101 461.215 321.083C462.453 323.38 464.266 325.132 466.38 326.598C468.313 328.985 470.851 330.541 473.599 331.795C474.188 332.233 474.777 332.505 475.457 331.976C475.835 331.13 475.215 330.798 474.672 330.405C472.27 328.668 469.854 326.945 467.453 325.208C465.972 323.259 464.402 321.416 462.333 320.056C461.442 318.968 460.535 317.866 459.644 316.778C458.013 315.373 456.382 313.953 454.736 312.548C453.709 310.976 452.319 309.828 450.598 309.088C440.131 302.773 428.502 300.371 416.586 298.951C407.524 297.863 398.674 298.301 390.458 302.879C389.536 303.453 388.63 304.042 387.709 304.616C386.803 305.251 385.896 305.9 384.975 306.535C384.371 306.928 383.767 307.335 383.178 307.728C382.468 307.894 381.864 308.166 381.713 308.997C382.649 309.874 383.374 309.496 384.009 308.589C384.567 308.136 385.141 307.683 385.7 307.23L385.685 307.26ZM537.621 333.94C537.515 333.29 537.349 333.155 537.183 333.578C537.183 333.593 537.53 333.759 537.712 333.849C539.131 335.496 540.611 336.992 543.466 336.312C541.653 334.56 539.826 333.834 537.621 333.94ZM487.283 356.209C490.59 358.732 492.523 362.766 496.435 364.639C499.592 370.365 503.262 375.668 508.925 379.263C512.656 387.527 516.779 391.591 524.33 393.147C518.757 387.572 516.794 380.487 509.031 379.188C507.521 372.147 502.22 368.114 497.039 363.974C495.982 359.91 492.025 357.584 490.832 353.595C487.509 351.571 487.721 354.335 487.283 356.224V356.209ZM478.206 332.339C478.04 332.913 477.858 333.487 477.692 334.046C484.776 336.07 491.859 338.11 498.927 340.134C499.078 339.651 499.214 339.182 499.365 338.699C492.75 335.134 485.485 333.714 478.206 332.324V332.339ZM428.683 259.353C424.409 256.71 423.08 256.634 422.959 258.794C424.394 260.124 425.934 261.015 428.683 259.353ZM601.99 453.321C601.038 454.771 601.084 455.799 603.017 456.222C603.712 454.817 603.304 453.925 601.99 453.321Z" fill="#528BC9"/>
<path d="M287.349 328.063C288.784 332.294 292.485 334.771 295.112 338.065C301.984 346.661 308.75 355.348 315.547 363.99C314.233 364.231 312.571 363.415 311.65 365.334C313.553 366.633 314.731 365.863 315.637 364.126C319.489 365.727 320.621 370.441 325.016 372.208C328.218 368.839 332.568 367.087 337.008 365.682C340.165 361.633 342.521 357.161 347.127 352.765C364.42 361.18 380.52 372.118 397.148 382.708C416.284 385.231 433.154 374.61 450.96 373.794C452.606 369.897 449.389 369.036 449.722 366.739C451.277 363.491 455.702 364.685 457.832 361.799C459.085 359.034 454.252 358.324 455.415 355.469C461.608 352.931 467.785 356.073 472.421 364.216C475.14 365.319 477.738 363.718 480.411 363.521C483.235 363.31 485.863 364.186 489.609 364.836C499.501 376.982 510.526 389.159 522.276 400.218C525.841 399.09 528.091 396.562 529.027 392.634C532.697 390.368 535.673 392.316 538.693 394.25C541.261 395.897 543.436 397.967 545.384 400.293C549.295 404.992 553.842 408.134 560.366 407.062C561.967 406.805 563.281 407.605 564.67 409.041C566.256 410.491 564.791 413.226 566.588 415.507C570.696 418.166 574.412 421.731 574.215 427.366C577.417 427.684 576.783 424.315 579.456 424.435C582.779 427.125 578.882 430.902 580.09 433.379C580.815 436.627 583.609 437.624 584.334 439.951C588.02 456.796 591.659 473.641 589.001 491.015H297.514C296.864 490.652 296.26 490.063 295.581 489.958C281.988 487.827 268.32 486.06 254.803 483.522C248.595 482.358 241.633 483.476 236.377 478.581C236.619 478.234 236.86 477.886 237.072 477.524C247.795 479.79 258.427 483.461 268.894 479.775C271.793 478.113 271.914 474.956 275.463 473.264C281.036 473.294 287.727 473.535 294.433 473.022C300.64 472.553 306.863 473.898 313.055 474.351C323.295 475.107 333.504 476.587 343.835 476.361C348.109 476.27 352.217 474.729 356.566 475.363C364.571 476.512 372.651 476.074 380.641 475.545C387.452 475.092 394.354 474.306 401.256 471.451C398.945 468.58 396.468 467.734 393.599 467.553C391.907 469.033 391.575 471.677 387.754 473.037C376.2 474.094 363.197 474.321 350.435 470.725C344.967 469.184 339.621 469.215 334.063 469.955C320.712 471.753 307.754 470.952 294.825 466.102C283.982 462.038 274.21 454.53 261.856 454.908C265.254 442.036 267.806 429.028 268.139 415.673C281.776 419.692 295.233 417.063 310.231 414.978C317.555 417.199 320.667 416.413 324.911 410.249C317.495 397.801 304.718 388.434 302.211 372.163C298.888 371.77 298.163 368.869 296.668 366.195C292.802 359.291 289.358 351.571 279.843 350.619C280.1 346.631 281.006 343.02 285.326 341.464C285.22 343.292 285.945 344.637 287.636 345.437C288.558 347.945 289.887 350.121 292.5 351.193C292.877 351.39 293.436 351.843 293.617 351.722C294.508 351.148 293.995 350.619 293.391 350.166C292.53 347.658 290.884 345.755 288.86 344.108C288.346 342.416 287.878 340.678 285.718 340.376C284.495 336.04 287.259 332.248 287.365 328.094L287.349 328.063ZM305.473 365.244C303.389 362.313 302.135 358.445 296.864 357.463C298.556 361.995 300.444 364.972 304.144 366.497C305.111 369.398 306.742 371.861 308.705 374.187C314.505 381.091 320.244 388.056 325.968 395.036C328.883 398.601 331.556 402.378 335.558 404.947C326.738 390.776 316 378.085 305.458 365.259L305.473 365.244ZM410.409 462.613V469.184C410.816 469.487 411.209 469.804 411.617 470.106C413.973 465.136 422.34 468.036 423.004 460.482C419.757 458.095 416.344 458.503 413.203 458.201C403.038 457.234 393.463 454.923 385.67 447.777C384.567 446.765 383.42 445.768 382.166 444.952C374.312 439.83 365.779 438.984 356.778 440.873C363.68 444.423 371.141 445.873 378.889 447.414C384.205 453.352 392.934 454.364 398.84 459.863C400.516 461.751 399.565 464.833 402.419 467.145C402.238 465.06 401.332 463.489 402.751 462.114C404.216 460.89 406.421 461.48 408.264 460.754C408.974 461.374 409.699 462.008 410.409 462.628V462.613ZM403.869 430.161C389.838 424.949 375.717 423.03 361.173 424.118C368.634 426.883 376.548 426.943 384.25 428.258C392.542 429.663 399.368 434.739 405.545 437.534C408.506 440.676 406.814 444.302 409.759 445.888C411.934 445.813 413.112 444.861 413.097 442.127C408.611 439.498 409.004 432.956 403.884 430.161H403.869ZM385.896 466.254C380.127 462.054 373.421 460.845 366.55 460.18C372.017 465.377 379.266 464.818 385.896 466.254ZM348.819 455.965C353.682 457.763 358.182 461.525 364.662 458.639C359.255 454.817 354.241 454.031 348.819 455.965ZM327.765 384.642C328.883 386.787 329.849 386.047 331.088 384.808C329.728 383.403 328.732 383.72 327.765 384.642Z" fill="white"/>
<path d="M552.512 332.46C568.899 325.027 585.301 317.594 601.929 310.055C594.876 303.801 590.783 303.106 580.906 306.626C566.83 302.093 553.086 294.645 537.288 288.557C540.354 293.89 541.593 298.664 542.559 303.121C541.245 305.07 539.539 305.342 538.209 304.964C530.522 302.834 522.321 304.45 514.755 301.55C509.408 299.51 504.953 302.305 500.437 304.39C498.202 305.432 496.45 307.517 493.187 307.502C489.714 303 484.881 300.583 478.749 300.069C473.931 299.661 469.778 296.337 466.093 293.739C458.919 288.663 450.733 285.656 443.212 280.897C440.131 273.162 446.383 267.92 448.347 261.605C448.513 263.75 450.189 264.279 451.79 265.004C456.744 267.27 461.743 269.491 466.561 272.014C471.772 274.733 477.752 276.169 481.845 280.837C481.679 282.484 481.543 284.115 482.177 285.717C482.54 286.91 483.355 287.575 484.579 287.741C485.334 288.058 485.923 287.847 486.421 287.227C486.965 279.266 484.307 271.802 483.658 264.173C475.124 261.544 467.92 257.541 460.293 254.534C455.959 252.827 452.062 249.866 447.154 249.73C441.188 246.014 434.814 243.385 427.49 241.95C426.342 245.953 426.644 250.153 421.69 252.314C419.228 251.664 415.845 251.891 412.507 253.779C398.19 248.416 384.567 241.587 370.989 234.668C368.573 233.399 368.784 230.196 367.183 229.123C360.508 225.83 354.391 222.929 348.395 219.817C338.941 214.892 337.128 211.266 338.231 200.645C338.442 198.666 338.261 196.627 338.276 194.632C338.503 189.284 338.744 183.936 338.971 178.588C340.315 173.859 339.953 169.085 339.469 164.296C339.666 152.86 339.892 141.408 340.043 129.971C340.089 126.95 340.058 123.974 342.218 121.541C344.62 121.315 347.112 121.511 349.286 120.182C350.797 118.535 350.495 116.556 350.404 114.622C352.76 94.3626 354.829 74.073 355.932 53.1489C343.925 52.605 332.718 52.0913 321.512 51.5777C322.282 49.8403 325.212 49.5834 324.684 46.9547C321.431 44.4166 317.862 44.6986 313.976 47.8007C311.272 46.7885 308.176 47.8914 305.412 47.7856C303.721 43.5555 305.563 39.1742 302.618 35.8506C302.679 34.6419 302.739 33.4333 302.784 32.2247C304.823 30.6233 304.582 28.2816 304.853 26.0759C305.896 17.4192 306.53 8.73225 306.59 0H309.611C309.852 0.951785 309.112 2.34169 310.713 2.73449C311.514 1.85825 311.287 0.936677 311.121 0H320.183V34.6419C322.328 34.793 324.064 34.8988 325.786 35.0196C325.756 36.3642 325.424 37.4822 323.762 37.7843C321.603 37.2556 319.79 36.0318 318.295 34.2794C316.981 30.6233 317.6 26.8464 317.419 23.1299C317.253 19.7306 317.268 16.3314 317.208 12.9322C313.93 19.776 316.135 26.9672 313.205 33.3125C314.972 35.5635 315.395 38.2225 318.355 40.6246C323.959 40.4735 330.468 41.803 337.098 39.7181C336.192 37.18 333.156 37.5577 332.824 35.2009C338.08 35.4578 343.351 35.7297 348.607 35.9865C350.223 36.757 351.884 36.6059 353.561 36.2131C354.799 36.1527 356.037 36.1074 357.185 36.047C360.689 29.4751 357.17 21.1357 363.408 14.6998C379.236 16.9508 395.35 19.2321 411.465 21.5285V21.1659C415.12 22.9788 419.062 22.8579 423.004 22.7673L422.762 22.6918C423.925 24.4291 425.783 23.7795 427.384 24.0817C430.51 27.9039 435.192 27.073 439.225 27.6773C446.716 28.7953 454.207 30.578 461.592 29.4298C469.929 33.4031 478.93 32.693 487.448 34.1132C496.676 35.6693 506.131 37.4671 515.676 36.2887C517.171 37.9203 518.968 38.6002 521.158 37.9354L520.932 37.8448C521.672 39.0836 522.971 39.0685 524.164 39.3253C535.113 41.667 546.229 42.6641 557.33 43.8123C573.611 47.4835 590.118 49.3568 606.822 50.0971C595.752 48.3597 584.666 46.6374 573.596 44.9001C573.611 44.6583 573.641 44.4015 573.656 44.1598H597.625C598.485 45.2324 599.512 45.0965 600.6 44.613C607.834 45.8367 615.129 45.595 622.409 45.3533L660.03 46.849V64.9782C651.165 64.1473 642.027 64.9933 632.966 59.8265C630.836 54.8107 626.033 52.2424 619.645 52.4086C617.274 51.0942 614.857 50.8827 611.036 52.1366C614.479 52.7561 616.609 53.1489 618.754 53.5417C625.792 57.5452 624.493 63.9811 623.511 70.2205C616.82 112.628 610.054 155.02 603.379 197.427C602.896 200.494 602.276 203.697 603.696 206.749C608.755 205.842 608.242 200.6 611.308 198.5C610.991 200.691 610.674 202.881 610.356 205.072C608.922 209.075 607.351 213.064 609.088 217.082C611.942 219.062 615.25 218.548 619.01 219.938C614.782 221.041 611.323 219.53 607.94 221.902C604.693 232.371 605.629 243.808 602.941 255.003C607.411 252.162 613.045 257.178 616.488 252.525C617.198 250.032 613.301 249.398 615.204 246.663C619.207 245.394 623.451 244.05 627.121 242.886C629.326 240.59 629.16 238.279 629.431 236.043C630.398 228.171 631.606 226.842 639.49 225.361C644.157 224.485 648.884 223.881 653.596 223.186C654.276 223.08 654.518 222.823 654.306 222.264C652.886 220.92 650.545 220.678 649.609 217.868C649.836 213.517 650.304 208.607 652.464 204.528C655.001 202.383 657.568 202.579 660.06 202.443V383.735C656.753 384.264 654.306 382.24 651.829 380.668C645.501 376.65 639.143 372.646 633.117 368.205C627.121 363.793 620.642 359.759 618.165 353.263C615.038 351.722 613.634 354.547 611.534 353.762C610.885 351.586 614.042 351.465 613.724 349.124C607.29 345.437 600.887 340.935 593.849 337.989C587.128 335.179 580.15 336.766 573.913 340.709C571.738 339.636 569.02 340.271 567.041 338.548C572.644 335.27 579.395 335.073 585.89 331.674C575.423 326.251 566.95 331.871 557.33 333.759C558.946 335.481 559.792 336.388 560.622 337.279C558.145 337.083 555.669 336.871 553.177 336.675C552.965 335.648 552.754 334.635 552.542 333.608C552.708 333.23 552.723 332.853 552.572 332.475L552.512 332.46ZM597.262 289.614C596.945 292.273 596.28 294.963 597.64 298.029C602.02 300.341 605.584 303.937 607.2 309.149C606.037 309.768 606.233 310.463 607.094 311.188C606.535 313.621 605.992 316.068 605.252 319.346C608.046 321.597 607.064 325.027 606.309 328.532C605.327 333.094 605.055 337.566 609.571 340.709C612.788 341.313 615.537 340.406 618.527 338.307C621.366 323.335 623.345 307.985 623.405 292.651C621.623 290.627 620.158 288.965 618.814 287.439C618.527 282.468 619.161 277.604 615.944 273.872C615.25 271.576 619.071 272.83 618.089 270.397C612.863 269.098 607.774 266.983 602.095 266.651C599.195 271.364 599.558 276.395 598.939 280.912C601.113 283.738 604.179 283.602 606.596 284.795C608.227 285.596 610.9 284.312 611.489 287.182C606.732 287.907 601.355 284.901 597.277 289.584L597.262 289.614ZM608.937 70.2659C528.528 56.397 448.739 42.649 367.727 28.6744C362.592 82.775 357.487 136.422 352.367 190.357C427.263 221.343 501.343 251.996 576.254 282.997C587.204 211.719 598.017 141.348 608.937 70.281V70.2659ZM497.794 271.213C495.982 276.833 499.621 278.072 502.431 279.266C509.318 282.197 516.355 284.78 523.378 287.394C525.508 288.194 527.788 288.602 529.525 285.279C519.27 280.097 508.834 275.595 497.794 271.213ZM603.409 262.254C608.71 264.203 613.86 267.361 619.932 264.611C614.842 261.59 609.209 261.469 603.409 262.254ZM601.899 212.006C601.355 214.65 600.842 216.78 602.956 218.835C603.892 216.282 602.835 214.408 601.899 212.006ZM445.794 237.523C444.662 239.215 444.752 240.152 446.353 240.635C447.305 239.608 447.441 238.671 445.794 237.523ZM653.355 266.908C653.596 265.351 653.007 264.566 652.312 265.049C651.014 265.926 651.693 266.575 653.355 266.908ZM632.014 325.812C631.818 325.42 631.712 324.8 631.395 324.664C630.443 324.241 629.869 324.876 630.187 325.692C630.504 326.523 631.35 326.371 632.014 325.812ZM635.155 341.721C634.521 341.887 634.37 342.265 634.582 342.884C634.853 343.624 635.276 343.715 635.548 342.99C635.669 342.673 635.306 342.159 635.155 341.721Z" fill="#1B3F79"/>
<path d="M90.6028 141.891C89.6211 139.882 89.1831 137.45 86.6005 136.649C83.157 138.326 79.0943 137.359 75.681 139.187C70.0627 139.474 65.124 142.073 59.9437 143.84C55.6998 145.306 52.1808 147.768 49.5378 151.424C48.7675 151.998 48.0124 152.557 47.2421 153.132L46.5927 152.996L46.3057 153.585C45.6261 153.993 44.9465 154.385 44.2668 154.793C37.7725 156.863 32.3657 161.018 26.4453 164.16C23.8778 165.52 21.4915 167.786 18.1538 166.502C17.2627 165.021 15.8732 163.631 17.0966 161.683C20.4645 160.927 23.8174 160.157 27.1854 159.401C17.7611 158.797 9.40915 153.464 0 154.098V0H200.87C199.541 8.41498 201.881 17.0717 200.009 25.3507C196.686 26.5744 193.348 25.2752 191.038 27.7226C188.832 26.5442 186.537 25.5169 184.453 24.1572C177.007 19.3227 169.063 17.0264 160.197 18.8846C158.158 18.7184 156.18 18.9753 154.277 19.7458C137.966 19.0508 123.119 23.0997 110.131 33.2822C102.383 36.1829 96.0851 40.8814 91.7204 48.0122C87.8389 53.2244 86.7515 59.3279 86.6307 65.5674C86.4796 73.2723 85.7698 80.9168 84.7277 88.5311C84.6824 91.749 82.5831 94.7857 83.595 98.1849C84.8334 97.777 84.8636 97.082 84.7428 96.3266C86.6005 93.9245 87.8389 90.4044 92.0526 92.172C91.8261 94.2871 92.687 95.5108 94.892 95.6015C95.768 96.1907 96.6439 96.7648 97.5199 97.354C97.4595 101.282 99.5437 103.337 103.319 103.261C106.295 103.201 109.98 103.76 110.327 99.0762C111.913 99.6201 113.499 100.164 115.1 100.708C117.078 102.294 119.057 103.865 121.05 105.452C122.379 108.821 124.449 111.344 128.3 111.872C133.118 120.786 139.249 128.718 145.804 136.256C151.845 138.477 157.207 135.138 162.87 135.108C165.106 132.343 165.906 128.385 169.984 127.66C171.811 128.219 172.718 130.712 175.708 130.092C178.396 130.334 179.076 126.618 182.927 125.152C183.411 124.925 185.117 125.832 186.854 125.772C187.7 127.041 189.799 126.663 190.313 128.37C189.557 131.905 186.159 133.839 184.755 137.616C187.896 145.653 189.557 154.098 184.09 161.864C178.351 164.417 176.025 159.567 172.249 157.301C169.259 156.788 165.106 157.165 165.076 151.998C165.529 149.596 168.262 148.252 168.338 144.233C162.085 149.929 153.174 147.859 147.632 154.37C151.891 156.833 155.485 153.268 159.699 154.567C163.671 157.83 167.719 161.849 172.808 164.357C171.222 168.194 169.501 170.838 165.498 171.744C156.875 166.728 146.393 166.381 137.528 162.015C134.477 163.994 133.676 167.136 131.471 169.75C127.469 168.98 124.071 170.777 121.02 174.282C113.197 161.834 106.823 149.43 102.111 135.652C100.571 142.163 96.206 143.251 90.633 141.861L90.6028 141.891ZM84.4105 117.432C84.8334 116.737 84.7881 116.103 84.1991 115.513C83.2174 115.8 83.5044 116.526 83.6403 117.19C83.595 120.287 82.1602 123.672 85.6037 126.195C85.1959 123.173 84.8032 120.303 84.4105 117.432Z" fill="white"/>
<path d="M321.497 51.5927C332.703 52.1064 343.895 52.6201 355.917 53.1639C354.814 74.0881 352.76 94.3626 350.389 114.637C347.957 115.075 345.314 114.395 343.14 116.072C341.448 117.659 341.282 119.517 342.203 121.556C340.044 124.004 340.059 126.98 340.028 129.987C339.877 141.423 339.651 152.875 339.454 164.311C337.838 169.025 338.292 173.814 338.956 178.603C338.73 183.951 338.488 189.299 338.261 194.647C327.916 193.65 317.57 192.593 307.21 191.686C304.521 191.445 301.818 190.614 299.114 191.52C295.792 189.103 296.94 185.371 296.502 182.153C296.154 179.51 296.29 176.79 296.215 174.101C298.359 171.759 297.785 169.236 296.758 166.653C295.203 165.459 293.662 164.281 292.122 163.118C292.273 162.861 292.424 162.589 292.575 162.332C293.103 162.166 293.33 161.818 293.27 161.259C293.602 159.839 293.934 158.419 294.251 156.984C294.765 156.546 294.78 156.047 294.402 155.503C294.463 155.141 294.478 154.793 294.448 154.431C295.852 151.424 296.698 148.388 294.614 144.46C281.474 141.121 267.746 138.13 253.881 135.637C253.368 135.471 252.869 135.289 252.356 135.123C253.926 127.358 251.918 119.668 251.918 111.933C251.933 86.1138 252.039 60.2797 251.616 34.4606C251.434 22.9788 252.643 11.4365 250.694 -0.0151367H303.555C302.784 10.7264 301.667 21.4378 302.739 32.2247C302.679 33.4333 302.618 34.6419 302.573 35.8505C301.939 40.7303 301.803 45.5799 302.905 50.8222C309.294 51.8042 315.335 52.469 321.482 51.5776L321.497 51.5927Z" fill="white"/>
<path d="M348.606 35.9865C343.351 35.7297 338.08 35.4578 332.824 35.2009C330.498 34.6268 328.142 34.6722 325.786 35.0196C324.064 34.8988 322.327 34.793 320.183 34.6419V0H660V46.8338L622.378 45.3382C622.937 38.3886 623.496 31.4391 624.009 24.973C615.657 14.3372 609.616 13.3099 592.686 19.2925C589.695 17.2983 586.69 15.3343 582.551 15.425C562.208 15.8631 542 12.8415 521.687 12.4487C518.892 12.3883 516.249 11.6329 513.576 10.8624C509.498 9.69914 505.375 8.70203 502.324 6.17905C500.225 6.51142 499.893 8.67182 498.156 8.65671C492.341 6.84378 486.421 9.07972 480.531 8.06751C471.514 6.51142 462.075 9.15526 453.195 5.39345C451.941 4.86468 449.887 4.89489 448.8 5.58985C443 9.27612 437.246 7.64449 433.062 6.16394C421.539 10.0768 410.936 5.98265 400.621 8.15815C400.666 12.1315 401.331 15.4552 403.355 18.2501C405.968 20.0177 409.924 17.7666 411.45 21.5134C395.335 19.2321 379.22 16.9357 363.392 14.6847C357.155 21.1054 360.689 29.46 357.17 36.0318C356.037 36.0772 354.784 36.1376 353.545 36.198C351.929 35.3671 350.268 35.4578 348.591 35.9714L348.606 35.9865Z" fill="white"/>
<path d="M610.312 205.042C610.629 202.851 610.946 200.66 611.263 198.47C611.822 196.566 612.577 194.693 612.894 192.744C618.15 159.839 623.285 126.905 628.647 94.0151C629.764 87.1864 629.825 80.0707 633.072 73.1665C642.118 73.3025 651.044 74.7377 660.015 74.0125V151.062C656.783 154.34 652.857 156.304 648.416 157.498C644.958 158.419 641.967 160.277 639.928 163.979C639.868 167.514 640.759 171.805 636.107 174.751C634.204 175.159 631.758 175.672 628.601 176.337C627.197 179.963 622.771 180.733 619.857 183.589C618.935 189.345 618.014 195.025 617.093 200.751C615.265 202.851 613.332 204.785 610.312 205.042Z" fill="white"/>
<path d="M610.311 205.041C613.317 204.784 615.25 202.866 617.092 200.751C618.014 195.025 618.935 189.344 619.856 183.588C622.756 180.748 627.196 179.963 628.601 176.337C631.772 175.672 634.204 175.158 636.107 174.75C640.744 171.804 639.868 167.499 639.928 163.979C641.967 160.292 644.957 158.434 648.416 157.497C652.856 156.304 656.783 154.34 660.015 151.062V202.428C657.523 202.549 654.971 202.367 652.418 204.513C650.258 208.592 649.79 213.502 649.564 217.853C650.5 220.663 652.841 220.904 654.261 222.249C654.472 222.808 654.231 223.065 653.551 223.171C648.854 223.881 644.127 224.485 639.445 225.346C631.561 226.827 630.353 228.156 629.386 236.027C629.114 238.248 629.28 240.575 627.075 242.871C623.405 244.034 619.161 245.379 615.159 246.648C613.256 249.382 617.168 250.017 616.443 252.51C612.984 257.163 607.366 252.147 602.896 254.987C605.584 243.793 604.647 232.356 607.895 221.886C611.278 219.514 614.736 221.025 618.965 219.922C615.204 218.532 611.897 219.046 609.042 217.067C607.306 213.033 608.876 209.045 610.311 205.056V205.041Z" fill="#528BC9"/>
<path d="M250.709 0C252.643 11.4365 251.434 22.9939 251.631 34.4758C252.054 60.2948 251.963 86.1289 251.933 111.948C251.933 119.683 253.942 127.388 252.371 135.138C251.344 135.803 250.377 136.74 248.942 135.712C242.735 122.372 237.766 108.458 233.945 94.1511C233.552 92.6555 232.948 91.9756 231.498 91.9152C230.381 90.8425 231.015 88.3045 228.78 88.3347C226.197 88.9239 227.98 91.5375 226.409 92.5648C225.14 92.4742 223.887 93.8188 222.271 92.595C222.422 91.4922 222.573 90.3289 222.739 89.1505C225.865 84.8599 224.717 79.5571 226.439 75.0248C221.802 65.6731 215.474 57.4243 212.982 47.3475C212.469 45.2778 210.943 43.9181 209.312 42.7548C205.023 39.6879 201.066 36.3642 199.661 31.8017C196.792 29.2183 193.046 30.4269 191.053 27.6924C193.348 25.2601 196.686 26.5593 200.024 25.3205C201.882 17.0717 199.541 8.41498 200.87 0H206.911C206.911 6.26969 207.379 12.5998 206.79 18.8091C205.808 28.9917 212.016 35.352 217.634 42.6339C219.582 39.4915 217.785 37.2556 217.241 34.9441C214.477 23.2507 210.279 11.92 208.421 0C209.433 0 210.43 0 211.442 0C211.472 1.49566 211.185 3.09708 211.593 4.48698C215.988 19.3832 218.706 34.7779 225.14 49.0396C227.104 53.4057 228.886 57.8927 229.52 62.6063C230.713 71.3838 233.432 79.6175 237.117 87.5944C237.313 87.9721 236.951 88.7728 237.947 88.667C237.615 88.2742 237.343 87.9419 237.071 87.6246C237.615 80.8866 239.095 74.2543 238.748 67.4256C238.385 60.2042 241.074 53.6021 244.789 47.6799C247.357 43.6008 248.278 40.0505 245.801 35.8506C244.759 34.0678 244.699 32.0283 244.321 30.0492C243.279 24.6406 242.75 19.0357 240.893 13.9142C239.231 9.29123 238.295 4.81935 238.627 0H250.709Z" fill="#528BC9"/>
<path d="M237.132 87.6095C233.432 79.6327 230.728 71.3839 229.535 62.6214C228.886 57.9078 227.119 53.4208 225.155 49.0547C218.721 34.793 215.988 19.3832 211.608 4.50212C211.2 3.11221 211.487 1.5108 211.457 0.0151367C220.519 0.0151367 229.58 0.0151367 238.642 0.0151367C238.31 4.83449 239.246 9.30637 240.923 13.9293C242.78 19.0508 243.309 24.6558 244.351 30.0643C244.729 32.0283 244.789 34.0679 245.831 35.8657C248.293 40.0656 247.372 43.6159 244.819 47.695C241.104 53.6021 238.416 60.2193 238.778 67.4408C239.125 74.2846 237.645 80.9168 237.102 87.6398L237.147 87.6095H237.132Z" fill="#1B3F79"/>
<path d="M660 74.0275C651.044 74.7527 642.103 73.3175 633.056 73.1815C629.824 80.0857 629.748 87.2014 628.631 94.0301C623.269 126.92 618.134 159.854 612.878 192.759C612.561 194.708 611.806 196.566 611.247 198.485C608.181 200.585 608.695 205.827 603.635 206.734C602.216 203.682 602.835 200.479 603.318 197.412C609.994 155.005 616.76 112.613 623.45 70.2053C624.432 63.9658 625.731 57.5299 618.693 53.5264C618.995 53.1487 619.282 52.771 619.584 52.3933C625.973 52.2271 630.775 54.7954 632.905 59.8112C641.967 64.978 651.104 64.132 659.969 64.9629V74.0275H660Z" fill="#528BC9"/>
<path d="M625.263 491C624.795 483.431 625.324 475.907 626.955 468.52C627.952 464.063 628.118 459.591 628.45 455.089C629.039 447.067 631.38 439.558 636.636 432.004C638.644 444.106 640.472 455.164 642.33 466.374C648.023 469.079 654.276 468.248 660 469.849V491H637.346C638.086 488.477 636.772 486.256 636.334 483.899C636.832 483.658 636.983 483.235 636.56 482.932C636.334 482.766 635.835 482.993 635.458 483.038C632.316 484.942 632.256 487.873 632.83 491H625.278H625.263Z" fill="#1B3F79"/>
<path d="M236.392 478.566C241.633 483.461 248.61 482.343 254.818 483.507C268.335 486.045 282.003 487.812 295.596 489.942C296.275 490.048 296.879 490.637 297.529 491H229.565C230.789 486.271 234.111 482.706 236.392 478.566Z" fill="#528BC9"/>
<path d="M18.1387 166.502C21.4764 167.786 23.8627 165.535 26.4302 164.16C32.3657 161.018 37.7574 156.863 44.2517 154.793C45.46 156.229 45.0069 157.694 43.9648 158.842C39.0563 164.19 33.8156 168.647 26.551 171.17C17.8215 174.177 9.16751 177.062 0 178.271V176.76C5.36156 175.083 9.27323 171.231 13.4719 167.816C15.5712 169.297 16.8247 167.786 18.1236 166.502H18.1387Z" fill="#528BC9"/>
<path d="M608.121 483.642C609.571 482.917 610.16 484.428 611.368 484.987C611.202 477.327 611.202 469.819 613.497 462.31C616.458 461.374 618.95 462.235 621.94 463.428C622.257 472.795 619.131 481.769 619.206 491H607.124C607.456 488.552 607.789 486.09 608.106 483.642H608.121Z" fill="white"/>
<path d="M208.421 0C210.279 11.92 214.477 23.2507 217.241 34.9441C217.785 37.2707 219.582 39.4915 217.634 42.6339C212 35.352 205.808 28.9917 206.79 18.8091C207.394 12.5847 206.911 6.26969 206.911 0H208.421Z" fill="#1B3F79"/>
<path d="M0 154.098C9.40915 153.464 17.7611 158.797 27.1551 159.386C23.7872 160.141 20.4343 160.912 17.0664 161.667C11.3725 161.365 5.69382 159.25 0 161.637V154.083V154.098Z" fill="#528BC9"/>
<path d="M302.755 32.2398C301.667 21.4529 302.8 10.7265 303.57 0H306.591C306.53 8.73225 305.896 17.4192 304.824 26.091C304.552 28.2967 304.794 30.6535 302.755 32.2398Z" fill="#528BC9"/>
<path d="M13.4719 167.816C9.27323 171.231 5.36156 175.083 0 176.76C0 173.739 0 170.717 0 167.695C2.96018 166.517 5.84485 165.097 8.88055 164.206C11.7048 163.39 13.8041 164.236 13.4719 167.816Z" fill="white"/>
<path d="M13.4719 167.816C13.8041 164.236 11.7048 163.39 8.88055 164.205C5.84485 165.097 2.94508 166.502 0 167.695C0 165.686 0 163.661 0 161.652C5.69382 159.265 11.3876 161.365 17.0664 161.682C15.843 163.631 17.2325 165.006 18.1236 166.502C16.8096 167.801 15.5561 169.297 13.4719 167.816Z" fill="#1B3F79"/>
<path d="M660 423.015C658.535 422.637 657.07 422.275 656.255 420.281C656.542 415.476 656.829 410.264 657.176 405.052C657.312 403.043 657.493 400.973 660 400.354V423.015Z" fill="#1B3F79"/>
<path d="M598.078 491C599.437 487.963 600.782 484.942 602.503 481.089C604.391 485.093 602.745 488.054 602.609 491H598.078Z" fill="#1B3F79"/>
<path d="M636.334 483.899C636.787 486.256 638.101 488.477 637.346 491H632.815C632.256 487.873 632.301 484.942 635.443 483.038C635.73 483.325 636.032 483.612 636.319 483.899H636.334Z" fill="#528BC9"/>
<path d="M608.121 483.643C607.789 486.09 607.456 488.553 607.139 491H605.629C606.49 488.553 605.251 485.395 608.121 483.643Z" fill="#1B3F79"/>
<path d="M311.122 0C311.303 0.921569 311.529 1.85825 310.714 2.73449C309.098 2.34169 309.838 0.951785 309.611 0H311.122Z" fill="#528BC9"/>
<path d="M272.82 258.311C275.705 256.468 277.88 259.625 281.187 259.293C285.703 257.737 290.748 255.697 296.26 255.214C298.405 255.033 300.716 254.564 301.969 252.328L302.105 252.238C310.683 254.912 319.156 257.888 329.079 262.496C321.12 266.016 313.462 265.578 306.923 270.337C355.856 297.878 404.337 325.163 454.132 353.202C444.889 359.442 435.736 362.705 427.203 367.117C418.519 371.604 408.853 374.051 401.135 379.898C380.988 367.162 361.686 353.55 341.297 341.63C340.769 341.539 340.24 341.449 339.711 341.358L339.862 341.479C325.243 330.586 309.324 321.703 294.267 311.49C292.213 310.1 290.098 308.771 287.606 307.154C285.446 297.516 283.241 287.62 281.036 277.724C287.047 276.999 292.303 274.34 297.363 271.138C291.608 272.573 285.764 273.706 280.478 276.591C277.865 270.518 276.505 263.931 272.82 258.311ZM286.942 286.306C286.715 287.816 287.198 288.27 288.678 287.68C288.331 286.804 287.848 286.351 286.942 286.306Z" fill="white"/>
<path d="M90.6025 141.891C96.1755 143.266 100.54 142.178 102.081 135.682C106.793 149.46 113.181 161.863 120.99 174.312C124.041 170.807 127.424 169.009 131.441 169.78C133.661 167.166 134.462 164.024 137.497 162.045C146.363 166.411 156.859 166.758 165.468 171.774C169.47 170.853 171.192 168.224 172.778 164.386C167.688 161.879 163.625 157.86 159.668 154.597C155.455 153.282 151.86 156.863 147.601 154.4C153.144 147.889 162.055 149.959 168.307 144.263C168.217 148.282 165.483 149.626 165.045 152.028C165.06 157.195 169.229 156.817 172.219 157.331C176.01 159.597 178.321 164.447 184.06 161.894C189.527 154.128 187.866 145.683 184.724 137.646C186.129 133.869 189.527 131.92 190.282 128.4C191.898 128.4 192.835 127.055 194.239 126.436C196.701 127.191 198.755 129.337 201.096 129.004C203.694 128.506 204.086 125.756 206.397 125.62C209.282 126.768 210.309 129.004 209.946 132.026C209.282 136.377 210.898 141.09 207.832 145.457C205.189 145.608 202.5 145.774 200.703 145.88C196.127 144.097 195.387 140.275 193.288 137.54L193.091 137.283L193.333 137.48C191.083 145.275 192.502 152.829 194.571 160.368C196.414 161.848 198.136 163.223 199.691 164.477C200.054 167.801 195.81 170.475 199.012 173.693C202.244 173.663 202.606 169.538 205.733 169.176C206.85 170.233 207.303 171.593 207.379 173.24C206.895 175.37 203.739 176.05 204.011 177.878C204.449 183.165 207.832 186.353 208.934 190.13C206.05 195.493 200.884 198.741 198.785 203.908C201.383 208.184 206.397 208.894 208.919 212.142C213.631 218.2 219.204 222.279 225.91 222.687C229.354 224.983 230.335 228.322 233.22 229.183C237.585 229.848 239.216 225.573 242.538 224.636C241.194 235.453 237.403 239.88 228.432 241.088C222.074 241.949 217.377 239.577 215.398 233.701C213.692 228.655 210.747 225.542 206.125 222.687C199.163 218.396 192.533 213.245 187.382 206.628C185.057 203.651 182.474 200.947 179.438 198.681C178.426 197.351 181.477 196.158 179.559 194.738C174.681 195.508 174.575 199.633 173.669 203.168C170.165 205.283 166.163 204.905 162.629 204.225C153.597 202.458 147.103 206.476 142.723 213.29C138.298 220.149 133.45 227.144 132.861 235.816L132.951 235.68C132.468 235.589 131.864 235.665 131.501 235.393C117.395 225.014 109.285 210.631 104.15 194.269C104.95 190.1 103.259 186.444 101.628 183.029C101.839 179.827 102.428 176.971 101.658 173.904C99.4378 165.036 94.7861 156.878 94.0762 147.556C93.9554 145.895 92.0675 144.792 90.6629 143.749C90.6629 143.145 90.6327 142.526 90.6176 141.921L90.6025 141.891ZM139.748 180.476C137.603 182.017 134.552 179.373 132.166 181.413C133.45 185.779 133.404 185.87 136.546 187.441C138.57 188.453 140.578 189.375 141.922 191.339C146.499 198.001 147.45 198.364 154.866 196.808C159.366 194.285 158.052 189.45 160.363 185.28C160.967 183.709 164.819 184.283 165.151 180.899C158.521 176.926 152.359 171.835 144.641 174.478C141.787 176.186 142.285 179.222 139.763 180.461L139.748 180.476ZM189.678 156.304C190.343 154.264 190.796 152.225 189.255 150.004C187.971 152.361 188.198 154.355 189.678 156.304Z" fill="#528BC9"/>
<path d="M279.828 350.589C289.328 351.541 292.786 359.276 296.653 366.165C298.148 368.824 298.873 371.74 302.196 372.132C304.703 388.388 317.48 397.77 324.895 410.219C320.651 416.383 317.54 417.168 310.215 414.948C295.233 417.033 281.776 419.661 268.123 415.643C258.004 414.086 247.795 413.452 237.343 413.966C231.091 399.946 222.316 388.116 213.571 376.891C215.429 371.483 220.05 370.909 223.267 368.99C233.386 362.947 243.747 357.493 256.479 361.043C263.487 362.992 269.785 360.333 274.738 354.91C276.249 353.248 277.593 351.39 279.828 350.589Z" fill="#528BC9"/>
<path d="M242.569 224.606C239.246 225.542 237.615 229.818 233.25 229.153C230.365 228.277 229.384 224.953 225.94 222.657C219.235 222.249 213.662 218.17 208.949 212.112C206.427 208.863 201.413 208.153 198.815 203.878C200.915 198.711 206.065 195.463 208.965 190.1C207.862 186.323 204.479 183.135 204.041 177.847C203.769 176.019 206.926 175.34 207.409 173.209C207.348 171.563 206.88 170.203 205.763 169.145C202.636 169.508 202.274 173.632 199.042 173.663C195.84 170.445 200.099 167.771 199.722 164.447C198.151 163.193 196.444 161.818 194.602 160.338C192.532 152.799 191.113 145.245 193.363 137.449L193.303 137.51C195.402 140.244 196.142 144.067 200.718 145.849C202.516 145.744 205.204 145.577 207.847 145.426C210.913 141.075 209.297 136.362 209.961 131.996C212.015 131.376 213.949 130.606 214.538 128.219C215.987 127.433 217.422 126.647 218.872 125.862C220.095 126.859 221.319 127.856 222.542 128.853L222.467 129.231L222.769 129.473C222.708 130.439 222.648 131.391 222.587 132.358C221.591 132.69 220.7 133.234 220.835 134.413C221.545 140.577 218.63 144.293 213.027 146.318C212.136 146.635 211.426 147.481 211.426 147.466C209.946 151.364 211.592 153.72 212.453 156.289C214.432 162.166 218.827 166.97 219.914 173.224C222.95 178.739 226.65 183.815 230.562 188.74C235.274 194.662 239.08 201.083 242.206 208.002C244.759 213.653 245.438 219.001 242.584 224.621L242.569 224.606Z" fill="white"/>
<path d="M219.9 173.225C218.812 166.97 214.417 162.166 212.439 156.289C211.578 153.721 209.932 151.364 211.412 147.466C211.412 147.466 212.106 146.635 213.013 146.318C218.631 144.278 221.531 140.577 220.821 134.413C220.685 133.235 221.576 132.691 222.573 132.358C223.011 133.235 223.434 134.111 223.902 135.048C234.232 131.694 243.113 139.912 253.307 138.809C253.534 137.555 253.715 136.604 253.896 135.652C267.746 138.145 281.49 141.121 294.629 144.475C296.713 148.403 295.883 151.439 294.463 154.446C285.582 154.461 277.382 157.724 268.939 159.794C254.153 163.435 239.458 167.378 224.733 171.261C223.056 171.699 221.5 172.56 219.884 173.225H219.9Z" fill="#528BC9"/>
<path d="M261.841 454.877C274.195 454.5 283.982 462.008 294.81 466.072C307.739 470.922 320.697 471.723 334.048 469.925C339.606 469.169 344.952 469.139 350.42 470.695C363.182 474.306 376.185 474.079 387.739 473.007C391.56 471.647 391.892 469.003 393.584 467.523C396.453 467.704 398.945 468.535 401.241 471.42C394.339 474.261 387.437 475.061 380.626 475.515C372.636 476.043 364.556 476.497 356.551 475.333C352.217 474.714 348.094 476.24 343.82 476.33C333.504 476.557 323.28 475.076 313.04 474.321C306.847 473.868 300.625 472.523 294.418 472.992C287.712 473.505 281.006 473.264 275.448 473.233C271.884 474.925 271.778 478.083 268.879 479.745C258.427 483.431 247.78 479.76 237.057 477.494C237.374 475.469 238.174 473.687 240.047 472.055C245.786 470.499 252.19 472.221 257.899 470.68C263.034 466.072 259.379 459.772 261.81 454.877H261.841Z" fill="#528BC9"/>
<path d="M295.097 210.495C300.217 211.084 304.476 213.909 308.312 215.737C312.239 216.463 314.822 214.468 319.262 213.532C315.592 217.037 311.68 217.173 308.584 219.348C307.029 220.753 307.92 223.548 305.805 225.603C302.015 226.947 297.665 228.02 293.436 228.368C289.449 227.174 286.398 224.938 283.226 222.914C282.743 219.937 282.562 216.991 283.936 213.955C287.606 212.822 291.352 211.658 295.097 210.495Z" fill="white"/>
<path d="M264.815 236.209C267.096 232.069 264.966 227.537 266.009 223.292C271.536 221.736 276.067 224.485 280.719 226.721C284.283 230.015 289.056 230.74 293.919 232.809C292.907 234.728 289.388 234.094 289.63 236.768C284.057 237.629 278.589 239.517 272.82 238.807C275.946 236.103 280.477 235.438 283.8 231.223C280.341 231.178 279.103 228.217 276.112 227.748C272.261 232.311 268.47 236.783 264.68 241.27C264.664 241.738 264.604 242.206 264.498 242.675C261.629 241.783 260.602 239.472 259.786 237.085C260.813 235.227 261.84 234.033 263.849 235.272C263.366 235.755 262.761 236.209 263.668 236.858C264.045 236.647 264.423 236.435 264.815 236.239V236.209Z" fill="white"/>
<path d="M223.464 249.926C231.876 249.413 240.122 249.156 247.236 243.581C249.411 246.361 249.758 249.02 250.106 251.437C249.169 254.715 247.447 257.087 244.91 259.323C235.894 261.106 229.384 256.574 223.464 249.926Z" fill="#528BC9"/>
<path d="M208.089 337.491C213.783 341.222 217.438 345.875 223.902 347.447C216.441 351.647 210.022 355.257 202.667 359.382C204.343 351.632 204.978 344.501 208.104 337.491H208.089Z" fill="#528BC9"/>
<path d="M132.861 235.786C134.643 234.486 134.9 231.752 138.087 230.74C143.206 242.992 134.975 252.374 131.562 263.992C129.266 259.324 130.475 255.063 128.073 251.558C133.148 247.177 133.284 241.481 132.951 235.65L132.861 235.786Z" fill="#528BC9"/>
<path d="M90.6479 143.719C92.0525 144.777 93.9404 145.88 94.0612 147.526C94.771 156.863 99.4228 165.006 101.643 173.874C102.413 176.941 101.824 179.781 101.613 182.999C103.244 186.429 104.935 190.07 104.135 194.239C99.1509 188.015 97.8067 180.28 95.934 172.922C93.4873 163.344 91.0104 153.69 90.6328 143.704L90.6479 143.719Z" fill="white"/>
<path d="M49.5376 151.424C52.1806 147.768 55.6996 145.305 59.9435 143.84C60.0643 145.366 60.2154 146.862 62.511 147.466C66.7701 147.179 69.0053 141.544 73.9742 141.982L74.0195 142.042C69.4131 148.176 64.1723 153.373 56.0772 154.718C53.6154 154.249 51.5312 152.92 49.5225 151.439L49.5376 151.424Z" fill="#528BC9"/>
<path d="M292.137 163.118C293.677 164.296 295.203 165.459 296.773 166.653C297.8 169.236 298.389 171.759 296.23 174.101C294.1 173.557 291.744 174.554 289.509 173.059C289.584 169.554 290.989 166.366 292.137 163.118Z" fill="#528BC9"/>
<path d="M75.6808 139.187C79.0941 137.359 83.1568 138.326 86.6002 136.649C86.268 140.819 83.6099 142.284 79.9398 141.725C77.8556 141.408 75.9828 141.65 74.0346 142.027L73.9893 141.967C74.2762 140.864 76.451 140.909 75.6808 139.172V139.187Z" fill="#528BC9"/>
<path d="M280.477 276.592C285.763 273.691 291.593 272.573 297.362 271.138C292.303 274.341 287.047 276.999 281.036 277.725C280.553 277.498 280.372 277.12 280.477 276.592Z" fill="#528BC9"/>
<path d="M173.685 203.138C174.606 199.603 174.696 195.479 179.575 194.708C181.493 196.128 178.442 197.322 179.454 198.651C177.536 200.147 175.603 201.642 173.685 203.138Z" fill="white"/>
<path d="M253.201 228.156C256.448 227.658 259.831 225.981 262.792 229.229C261.009 232.643 257.49 229.063 255.512 231.163L253.201 228.156Z" fill="white"/>
<path d="M287.606 345.392C285.915 344.607 285.19 343.262 285.295 341.419C285.144 340.95 285.265 340.588 285.703 340.331C287.863 340.633 288.331 342.371 288.845 344.063C288.437 344.501 288.029 344.939 287.606 345.377V345.392Z" fill="#528BC9"/>
<path d="M264.453 222.053C262.716 222.219 262.006 220.92 261.251 219.741C262.338 220.497 263.864 220.633 264.453 222.053Z" fill="white"/>
<path d="M46.3057 153.585L46.5926 152.996L47.242 153.132C47.242 153.932 46.9249 154.083 46.3057 153.57V153.585Z" fill="#528BC9"/>
<path d="M294.418 155.519C294.795 156.062 294.765 156.546 294.267 156.999C294.312 156.501 294.372 156.017 294.418 155.519Z" fill="#528BC9"/>
<path d="M293.269 161.259C293.345 161.818 293.103 162.166 292.575 162.332C292.514 161.788 292.756 161.441 293.269 161.259Z" fill="#528BC9"/>
<path d="M266.054 223.503C265.087 223.397 264.498 222.883 264.302 221.932C265.223 222.068 266.205 222.173 266.054 223.503Z" fill="white"/>
<path d="M481.83 280.867C477.737 276.199 471.757 274.763 466.546 272.044C461.713 269.521 456.729 267.3 451.775 265.034C450.159 264.294 448.483 263.765 448.332 261.635C449.042 257.571 446.821 253.794 447.139 249.76C452.047 249.896 455.944 252.857 460.278 254.564C467.905 257.571 475.124 261.574 483.643 264.203C484.292 271.833 486.95 279.311 486.406 287.258C485.787 287.424 485.183 287.59 484.564 287.771C483.34 287.605 482.525 286.925 482.162 285.747C482.948 284.055 482.978 282.423 481.83 280.867Z" fill="white"/>
<path d="M553.116 336.675C555.593 336.871 558.07 337.083 560.562 337.279C562.54 338.518 564.806 338.352 566.981 338.548C568.959 340.286 571.678 339.636 573.852 340.709C581.54 343.035 589.227 345.362 596.93 347.688C589.197 348.247 582.265 345.316 575.015 343.851C572.463 343.337 570.016 341.464 567.207 342.884C561.257 339.016 555.034 339.092 549.053 343.186C546.018 341.706 543.133 338.578 539.176 341.177C532.984 341.403 527.033 343.096 520.962 344.123C515.042 345.135 509.182 345.241 503.669 342.25C504.077 341.796 504.5 341.343 504.907 340.89C514.286 344.123 523.076 341.449 531.821 338.231C533.709 338.201 535.612 338.17 537.5 338.155C542.786 338.578 547.875 336.871 553.101 336.66L553.116 336.675Z" fill="white"/>
<path d="M301.984 252.313C295.731 253.024 289.508 252.752 282.803 252.344C294.341 244.488 307.859 241.708 312.435 246.089C310.562 250.757 303.947 247.524 302.104 252.208L301.968 252.298L301.984 252.313ZM305.14 246.27C305.986 246.074 306.816 245.878 307.874 245.636C306.454 244.79 305.971 245.938 305.231 246.361C304.566 246.724 303.509 246.029 302.844 247.358C303.811 246.89 304.475 246.588 305.14 246.27Z" fill="#1B3F79"/>
<path d="M449.661 310.146C438.726 305.734 427.641 301.897 415.785 300.824C407.418 300.069 399.307 301.066 391.409 303.952C391.106 303.589 390.789 303.241 390.457 302.909C398.673 298.331 407.523 297.893 416.585 298.981C428.501 300.401 440.131 302.803 450.597 309.118C450.28 309.466 449.963 309.813 449.661 310.176V310.146Z" fill="white"/>
<path d="M272.835 238.822C278.605 239.532 284.057 237.629 289.645 236.783C290.189 241.134 286.866 242.901 283.936 244.321C279.783 246.316 275.252 247.554 270.661 248.582C272.76 244.744 277.306 245.273 281.051 242.493C277.004 241.481 274.331 243.385 271.476 244.08C268.954 244.684 266.16 246.527 264.514 242.705C264.604 242.237 264.665 241.783 264.695 241.3C267.731 241.527 270.57 241.119 272.851 238.852L272.835 238.822Z" fill="#1B3F79"/>
<path d="M539.176 341.177C543.133 338.578 546.017 341.705 549.053 343.186C555.049 339.077 561.271 339.016 567.207 342.884C564.67 342.612 562.102 342.748 559.776 343.76C552.361 346.993 545.579 345.694 539.176 341.192V341.177Z" fill="#1B3F79"/>
<path d="M509.016 379.158C516.779 380.457 518.757 387.558 524.315 393.117C516.764 391.576 512.641 387.497 508.91 379.233L509.016 379.143V379.158Z" fill="white"/>
<path d="M508.91 379.248C503.246 375.653 499.576 370.365 496.42 364.624C496.616 364.398 496.813 364.171 497.024 363.944C502.204 368.084 507.506 372.118 509.016 379.158L508.91 379.248Z" fill="white"/>
<path d="M478.206 332.339C485.486 333.729 492.75 335.149 499.365 338.714C499.214 339.198 499.078 339.666 498.927 340.15C491.844 338.125 484.761 336.086 477.692 334.061C477.859 333.487 478.04 332.913 478.206 332.354V332.339Z" fill="white"/>
<path d="M522.156 331.342C517.67 330.073 513.834 327.61 508.971 324.725C512.263 323.425 514.393 326.054 516.477 324.755L516.598 324.861C516.945 326.568 517.897 327.051 519.467 326.296L519.618 326.386C519.951 328.124 520.962 328.532 522.518 327.822L522.594 327.882C521.974 328.834 522.579 329.665 522.865 330.526C522.624 330.798 522.397 331.07 522.156 331.342Z" fill="#1B3F79"/>
<path d="M499.938 315.781C500.497 319.527 505.134 319.135 506.931 322.912C502.053 321.794 498.624 319.663 495.075 316.566C497.114 316.219 498.489 315.977 499.878 315.735L499.938 315.781Z" fill="#1B3F79"/>
<path d="M537.499 338.155C535.612 338.185 533.709 338.216 531.821 338.231C528.589 335.934 525.372 333.623 522.14 331.327C522.381 331.055 522.623 330.783 522.849 330.511C528.151 332.248 532.923 335.013 537.499 338.155Z" fill="#1B3F79"/>
<path d="M490.817 353.58C491.995 357.569 495.967 359.895 497.024 363.959C496.828 364.186 496.616 364.412 496.42 364.639C492.508 362.766 490.575 358.747 487.268 356.209C488.264 355.076 489.276 353.973 490.817 353.58Z" fill="white"/>
<path d="M428.683 259.354C425.949 261.015 424.409 260.124 422.959 258.795C423.08 256.634 424.409 256.71 428.683 259.354Z" fill="#1B3F79"/>
<path d="M515.012 321.824C519.12 322.791 523.062 324.045 525.463 327.943L525.538 327.852C524.557 327.852 523.575 327.852 522.593 327.867L522.518 327.807C522.035 326.356 520.992 326.009 519.618 326.371L519.467 326.281C519.059 324.71 518.002 324.438 516.598 324.846L516.477 324.74L515.087 321.718L515.012 321.809V321.824Z" fill="#1B3F79"/>
<path d="M467.452 325.223C469.854 326.961 472.27 328.683 474.671 330.42C474.309 330.873 473.946 331.342 473.599 331.81C470.85 330.541 468.313 329 466.38 326.613C466.742 326.16 467.09 325.707 467.452 325.238V325.223Z" fill="white"/>
<path d="M601.989 453.321C603.318 453.926 603.711 454.817 603.016 456.222C601.083 455.799 601.038 454.772 601.989 453.321Z" fill="white"/>
<path d="M537.621 333.94C539.811 333.834 541.654 334.575 543.466 336.312C540.611 337.007 539.131 335.496 537.712 333.85L537.636 333.925L537.621 333.94Z" fill="#1B3F79"/>
<path d="M466.395 326.598C464.265 325.132 462.453 323.38 461.229 321.084C461.622 320.781 462 320.434 462.347 320.071C464.416 321.431 466.002 323.274 467.467 325.223C467.105 325.676 466.757 326.129 466.395 326.598Z" fill="white"/>
<path d="M454.736 312.548C456.367 313.953 457.998 315.373 459.644 316.778C459.191 317.231 458.738 317.684 458.3 318.138C456.004 317.352 454.569 315.766 453.95 313.424C454.237 313.152 454.494 312.865 454.736 312.548Z" fill="white"/>
<path d="M490.817 353.58C489.276 353.973 488.264 355.076 487.268 356.209C487.706 354.32 487.494 351.556 490.817 353.58Z" fill="#1B3F79"/>
<path d="M450.598 309.103C452.319 309.843 453.709 310.991 454.736 312.563C454.494 312.865 454.222 313.152 453.95 313.439C452.516 312.351 451.096 311.263 449.661 310.161C449.978 309.813 450.28 309.451 450.598 309.103Z" fill="white"/>
<path d="M499.879 315.72C499.41 314.693 498.942 313.681 498.474 312.653L498.398 312.744C500.362 313.061 501.978 313.907 502.793 315.841L502.884 315.75C501.902 315.75 500.921 315.75 499.939 315.75L499.879 315.705V315.72Z" fill="#1B3F79"/>
<path d="M461.215 321.084C460.233 320.102 459.267 319.12 458.285 318.138C458.738 317.684 459.191 317.231 459.629 316.778C460.52 317.866 461.427 318.968 462.318 320.056C461.97 320.419 461.608 320.766 461.2 321.068L461.215 321.084Z" fill="white"/>
<path d="M515.087 321.733C513.894 321.582 512.777 321.341 512.067 320.223L511.991 320.298C513.199 320.404 514.302 320.706 515.012 321.824L515.087 321.733Z" fill="#1B3F79"/>
<path d="M512.067 320.238C510.889 320.087 509.756 319.815 509.046 318.727L508.971 318.803C510.194 318.863 511.281 319.226 511.991 320.313L512.067 320.238Z" fill="#1B3F79"/>
<path d="M509.045 318.727C507.897 318.515 506.81 318.168 506.025 317.216L505.949 317.306C507.173 317.367 508.275 317.684 508.97 318.802L509.045 318.727Z" fill="#1B3F79"/>
<path d="M506.025 317.216C504.983 316.733 503.926 316.249 502.884 315.766L502.793 315.856C504.016 315.962 505.225 316.098 505.949 317.307L506.025 317.216Z" fill="#1B3F79"/>
<path d="M525.447 327.943C526.671 328.018 527.939 328.003 528.498 329.438L528.574 329.348C527.562 328.849 526.535 328.351 525.523 327.867L525.447 327.958V327.943Z" fill="#1B3F79"/>
<path d="M528.514 329.438C528.982 329.484 529.45 329.544 530.115 329.604C529.314 330.36 529.012 329.529 528.589 329.333L528.514 329.423V329.438Z" fill="#1B3F79"/>
<path d="M498.474 312.669C498.005 312.578 497.522 312.472 496.948 312.366C497.779 311.505 497.99 312.487 498.398 312.759L498.474 312.669Z" fill="#1B3F79"/>
<path d="M552.512 332.46C552.663 332.838 552.648 333.215 552.482 333.593C551.847 333.472 551.213 333.351 549.975 333.11C551.228 332.792 551.862 332.626 552.512 332.46Z" fill="white"/>
<path d="M391.408 303.936C390.442 304.465 389.46 305.009 388.493 305.538C388.237 305.236 387.965 304.934 387.708 304.631C388.629 304.057 389.535 303.468 390.457 302.894C390.789 303.226 391.106 303.574 391.408 303.936Z" fill="white"/>
<path d="M384.009 308.605C383.374 309.496 382.649 309.874 381.713 309.013C381.864 308.197 382.468 307.91 383.178 307.744C383.45 308.031 383.737 308.318 384.009 308.605Z" fill="white"/>
<path d="M384.975 306.565C385.881 305.931 386.787 305.281 387.708 304.631C387.965 304.934 388.222 305.236 388.494 305.538C387.829 306.535 386.817 306.973 385.7 307.245C385.473 307.003 385.231 306.777 384.99 306.55L384.975 306.565Z" fill="white"/>
<path d="M503.669 342.25C502.914 341.796 501.947 341.57 501.721 340.482C502.914 339.591 503.911 340.15 504.907 340.89C504.5 341.343 504.077 341.796 503.669 342.25Z" fill="white"/>
<path d="M383.177 307.758C383.781 307.366 384.385 306.958 384.974 306.565C385.216 306.792 385.458 307.018 385.684 307.26C385.125 307.713 384.552 308.166 383.993 308.62C383.721 308.333 383.449 308.046 383.162 307.758H383.177Z" fill="white"/>
<path d="M537.711 333.85C537.53 333.759 537.183 333.593 537.183 333.578C537.364 333.155 537.515 333.276 537.621 333.94L537.696 333.865L537.711 333.85Z" fill="#1B3F79"/>
<path d="M474.687 330.42C475.215 330.813 475.85 331.146 475.472 331.976C474.792 332.505 474.188 332.233 473.614 331.795C473.977 331.327 474.339 330.874 474.687 330.405V330.42Z" fill="white"/>
<path d="M408.263 460.739C406.421 461.464 404.216 460.875 402.751 462.099C401.331 463.489 402.252 465.06 402.419 467.13C399.564 464.818 400.516 461.751 398.839 459.848C392.919 454.349 384.204 453.337 378.888 447.399C371.14 445.858 363.679 444.408 356.777 440.858C365.779 438.969 374.312 439.815 382.165 444.937C383.419 445.752 384.567 446.75 385.669 447.762C393.462 454.908 403.038 457.219 413.202 458.186C416.343 458.488 419.772 458.065 423.004 460.467C422.339 468.021 413.972 465.12 411.616 470.091C411.208 469.789 410.816 469.471 410.408 469.169V462.598C410.725 461.978 411.284 461.344 410.695 460.649C409.895 459.712 409.049 459.908 408.263 460.724V460.739Z" fill="#528BC9"/>
<path d="M403.868 430.161C408.988 432.941 408.611 439.498 413.081 442.127C413.111 444.861 411.933 445.813 409.743 445.888C406.798 444.302 408.49 440.676 405.53 437.534C399.353 434.739 392.526 429.663 384.235 428.258C376.532 426.958 368.618 426.898 361.157 424.118C375.701 423.03 389.823 424.949 403.853 430.161H403.868Z" fill="#528BC9"/>
<path d="M305.473 365.243C316.015 378.07 326.738 390.76 335.573 404.931C331.571 402.363 328.898 398.586 325.983 395.02C320.259 388.041 314.52 381.091 308.72 374.172C306.772 371.845 305.126 369.368 304.159 366.482C304.597 366.074 305.035 365.651 305.473 365.243Z" fill="#528BC9"/>
<path d="M385.896 466.253C379.266 464.818 372.016 465.377 366.549 460.18C373.421 460.845 380.126 462.054 385.896 466.253Z" fill="#528BC9"/>
<path d="M348.818 455.965C354.24 454.031 359.239 454.817 364.661 458.639C358.182 461.525 353.697 457.748 348.818 455.965Z" fill="#528BC9"/>
<path d="M304.144 366.482C300.444 364.956 298.556 361.98 296.864 357.448C302.135 358.43 303.374 362.312 305.473 365.228C305.035 365.636 304.597 366.059 304.159 366.467L304.144 366.482Z" fill="#528BC9"/>
<path d="M327.765 384.642C328.746 383.72 329.728 383.403 331.087 384.808C329.849 386.047 328.867 386.787 327.765 384.642Z" fill="#528BC9"/>
<path d="M288.844 344.078C290.868 345.709 292.514 347.628 293.375 350.136C293.058 350.468 292.756 350.801 292.484 351.163C289.871 350.075 288.542 347.915 287.621 345.407C288.029 344.969 288.437 344.531 288.86 344.093L288.844 344.078Z" fill="#528BC9"/>
<path d="M315.652 364.111C314.746 365.848 313.568 366.634 311.665 365.319C312.586 363.401 314.248 364.216 315.562 363.975L315.652 364.095V364.111Z" fill="#528BC9"/>
<path d="M408.264 460.739C409.049 459.923 409.91 459.727 410.695 460.663C411.284 461.358 410.725 461.993 410.408 462.612C409.698 461.993 408.974 461.358 408.264 460.739Z" fill="#1B3F79"/>
<path d="M293.375 350.136C293.964 350.589 294.493 351.118 293.602 351.692C293.421 351.813 292.862 351.344 292.484 351.163C292.771 350.8 293.058 350.468 293.375 350.136Z" fill="#528BC9"/>
<path d="M608.937 70.2658C598.017 141.332 587.203 211.704 576.254 282.982C501.328 251.981 427.248 221.328 352.367 190.342C357.487 136.407 362.592 82.7749 367.727 28.6592C448.739 42.6187 528.528 56.3818 608.937 70.2507V70.2658ZM464.507 213.653L464.356 213.592C464.779 213.789 465.217 213.864 465.685 213.819C475.91 217.702 486.134 221.6 497.386 225.875C493.338 208.335 487.327 192.457 483.763 175.536C497.975 172.575 504.364 162.785 507.958 150.563C511.13 139.776 511.658 128.627 509.786 117.659C507.022 101.448 498.972 88.6669 482.056 84.4217C462.407 79.4815 442.502 75.5384 422.143 71.0363C419.349 97.369 416.63 123.097 413.897 148.811C413.126 150.82 412.779 152.89 413.066 155.035C412.175 167.469 409.789 179.766 409.396 192.291C418.11 195.01 425.737 199.149 434.361 201.129C435.902 188.604 437.352 176.76 438.907 164.009C444.148 165.867 448.83 166.426 452.772 169.493C453.965 174.615 455.158 179.721 456.336 184.827C457.514 189.949 458.692 195.07 459.855 200.192C460.127 200.917 460.399 201.627 460.671 202.352C461.305 206.008 461.32 209.846 463.933 212.882C464.054 213.169 464.235 213.426 464.477 213.608L464.507 213.653Z" fill="white"/>
<path d="M411.45 21.5285C409.925 17.7818 405.968 20.0177 403.355 18.2652C401.331 15.4703 400.666 12.1466 400.621 8.17329C410.936 5.98268 421.539 10.092 433.062 6.17908C437.261 7.65963 443 9.30637 448.8 5.60499C449.887 4.91003 451.956 4.87982 453.195 5.40859C462.06 9.1704 471.514 6.52656 480.531 8.08265C486.421 9.09486 492.357 6.85892 498.156 8.67185C499.908 8.67185 500.24 6.52656 502.325 6.19419C505.375 8.73228 509.498 9.71428 513.576 10.8776C516.234 11.6481 518.892 12.4034 521.687 12.4639C542 12.8567 562.208 15.8782 582.552 15.4401C586.69 15.3494 589.695 17.3134 592.686 19.3077C609.616 13.325 615.642 14.3523 624.009 24.9882C623.496 31.4542 622.937 38.4038 622.378 45.3533C615.098 45.595 607.804 45.8519 600.569 44.6131C600.298 44.0087 600.162 43.0721 599.708 42.8757C598.621 42.3922 598.062 43.3289 597.594 44.1598H573.626C573.611 44.4015 573.58 44.6584 573.565 44.9001C584.636 46.6375 595.721 48.3598 606.792 50.0971C590.103 49.3569 573.58 47.4835 557.299 43.8123C545.595 39.2347 533.316 38.0714 520.901 37.8448L521.128 37.9354C519.663 36.1981 517.624 36.3642 515.645 36.2887C506.1 37.4671 496.661 35.6693 487.418 34.1132C478.9 32.678 469.883 33.388 461.562 29.4298C454.161 30.578 446.67 28.7953 439.194 27.6773C435.162 27.073 430.48 27.9039 427.353 24.0817C426.024 22.9335 424.363 22.8731 422.732 22.6918L422.973 22.7673C419.394 20.3199 415.301 21.4681 411.42 21.1659V21.5285H411.45ZM587.611 28.1608C586.086 25.5169 584.666 23.0846 582.687 19.64C581.041 23.2054 580.347 25.5622 582.098 27.9946C583.639 28.9917 585.059 29.2032 587.626 28.1608H587.611Z" fill="#528BC9"/>
<path d="M607.185 309.164C605.569 303.936 602.004 300.356 597.625 298.044C596.265 294.962 596.93 292.288 597.247 289.629C601.989 288.829 606.717 288.028 611.459 287.227C610.87 284.357 608.197 285.641 606.566 284.84C604.149 283.647 601.083 283.783 598.908 280.957C599.528 276.44 599.165 271.409 602.065 266.696C607.729 267.013 612.833 269.143 618.059 270.443C619.041 272.875 615.235 271.621 615.914 273.917C619.146 277.634 618.497 282.514 618.784 287.484C620.128 289.01 621.593 290.672 623.375 292.696C623.315 308.03 621.351 323.38 618.497 338.352C615.507 340.452 612.758 341.358 609.541 340.754C605.01 337.611 605.297 333.124 606.279 328.577C607.034 325.072 608.015 321.627 605.221 319.391C605.961 316.113 606.52 313.681 607.064 311.233C610.236 310.689 613.332 312.517 616.564 311.399C613.437 310.659 610.296 309.919 607.17 309.194L607.185 309.164ZM620.762 293.044L621.004 293.467L620.702 293.089C620.279 292.847 619.962 291.911 619.252 292.862C619.811 292.923 620.279 292.983 620.747 293.044H620.762Z" fill="#528BC9"/>
<path d="M497.794 271.213C508.834 275.594 519.27 280.096 529.525 285.278C527.773 288.602 525.508 288.194 523.378 287.393C516.355 284.78 509.317 282.196 502.43 279.265C499.621 278.072 495.996 276.833 497.794 271.213Z" fill="#528BC9"/>
<path d="M566.981 338.548C564.791 338.352 562.54 338.518 560.562 337.279C559.716 336.388 558.886 335.481 557.27 333.759C566.89 331.871 575.363 326.251 585.829 331.674C579.35 335.058 572.599 335.27 566.981 338.548Z" fill="#528BC9"/>
<path d="M325.786 35.0196C328.142 34.657 330.498 34.6117 332.824 35.2009C333.156 37.5577 336.192 37.18 337.098 39.7181C330.468 41.8029 323.943 40.4734 318.355 40.6245C315.395 38.2224 314.972 35.5635 313.205 33.3124C316.135 26.9672 313.93 19.7759 317.207 12.9321C317.268 16.3314 317.253 19.7457 317.419 23.1298C317.6 26.8463 316.981 30.6383 318.295 34.2793C319.79 36.0318 321.602 37.2404 323.762 37.7843C325.423 37.4821 325.756 36.3642 325.786 35.0196Z" fill="#528BC9"/>
<path d="M321.497 51.5928C315.35 52.4691 309.309 51.8194 302.92 50.8374C301.818 45.5951 301.954 40.7455 302.588 35.8657C305.533 39.1894 303.69 43.5858 305.382 47.8008C308.146 47.9066 311.257 46.8037 313.945 47.8159C317.832 44.7138 321.401 44.4318 324.653 46.9699C325.197 49.5835 322.252 49.8403 321.482 51.5928H321.497ZM321.844 47.9066L321.889 47.2871L321.285 47.5591L321.844 47.9217V47.9066Z" fill="#528BC9"/>
<path d="M520.901 37.8447C533.331 38.0713 545.595 39.2497 557.3 43.8123C546.199 42.649 535.068 41.667 524.133 39.3253C522.94 39.0685 521.641 39.0836 520.901 37.8447Z" fill="white"/>
<path d="M342.203 121.557C341.282 119.517 341.448 117.674 343.14 116.072C345.314 114.38 347.973 115.075 350.389 114.637C350.48 116.571 350.797 118.55 349.271 120.197C347.081 121.526 344.605 121.33 342.203 121.557Z" fill="#528BC9"/>
<path d="M603.409 262.254C609.209 261.469 614.842 261.589 619.932 264.611C613.845 267.361 608.71 264.203 603.409 262.254Z" fill="#528BC9"/>
<path d="M607.185 309.164C610.312 309.904 613.453 310.629 616.579 311.369C613.347 312.487 610.251 310.659 607.079 311.203C606.219 310.478 606.022 309.783 607.185 309.164Z" fill="white"/>
<path d="M611.474 287.212C606.731 288.013 602.004 288.814 597.262 289.614C601.34 284.931 606.716 287.922 611.474 287.212Z" fill="white"/>
<path d="M601.899 212.006C602.835 214.408 603.893 216.281 602.956 218.835C600.842 216.765 601.355 214.65 601.899 212.006Z" fill="#528BC9"/>
<path d="M338.956 178.603C338.291 173.814 337.838 169.025 339.454 164.311C339.937 169.1 340.3 173.874 338.956 178.603Z" fill="#528BC9"/>
<path d="M411.436 21.1656C415.317 21.4677 419.41 20.3044 422.989 22.767C419.047 22.8727 415.106 22.9785 411.436 21.1656Z" fill="white"/>
<path d="M618.709 53.5266C616.579 53.1338 614.435 52.7561 610.991 52.1216C614.812 50.8525 617.229 51.0791 619.6 52.3935C619.298 52.7712 618.996 53.1489 618.709 53.5266Z" fill="#528BC9"/>
<path d="M445.794 237.523C447.456 238.671 447.305 239.608 446.353 240.635C444.737 240.152 444.662 239.215 445.794 237.523Z" fill="#528BC9"/>
<path d="M653.355 266.907C651.694 266.575 651.014 265.925 652.313 265.049C653.008 264.581 653.597 265.351 653.355 266.907Z" fill="#528BC9"/>
<path d="M597.595 44.1594C598.063 43.3134 598.622 42.3918 599.709 42.8753C600.162 43.0717 600.298 44.0083 600.57 44.6126C599.483 45.0961 598.44 45.2321 597.595 44.1594Z" fill="white"/>
<path d="M348.606 35.9864C350.283 35.4728 351.944 35.3821 353.56 36.2131C351.884 36.6059 350.222 36.7418 348.606 35.9864Z" fill="#528BC9"/>
<path d="M481.83 280.867C482.978 282.423 482.948 284.055 482.162 285.747C481.528 284.161 481.664 282.514 481.83 280.867Z" fill="#528BC9"/>
<path d="M515.661 36.2734C517.625 36.349 519.663 36.1828 521.144 37.9202C518.954 38.5698 517.171 37.9051 515.661 36.2734Z" fill="white"/>
<path d="M632.015 325.812C631.35 326.371 630.504 326.523 630.187 325.692C629.87 324.876 630.459 324.241 631.395 324.664C631.712 324.8 631.818 325.42 632.015 325.812Z" fill="#528BC9"/>
<path d="M422.747 22.6763C424.378 22.8576 426.024 22.9029 427.369 24.0662C425.783 23.7791 423.91 24.4137 422.747 22.6763Z" fill="white"/>
<path d="M635.156 341.721C635.307 342.144 635.669 342.657 635.548 342.99C635.276 343.715 634.853 343.639 634.582 342.884C634.355 342.265 634.521 341.887 635.156 341.721Z" fill="white"/>
<path d="M484.549 287.771C485.168 287.605 485.787 287.439 486.391 287.257C485.893 287.862 485.289 288.088 484.549 287.771Z" fill="#528BC9"/>
<path d="M191.038 27.7224C193.031 30.4418 196.777 29.2332 199.647 31.8317C201.051 36.3791 205.008 39.7179 209.297 42.7848C210.944 43.9632 212.454 45.3078 212.967 47.3775C215.459 57.4544 221.772 65.6881 226.424 75.0548C224.702 79.572 225.85 84.8899 222.724 89.1805C221.334 82.79 220.609 76.2181 217.468 70.311C217.498 67.8485 215.867 66.7607 213.858 66.1413C209.01 64.6607 203.921 63.5881 199.058 65.0686C195.146 66.247 191.174 65.9449 187.428 66.7758C177.808 68.906 169.29 67.3046 160.741 62.6061C157.207 60.6572 152.842 59.5694 149.021 59.5846C146.258 60.6874 146.258 63.7996 143.811 64.7665C137.573 65.0838 131.321 64.9478 125.083 65.114C115.598 65.3859 106.129 75.5383 106.069 85.3281C104.468 87.5036 101.84 88.8784 100.586 92.0057C100.722 93.2898 100.918 95.0121 101.115 96.7344L101.19 96.6588L97.5051 97.3689C96.6291 96.7797 95.7532 96.2056 94.8772 95.6164C95.149 94.6797 95.3907 93.7279 94.7262 92.8366C93.9408 92.1265 93.0346 91.9452 92.0227 92.1718C87.7939 90.3891 86.5706 93.9092 84.7129 96.3265C84.7129 93.7279 84.7129 91.1294 84.7129 88.5309C85.755 80.9166 86.4648 73.2721 86.6159 65.5672C86.7367 59.3277 87.8241 53.2242 91.7056 48.0121C92.2946 48.6617 93.2461 48.7523 93.669 48.2689C98.6378 42.6942 106.31 40.0956 110.116 33.2821C123.09 23.1146 137.951 19.0506 154.262 19.7456C156.331 20.1082 158.431 20.7276 160.182 18.8844C169.063 17.0262 177.007 19.3226 184.438 24.157C186.522 25.5167 188.818 26.544 191.023 27.7224H191.038Z" fill="#1B3F79"/>
<path d="M97.5047 97.3537L101.19 96.6436L101.114 96.7191C100.918 94.9969 100.737 93.2746 100.586 91.9904C101.839 88.848 104.467 87.4884 106.068 85.3128C106.128 75.5231 115.598 65.3556 125.083 65.0988C131.32 64.9175 137.573 65.0685 143.81 64.7513C146.257 63.7995 146.257 60.6722 149.021 59.5693C152.827 59.5693 157.207 60.642 160.741 62.5909C169.289 67.2894 177.807 68.8757 187.428 66.7606C191.173 65.9297 195.145 66.2318 199.057 65.0534C203.905 63.588 209.01 64.6455 213.858 66.1261C215.882 66.7455 217.513 67.8332 217.468 70.2958C212.242 71.867 215.988 79.859 210.475 80.9467C207.379 80.2971 207.092 77.3964 204.328 75.8554C201.171 76.4597 198.136 73.7101 194.39 73.0001C184.724 71.172 176.055 74.5713 167.537 78.0007C163.897 79.4662 160.499 80.5388 156.693 79.9798C150.033 78.9978 143.252 78.7108 137.09 75.2511C134.854 73.9972 132.106 72.849 129.659 73.4986C125.626 76.0367 128.541 79.9043 127.106 82.7596C123.874 88.2286 119.026 92.2926 114.722 96.8249C112.29 96.6587 110.992 92.7005 107.88 94.4077C107.79 96.704 110.085 97.3235 110.297 99.1062C109.934 103.79 106.264 103.231 103.289 103.291C99.5134 103.367 97.4291 101.312 97.4896 97.3839L97.5047 97.3537Z" fill="#528BC9"/>
<path d="M186.839 125.771C185.118 125.832 183.411 124.925 182.913 125.152C179.076 126.617 178.397 130.334 175.693 130.092C172.703 130.711 171.797 128.219 169.969 127.66C165.892 128.385 165.091 132.343 162.856 135.108C157.177 135.138 151.831 138.477 145.789 136.256C139.22 128.717 133.088 120.771 128.285 111.872C128.587 111.525 128.874 111.177 129.176 110.83C135.006 114.108 139.809 120.891 147.375 116.072C150.094 116.933 150.849 119.789 153.779 119.834C156.18 119.26 158.068 118.021 157.253 114.607C152.948 112.099 148.478 114.199 144.113 114.184C143.751 113.761 143.388 113.338 143.011 112.915C138.419 111.358 132.71 112.567 129.584 107.43C134.221 106.599 138.857 105.769 143.645 104.923C144.581 102.807 145.472 100.798 146.288 98.955C151.982 96.0392 157.087 96.5831 162.116 99.9068C167.281 103.336 172.612 106.494 178.457 108.699C179.092 108.941 179.635 109.455 180.028 109.727C180.738 112.295 177.929 113.292 178.065 115.543C179.514 117.417 181.025 119.365 182.46 121.209C184.272 121.798 185.918 122.327 187.564 122.855C187.323 123.837 187.081 124.819 186.839 125.786V125.771ZM150.29 125.333C151.997 127.448 153.311 127.509 154.821 125.257C153.462 123.898 152.254 123.052 150.29 125.333Z" fill="#528BC9"/>
<path d="M186.839 125.771C187.08 124.789 187.322 123.807 187.564 122.84C188.908 122.1 190.252 121.36 191.581 120.62C192.306 125.046 195.614 124.019 198.513 123.958C204.253 123.853 210.007 123.717 214.507 128.234C213.918 130.621 211.985 131.376 209.931 132.011C210.294 128.989 209.282 126.738 206.382 125.605C204.071 125.726 203.679 128.491 201.081 128.989C198.755 129.322 196.686 127.176 194.224 126.421C192.82 127.04 191.883 128.4 190.267 128.385C189.754 126.678 187.654 127.056 186.809 125.786L186.839 125.771Z" fill="#1B3F79"/>
<path d="M110.131 33.2822C106.31 40.0958 98.653 42.6943 93.6841 48.2691C93.2612 48.7525 92.3097 48.6619 91.7207 48.0122C96.0855 40.8814 102.399 36.1829 110.131 33.2822Z" fill="#528BC9"/>
<path d="M75.6812 139.187C76.4514 140.924 74.2766 140.879 73.9896 141.982C69.0208 141.544 66.7704 147.179 62.5265 147.466C60.2308 146.862 60.0798 145.366 59.959 143.84C65.1393 142.073 70.078 139.474 75.6963 139.187H75.6812Z" fill="#1B3F79"/>
<path d="M121.036 105.451C119.057 103.865 117.079 102.294 115.085 100.708C115.553 100.3 116.021 99.8918 116.49 99.4839C119.903 101.599 123.301 103.714 126.714 105.829C126.76 106.267 126.85 106.705 126.971 107.128C126.684 107.385 126.412 107.672 126.171 107.959C124.464 107.128 122.742 106.282 121.036 105.451Z" fill="#1B3F79"/>
<path d="M84.4104 117.432C84.8031 120.303 85.1807 123.173 85.6035 126.195C82.1601 123.672 83.5948 120.272 83.6402 117.19L83.9875 117.447H84.4255L84.4104 117.432Z" fill="#1B3F79"/>
<path d="M121.035 105.452C122.742 106.283 124.464 107.129 126.17 107.96C127.167 108.911 128.164 109.863 129.176 110.815C128.889 111.162 128.587 111.51 128.285 111.857C124.433 111.329 122.364 108.806 121.035 105.437V105.452Z" fill="#528BC9"/>
<path d="M110.327 99.0761C110.116 97.2934 107.82 96.674 107.911 94.3777C111.022 92.6705 112.306 96.6287 114.752 96.7949C115.341 97.6862 115.93 98.5927 116.504 99.484C116.036 99.892 115.568 100.3 115.1 100.708C113.514 100.164 111.928 99.62 110.327 99.0761Z" fill="#1B3F79"/>
<path d="M84.7275 88.5156C84.7275 91.1141 84.7275 93.7127 84.7275 96.3112C84.8483 97.0666 84.8332 97.7615 83.5797 98.1694C82.5678 94.7702 84.6822 91.7185 84.7124 88.5156H84.7275Z" fill="#528BC9"/>
<path d="M160.198 18.8842C158.446 20.7425 156.346 20.108 154.277 19.7454C156.18 18.9749 158.159 18.7181 160.198 18.8842Z" fill="#528BC9"/>
<path d="M92.038 92.1717C93.0499 91.93 93.956 92.1113 94.7414 92.8365C95.3908 93.7278 95.1492 94.6645 94.8924 95.6163C92.6723 95.5256 91.8114 94.3019 92.0531 92.1868L92.038 92.1717Z" fill="#528BC9"/>
<path d="M84.4101 117.432H83.9721L83.6248 117.19C83.4889 116.525 83.2019 115.8 84.1836 115.513C84.7726 116.102 84.8179 116.737 84.395 117.432H84.4101Z" fill="#528BC9"/>
<path d="M253.896 135.652C253.715 136.604 253.534 137.555 253.307 138.809C243.113 139.912 234.232 131.694 223.902 135.047C223.434 134.111 223.011 133.235 222.573 132.358C222.633 131.391 222.694 130.44 222.754 129.473L223.162 129.035L222.543 128.853C221.319 127.856 220.096 126.859 218.873 125.862C218.465 121.587 223.887 119.789 223.283 115.438C224.581 110.09 229.022 106.207 230.109 100.753L230.623 100.436L230.441 99.8617C230.759 99.1516 231.076 98.4567 231.393 97.7466L231.952 97.4747L231.484 97.0668C231.484 95.3445 231.484 93.6373 231.484 91.915C232.918 91.9755 233.522 92.6553 233.93 94.151C237.751 108.458 242.72 122.357 248.927 135.712C250.362 136.74 251.329 135.803 252.356 135.138C252.869 135.304 253.368 135.486 253.881 135.652H253.896Z" fill="#1B3F79"/>
<path d="M231.378 97.7617C231.06 98.4717 230.743 99.1667 230.426 99.8768L229.973 100.209L230.109 100.768C229.022 106.222 224.581 110.105 223.282 115.453C220.624 113.277 223.343 109.621 221.198 107.174C218.57 107.899 219.673 110.936 219.159 111.208C210.807 113.398 203.966 115.74 196.777 116.677C194.572 116.964 192.593 118.353 191.612 120.635C190.267 121.375 188.923 122.115 187.594 122.856C185.948 122.327 184.302 121.798 182.489 121.209C181.07 119.366 179.544 117.402 178.094 115.543C177.958 113.277 180.768 112.28 180.058 109.727C179.665 109.455 179.136 108.941 178.487 108.7C172.657 106.494 167.326 103.321 162.146 99.907C157.116 96.5833 152.012 96.0243 146.318 98.9552C145.502 100.798 144.611 102.808 143.675 104.923C138.872 105.784 134.235 106.615 129.614 107.431C129.312 107.28 129.025 107.128 128.723 106.992C128.285 106.222 127.635 105.844 126.744 105.859C123.331 103.744 119.933 101.629 116.52 99.5142C115.931 98.6228 115.341 97.7164 114.768 96.825C119.072 92.2927 123.92 88.2438 127.152 82.7597C128.587 79.9044 125.672 76.0368 129.704 73.4987C132.151 72.834 134.9 73.9973 137.135 75.2512C143.297 78.7109 150.063 79.013 156.739 79.9799C160.545 80.5389 163.943 79.4663 167.583 78.0008C176.101 74.5714 184.77 71.1873 194.436 73.0002C198.181 73.7102 201.217 76.4598 204.374 75.8555C207.137 77.4116 207.439 80.2972 210.52 80.9468C216.033 79.8742 212.287 71.8671 217.513 70.2959C220.655 76.203 221.379 82.7749 222.769 89.1654C222.618 90.3438 222.452 91.5071 222.301 92.61C223.917 93.8186 225.17 92.4891 226.439 92.5797C228.01 91.5524 226.228 88.9388 228.81 88.3496C231.045 88.3194 230.411 90.8575 231.529 91.9301C231.529 93.6524 231.529 95.3596 231.529 97.0818C231.227 97.2631 231.196 97.4897 231.423 97.7617H231.378ZM217.12 97.9128C214.387 95.3293 212.182 92.6553 207.726 93.456C206.926 96.7646 206.277 99.8163 208.346 102.702C212.665 103.729 215.59 102.133 217.12 97.9128Z" fill="white"/>
<path d="M237.102 87.6396C237.373 87.9568 237.63 88.2741 237.978 88.682C236.981 88.7878 237.343 87.9871 237.147 87.6094L237.102 87.6396Z" fill="#1B3F79"/>
<path d="M635.442 483.038C635.82 482.993 636.318 482.766 636.545 482.932C636.968 483.234 636.817 483.657 636.318 483.899C636.016 483.612 635.729 483.325 635.442 483.038Z" fill="#528BC9"/>
<path d="M286.942 286.306C287.848 286.336 288.331 286.804 288.679 287.68C287.199 288.285 286.715 287.832 286.942 286.306Z" fill="#528BC9"/>
<path d="M139.748 180.477C142.27 179.238 141.772 176.201 144.626 174.494C152.359 171.85 158.506 176.956 165.136 180.915C164.804 184.284 160.938 183.71 160.349 185.296C158.053 189.45 159.367 194.3 154.851 196.823C147.451 198.379 146.484 198.017 141.908 191.354C140.564 189.39 138.555 188.468 136.531 187.456C133.39 185.885 133.45 185.779 132.151 181.428C134.538 179.389 137.588 182.033 139.733 180.492L139.748 180.477Z" fill="white"/>
<path d="M189.678 156.304C188.198 154.355 187.972 152.361 189.255 150.004C190.811 152.225 190.343 154.264 189.678 156.304Z" fill="white"/>
<path d="M193.348 137.465L193.106 137.269L193.303 137.51L193.348 137.465Z" fill="white"/>
<path d="M191.597 120.62C192.578 118.338 194.557 116.948 196.762 116.661C203.951 115.725 210.793 113.398 219.145 111.192C219.658 110.905 218.555 107.884 221.183 107.159C223.328 109.606 220.625 113.277 223.268 115.438C223.872 119.789 218.45 121.602 218.858 125.862C217.408 126.648 215.973 127.433 214.523 128.219C210.022 123.702 204.253 123.838 198.529 123.943C195.629 123.989 192.322 125.016 191.597 120.605V120.62Z" fill="#528BC9"/>
<path d="M222.528 128.869L223.162 129.035L222.754 129.488L222.452 129.246L222.528 128.869Z" fill="#528BC9"/>
<path d="M272.835 238.822C270.555 241.089 267.715 241.512 264.68 241.27C268.471 236.783 272.261 232.311 276.113 227.749C279.103 228.217 280.341 231.178 283.8 231.223C280.462 235.438 275.931 236.118 272.82 238.807L272.835 238.822Z" fill="#528BC9"/>
<path d="M264.816 236.209C264.438 236.42 264.06 236.632 263.668 236.828C262.777 236.193 263.366 235.725 263.849 235.242C264.166 235.559 264.498 235.876 264.816 236.193V236.209Z" fill="#528BC9"/>
<path d="M305.216 246.346C305.971 245.923 306.454 244.775 307.859 245.621C306.817 245.862 305.971 246.059 305.125 246.255L305.201 246.346H305.216Z" fill="#528BC9"/>
<path d="M305.14 246.271C304.476 246.588 303.811 246.905 302.845 247.358C303.509 246.014 304.566 246.724 305.231 246.361L305.155 246.271H305.14Z" fill="#528BC9"/>
<path d="M516.598 324.861C518.002 324.438 519.059 324.71 519.467 326.296C517.897 327.051 516.945 326.583 516.598 324.861Z" fill="#528BC9"/>
<path d="M519.618 326.371C520.993 326.024 522.035 326.356 522.518 327.807C520.962 328.517 519.966 328.109 519.618 326.371Z" fill="#528BC9"/>
<path d="M459.886 200.222C458.708 195.101 457.545 189.979 456.367 184.858C455.189 179.751 453.996 174.645 452.803 169.523C448.861 166.456 444.179 165.897 438.938 164.039C437.382 176.775 435.917 188.619 434.392 201.159C425.768 199.18 418.141 195.04 409.427 192.321C409.819 179.796 412.206 167.484 413.097 155.065C414.577 153.146 414.124 150.971 413.927 148.841C416.646 123.128 419.38 97.3991 422.174 71.0664C442.532 75.5685 462.438 79.5116 482.087 84.4518C499.003 88.6971 507.052 101.478 509.816 117.689C511.689 128.657 511.16 139.791 507.989 150.593C504.394 162.815 498.006 172.605 483.794 175.566C487.373 192.472 493.384 208.365 497.417 225.905C486.165 221.63 475.94 217.747 465.716 213.849C468.147 212.127 467.785 210.541 465.912 208.818C463.873 209.906 464.386 211.613 463.979 212.943C461.366 209.906 461.366 206.054 460.716 202.413C462.302 203.591 463.677 205.495 465.912 204.981C471.273 203.742 476.333 205.359 481.498 206.28C483.96 206.718 486.527 207.368 488.189 204.618C485.984 197.503 482.223 195.569 472.482 196.49C470.624 195.433 471.545 192.487 469.084 191.686C466.924 191.505 464.779 191.988 462.725 193.529C461.139 195.372 460.716 197.911 459.916 200.267L459.886 200.222ZM442.533 132.524C451.866 135.259 460.716 137.903 469.597 140.441C471.621 141.015 473.539 140.38 475.276 139.127C482.193 134.111 481.664 120.635 473.841 117.341C464.945 113.579 455.4 111.585 445.191 109.848C444.269 117.719 443.439 124.85 442.533 132.54V132.524Z" fill="#1B3F79"/>
<path d="M459.885 200.222C460.686 197.865 461.109 195.343 462.694 193.484C464.748 191.943 466.878 191.46 469.053 191.641C471.515 192.442 470.608 195.388 472.451 196.445C482.207 195.509 485.968 197.442 488.158 204.573C486.497 207.338 483.929 206.673 481.467 206.235C476.317 205.314 471.258 203.697 465.881 204.936C463.646 205.45 462.272 203.546 460.686 202.368C460.414 201.642 460.142 200.932 459.87 200.207L459.885 200.222Z" fill="#1B3F79"/>
<path d="M463.964 212.912C464.372 211.568 463.858 209.876 465.897 208.788C467.755 210.51 468.132 212.097 465.701 213.819C465.233 213.864 464.795 213.789 464.372 213.592L464.523 213.653C464.281 213.456 464.1 213.215 463.979 212.928L463.964 212.912Z" fill="#1B3F79"/>
<path d="M413.912 148.826C414.093 150.971 414.546 153.146 413.081 155.05C412.809 152.905 413.157 150.835 413.912 148.826Z" fill="#528BC9"/>
<path d="M587.612 28.1604C585.044 29.2028 583.625 29.0064 582.084 27.9942C580.332 25.5619 581.042 23.2051 582.673 19.6396C584.667 23.0842 586.071 25.5165 587.597 28.1604H587.612Z" fill="white"/>
<path d="M620.763 293.044C620.295 292.983 619.826 292.938 619.268 292.862C619.977 291.896 620.295 292.847 620.717 293.089L620.763 293.044Z" fill="#1B3F79"/>
<path d="M620.717 293.104L621.004 293.467L620.762 293.044L620.717 293.104Z" fill="#1B3F79"/>
<path d="M321.844 47.9065L321.285 47.5439L321.889 47.2871L321.844 47.9065Z" fill="#1B3F79"/>
<path d="M128.692 106.962C128.994 107.098 129.281 107.249 129.583 107.4C132.71 112.522 138.434 111.313 143.01 112.885C142.526 113.413 142.028 114.003 142.904 114.531C143.146 114.682 143.704 114.305 144.112 114.154C148.477 114.184 152.948 112.084 157.252 114.577C158.052 117.991 156.18 119.23 153.778 119.804C150.863 119.774 150.108 116.918 147.375 116.042C139.808 120.877 135.005 114.078 129.175 110.8C128.179 109.848 127.182 108.896 126.17 107.944C126.427 107.657 126.699 107.37 126.97 107.113C127.544 107.053 128.118 106.993 128.692 106.947V106.962Z" fill="#1B3F79"/>
<path d="M150.29 125.333C152.269 123.052 153.462 123.898 154.821 125.258C153.296 127.509 151.997 127.448 150.29 125.333Z" fill="white"/>
<path d="M128.692 106.962C128.118 107.023 127.545 107.083 126.971 107.128C126.85 106.705 126.759 106.267 126.714 105.829C127.605 105.814 128.254 106.192 128.692 106.962Z" fill="#528BC9"/>
<path d="M230.109 100.753L229.973 100.194L230.426 99.877L230.622 100.451L230.109 100.753Z" fill="#528BC9"/>
<path d="M231.377 97.7619C231.151 97.4899 231.181 97.2633 231.483 97.082L231.951 97.4899L231.392 97.7619H231.377Z" fill="#528BC9"/>
<path d="M217.12 97.9128C215.589 102.133 212.665 103.729 208.345 102.702C206.291 99.8164 206.941 96.7646 207.726 93.456C212.166 92.6553 214.386 95.3143 217.12 97.9128Z" fill="#528BC9"/>
<path d="M442.532 132.525C443.438 124.835 444.269 117.704 445.19 109.833C455.4 111.57 464.945 113.565 473.841 117.326C481.664 120.635 482.208 134.096 475.275 139.112C473.524 140.381 471.621 141 469.597 140.426C460.716 137.903 451.851 135.259 442.532 132.51V132.525Z" fill="white"/>
<path d="M144.112 114.154C143.705 114.29 143.146 114.667 142.904 114.531C142.028 114.003 142.527 113.414 143.01 112.885C143.372 113.308 143.735 113.731 144.112 114.154Z" fill="#528BC9"/>
</g>
<defs>
<clipPath id="clip0_503_88287">
<rect width="660" height="491" fill="white"/>
</clipPath>
</defs>
</svg>
