<svg width="32" height="32" viewBox="0 0 32 32" fill="none" xmlns="http://www.w3.org/2000/svg">
<g clip-path="url(#clip0_254_33974)">
<rect width="32" height="32" fill="white"/>
<rect x="1" y="1" width="30" height="30" rx="4" fill="white" stroke="#284294" stroke-width="2"/>
<path d="M3.0715 15.9203C3.17637 15.6094 3.40705 15.4167 3.71166 15.2707C4.18945 15.0416 4.65759 14.7938 5.12371 14.5429C5.44729 14.3686 5.75026 14.3681 6.0706 14.5487C6.68034 14.8924 7.29622 15.2266 7.91654 15.5533C8.00081 15.5975 8.14872 15.6179 8.22622 15.5787C9.73774 14.8084 11.243 14.0276 12.7495 13.2485C12.7778 13.2338 12.8016 13.2106 12.8487 13.1759C12.7742 13.1351 12.7157 13.0991 12.6537 13.0694C11.4224 12.4835 10.1919 11.896 8.95784 11.3149C8.65151 11.1706 8.43475 10.9762 8.4304 10.6344C8.42577 10.2942 8.62908 10.0902 8.93468 9.93438C9.9381 9.42406 10.938 8.90803 11.9323 8.38227C12.2239 8.22808 12.5017 8.1953 12.8206 8.29028C14.7327 8.86076 16.6489 9.41912 18.5605 9.98968C18.7838 10.0561 18.959 10.0427 19.1726 9.93454C20.0431 9.49414 20.9021 9.01996 21.8121 8.6663C23.4187 8.04221 25.0832 8.01378 26.7395 8.47426C27.6575 8.72985 28.1847 9.34511 28.2628 10.2409C28.3372 11.0945 27.9453 11.7627 27.1452 12.1836C25.4772 13.0613 23.7975 13.9201 22.1231 14.7867C21.6971 15.0072 21.2663 15.2203 20.849 15.4539C20.7492 15.5099 20.6531 15.6242 20.6224 15.729C20.1381 17.3827 19.6613 19.0388 19.1924 20.6965C19.1087 20.9927 18.9399 21.1921 18.6521 21.3381C17.6409 21.8505 16.6373 22.3762 15.6317 22.8983C15.3327 23.0536 15.0314 23.1057 14.7305 22.9155C14.4392 22.7316 14.3779 22.4615 14.4121 22.1496C14.5361 21.0169 14.6533 19.8833 14.7727 18.7504C14.7773 18.706 14.7762 18.6611 14.7791 18.5835C14.1717 18.8964 13.5952 19.1952 13.0163 19.4915C12.1035 19.9587 11.209 20.463 10.2716 20.8816C8.3104 21.757 5.95871 21.046 4.89107 19.2847C4.33821 18.373 3.81357 17.4462 3.27485 16.5271C3.23625 16.4618 3.18442 16.4033 3.13871 16.3415C3.11619 16.2014 3.09367 16.0613 3.07115 15.9213L3.0715 15.9203ZM16.0638 21.0432C16.5874 20.7747 17.0681 20.5227 17.5547 20.2817C17.7076 20.206 17.7878 20.1069 17.8328 19.9483C18.298 18.3059 18.776 16.667 19.2385 15.0236C19.3244 14.7189 19.4918 14.514 19.7883 14.3619C21.9611 13.2483 24.1276 12.1241 26.2978 11.0069C26.5871 10.8579 26.7916 10.658 26.7489 10.3353C26.7062 10.0122 26.4578 9.86897 26.1367 9.79494C24.5026 9.41801 22.9464 9.60838 21.4665 10.3721C17.1596 12.5956 12.8523 14.8192 8.54766 17.0471C8.21129 17.2214 7.90633 17.2222 7.57852 17.0364C6.97687 16.6954 6.36569 16.3682 5.75551 16.0409C5.68393 16.0025 5.57332 15.9599 5.51148 15.9853C5.30098 16.0714 5.10386 16.1868 4.88722 16.2983C5.29755 17.0036 5.6921 17.684 6.089 18.363C6.9277 19.797 8.4627 20.2154 9.99655 19.4251C11.747 18.5228 13.4958 17.6173 15.2442 16.7115C15.539 16.5588 15.8322 16.5228 16.1222 16.7054C16.4041 16.8826 16.475 17.1454 16.4415 17.4486C16.3639 18.1516 16.2889 18.855 16.2145 19.5584C16.1636 20.0402 16.116 20.5224 16.0627 21.0429L16.0638 21.0432ZM17.0173 11.0398C16.8859 10.9978 16.8025 10.9689 16.7178 10.9439C15.4581 10.5723 14.1945 10.2117 12.9413 9.82281C12.6352 9.72787 12.3949 9.74648 12.1239 9.90436C11.7109 10.1455 11.2763 10.3538 10.8223 10.5914C12.0314 11.1662 13.2006 11.7253 14.3749 12.2745C14.4462 12.3081 14.5699 12.2951 14.6459 12.2595C14.9459 12.1194 15.237 11.9624 15.5309 11.8102C16.0136 11.5608 16.496 11.3099 17.0173 11.0398Z" fill="#284294"/>
<path d="M4 24.9998H28V26.9998H4V24.9998Z" fill="#284294"/>
</g>
<defs>
<clipPath id="clip0_254_33974">
<rect width="32" height="32" fill="white"/>
</clipPath>
</defs>
</svg>
