<svg width="1440" height="896" viewBox="0 0 1440 896" fill="none" xmlns="http://www.w3.org/2000/svg">
<g clip-path="url(#clip0_417_3593)">
<rect width="1440" height="896" fill="white"/>
<rect y="-352" width="1440" height="1431" fill="#193F79"/>
<path d="M1425 100H300.747C204.857 100 127.122 177.734 127.122 273.625V273.625C127.122 369.515 204.857 447.25 300.747 447.25H1139.88C1235.63 447.25 1313.26 524.873 1313.26 620.625V620.625C1313.26 716.377 1235.63 794 1139.88 794H647.628H-18" stroke="#528BC9" stroke-width="176" stroke-linecap="square" stroke-linejoin="round"/>
<path d="M1425 100H300.747C204.857 100 127.122 177.734 127.122 273.625V273.625C127.122 369.515 204.857 447.25 300.747 447.25H1139.88C1235.63 447.25 1313.26 524.873 1313.26 620.625V620.625C1313.26 716.377 1235.63 794 1139.88 794H647.628H-18" stroke="white" stroke-width="131" stroke-linecap="square" stroke-linejoin="round"/>
<path d="M1425 100H300.747C204.857 100 127.122 177.734 127.122 273.625V273.625C127.122 369.515 204.857 447.25 300.747 447.25H1139.88C1235.63 447.25 1313.26 524.873 1313.26 620.625V620.625C1313.26 716.377 1235.63 794 1139.88 794H647.628H-18" stroke="white" stroke-width="131" stroke-linecap="square" stroke-linejoin="round"/>
<path d="M387.84 99.808L412.416 99.808L412.416 72.544L419.712 72.544L419.712 99.808L444.288 99.808L444.288 106.464L419.712 106.464L419.712 132.96L412.416 132.96L412.416 106.464L387.84 106.464L387.84 99.808Z" fill="#193F79"/>
<path d="M459.84 99.808L516.288 99.808L516.288 106.464L459.84 106.464L459.84 99.808Z" fill="#193F79"/>
<path d="M533.056 78.944L552.128 98.016L571.072 78.944L575.808 83.68L556.864 102.752L575.808 121.696L571.072 126.56L552.128 107.488L533.056 126.56L528.32 121.696L547.264 102.752L528.32 83.68L533.056 78.944Z" fill="#193F79"/>
<path d="M617.136 131.424C615.941 130.315 615.344 128.949 615.344 127.328C615.344 125.707 615.941 124.299 617.136 123.104C618.331 121.995 619.739 121.44 621.36 121.44C622.981 121.44 624.347 121.995 625.456 123.104C626.565 124.299 627.12 125.707 627.12 127.328C627.12 128.949 626.565 130.315 625.456 131.424C624.347 132.619 622.981 133.216 621.36 133.216C619.653 133.216 618.245 132.619 617.136 131.424ZM592.304 99.808L650.288 99.808L650.288 106.464L592.304 106.464L592.304 99.808ZM617.136 82.528C615.941 81.4187 615.344 80.0533 615.344 78.432C615.344 76.8107 615.941 75.4027 617.136 74.208C618.331 73.0987 619.739 72.544 621.36 72.544C622.981 72.544 624.347 73.0987 625.456 74.208C626.565 75.4027 627.12 76.8107 627.12 78.432C627.12 80.0533 626.565 81.4187 625.456 82.528C624.347 83.7227 622.981 84.32 621.36 84.32C619.739 84.32 618.331 83.7227 617.136 82.528Z" fill="#193F79"/>
<path d="M657.84 111.712L714.288 111.712L714.288 118.496L657.84 118.496L657.84 111.712ZM657.84 87.008L714.288 87.008L714.288 93.664L657.84 93.664L657.84 87.008Z" fill="#193F79"/>
<path d="M786.288 87.008L786.288 94.56C782.277 91.744 777.584 90.336 772.208 90.336C768.283 90.336 763.845 91.5733 758.896 94.048C753.861 96.5227 748.912 97.76 744.048 97.76C738.928 97.76 734.192 96.608 729.84 94.304L729.84 86.752C734.021 89.6533 738.757 91.104 744.048 91.104C748.059 91.104 752.539 89.824 757.488 87.264C762.437 84.7893 767.344 83.552 772.208 83.552C777.584 83.552 782.277 84.704 786.288 87.008ZM786.288 111.2L786.288 118.624C782.107 115.808 777.413 114.4 772.208 114.4C768.283 114.4 763.845 115.637 758.896 118.112C753.861 120.672 748.912 121.952 744.048 121.952C738.928 121.952 734.192 120.8 729.84 118.496L729.84 110.944C733.851 113.76 738.587 115.168 744.048 115.168C748.059 115.168 752.539 113.931 757.488 111.456C762.437 108.981 767.344 107.744 772.208 107.744C777.413 107.744 782.107 108.896 786.288 111.2Z" fill="#193F79"/>
<path d="M838.256 71.904L845.168 71.904L835.568 87.008L850.288 87.008L850.288 93.664L831.344 93.664L819.824 111.712L850.288 111.712L850.288 118.496L815.472 118.496L806 133.472L798.96 133.472L808.56 118.496L793.84 118.496L793.84 111.712L812.784 111.712L824.304 93.664L793.84 93.664L793.84 87.008L828.656 87.008L838.256 71.904Z" fill="#193F79"/>
<path d="M909.16 98.528H884.584L884.584 125.92H877.288L877.288 98.528H852.712L852.712 91.872H877.288L877.288 65.376H884.584L884.584 91.872H909.16L909.16 98.528ZM909.16 140H852.712L852.712 133.344H909.16L909.16 140Z" fill="#193F79"/>
<path d="M927.84 71.52L984.288 99.424L984.288 106.208L927.84 134.24L927.84 126.176L976.096 102.752L927.84 79.456L927.84 71.52Z" fill="#193F79"/>
<path d="M991.84 99.424L1048.29 71.52L1048.29 79.456L1000.16 102.752L1048.29 126.176L1048.29 134.24L991.84 106.208L991.84 99.424Z" fill="#193F79"/>
<path d="M1177.16 127.328L1120.71 99.424L1120.71 92.64L1177.16 64.608L1177.16 72.672L1128.9 96.096L1177.16 119.392L1177.16 127.328ZM1177.16 140L1120.71 140L1120.71 133.344L1177.16 133.344L1177.16 140Z" fill="#193F79"/>
<path d="M1114.03 99.424L1057.58 127.328L1057.58 119.392L1105.84 96.096L1057.58 72.672L1057.58 64.608L1114.03 92.64L1114.03 99.424ZM1114.03 140L1057.58 140L1057.58 133.344L1114.03 133.344L1114.03 140Z" fill="#193F79"/>
<path d="M1241.16 81.504L1241.16 112.992L1234.12 112.992L1234.12 88.288H1184.71L1184.71 81.504H1241.16Z" fill="#193F79"/>
<path d="M1263.98 57.44L1271.02 57.44L1271.02 147.936L1263.98 147.936L1263.98 57.44Z" fill="#193F79"/>
<path d="M1291.98 57.44L1299.02 57.44L1299.02 97.888L1291.98 97.888L1291.98 57.44ZM1291.98 107.488L1299.02 107.488L1299.02 147.936L1291.98 147.936L1291.98 107.488Z" fill="#193F79"/>
<path d="M1361.86 116.376H1353.93L1336.65 80.664L1319.37 116.376H1311.43L1333.06 73.624H1340.36L1361.86 116.376Z" fill="#193F79"/>
<path d="M1378.37 117.376L1371.2 116.48C1371.63 112.128 1372.18 108.331 1372.86 105.088C1373.46 101.845 1374.4 98.688 1375.68 95.616C1376.96 92.544 1378.71 90.1973 1380.93 88.576C1383.15 86.9547 1385.79 86.144 1388.86 86.144C1391.85 86.144 1394.33 86.9547 1396.29 88.576C1398.25 90.2827 1399.74 92.3307 1400.77 94.72C1401.71 97.1093 1402.6 99.4987 1403.46 101.888C1404.22 104.277 1405.21 106.283 1406.4 107.904C1407.59 109.611 1409.09 110.464 1410.88 110.464C1416.26 110.464 1419.75 102.315 1421.38 86.016L1428.54 86.912C1428.12 91.1787 1427.56 94.9333 1426.88 98.176C1426.2 101.504 1425.22 104.704 1423.94 107.776C1422.66 110.848 1420.91 113.195 1418.69 114.816C1416.47 116.437 1413.87 117.248 1410.88 117.248C1407.89 117.248 1405.42 116.395 1403.46 114.688C1401.41 113.067 1399.91 111.019 1398.98 108.544C1397.95 106.155 1397.06 103.765 1396.29 101.376C1395.52 98.9867 1394.54 96.9387 1393.34 95.232C1392.15 93.6107 1390.66 92.8 1388.86 92.8C1383.32 92.8 1379.82 100.992 1378.37 117.376Z" fill="#193F79"/>
<path d="M349.344 139H346.656L326.432 96.248L346.656 53.624H349.344L369.568 96.248L349.344 139ZM348.064 133.752L364.96 96.248L347.936 58.872L331.04 96.248L348.064 133.752Z" fill="#193F79"/>
<path d="M252.655 61.3276L259.572 58.6321L289.431 91.9081L305.24 77.3703L309.581 82.5456L288.481 101.618L259.418 69.4048L257.247 151.146L250.21 153.888L252.655 61.3276Z" fill="#193F79"/>
<path d="M198.112 66.8592L204.818 62.8595L208.253 69.0049L201.547 73.0046C199.568 74.1849 198.361 76.0469 197.926 78.5907C197.418 81.1783 197.871 83.7383 199.287 86.271L236.628 153.089C239.126 157.558 239.789 161.98 238.618 166.353C237.415 170.845 234.981 174.184 231.317 176.369L224.501 180.434L221.067 174.289L227.882 170.224C229.861 169.043 231.105 167.16 231.613 164.572C232.09 162.103 231.599 159.564 230.142 156.957L192.739 90.0279C190.282 85.6329 189.677 81.2269 190.921 76.8096C192.051 72.3616 194.448 69.0448 198.112 66.8592Z" fill="#193F79"/>
<path d="M162.491 133.446L142.906 113.212L149.583 106.314L208.962 167.659L202.285 174.557L173.975 145.31C167.328 138.443 160.74 138.382 154.212 145.126C151.778 147.64 150.057 150.767 149.048 154.507C148.039 158.247 147.802 161.742 148.336 164.992L179.94 197.641L173.263 204.539L140.324 170.51C136.882 166.954 133.766 166.617 130.976 169.498C130.324 170.173 129.819 170.817 129.463 171.43L123.142 166.003C124.211 164.409 125.279 163.06 126.347 161.957C131.57 156.561 137.208 156.009 143.262 160.301C142.668 156.377 142.846 152.392 143.796 148.345C144.805 144.36 146.615 141.018 149.226 138.32C153.678 133.722 158.099 132.097 162.491 133.446Z" fill="#193F79"/>
<path d="M80.363 231.179C82.6768 222.258 87.4191 215.868 94.5899 212.01C101.821 208.258 109.755 207.576 118.39 209.967C126.943 212.335 133.434 216.876 137.863 223.591C142.373 230.328 143.6 237.662 141.544 245.591C139.423 253.769 134.391 259.237 126.447 261.996C132.6 261.043 138.963 258.599 145.537 254.665C152.111 250.73 158.16 245.587 163.685 239.238L167.56 247.747C159.662 256.45 150.104 263.055 138.886 267.564C127.647 272.155 116.311 272.868 104.88 269.704C95.4222 267.085 88.3878 262.261 83.7768 255.23C79.1658 248.199 78.0279 240.182 80.363 231.179ZM98.835 220.622C93.6158 223.073 90.2136 227.354 88.6282 233.467C87.0429 239.579 87.8867 244.992 91.1598 249.704C94.5151 254.44 99.3179 257.673 105.568 259.403C111.654 261.088 117.296 260.746 122.493 258.378C127.691 256.01 131.083 251.77 132.668 245.658C134.253 239.545 133.379 234.08 130.045 229.262C126.69 224.526 121.969 221.316 115.884 219.631C109.716 217.924 104.033 218.254 98.835 220.622Z" fill="#193F79"/>
<path d="M110.392 366.369L126.958 320.813L176.093 324.437L151.791 284.235L159.75 279.1L190.674 330.255L182.715 335.391L133.753 331.807L117.147 377.542L109.188 382.677L78.3297 331.632L86.2889 326.496L110.392 366.369Z" fill="#193F79"/>
<path d="M196.134 471.183L187.746 464.662L239.219 393.998L213.046 373.65L161.573 444.314L153.186 437.794L204.659 367.129L193.644 358.566L199.221 350.91L264.199 401.425L258.622 409.082L247.607 400.518L196.134 471.183Z" fill="#193F79"/>
<path d="M320.976 493H311.376V439.624H279.12V493H269.52V439.624H259.28V431.176H331.216V439.624H320.976V493Z" fill="#193F79"/>
<path d="M351.832 483.528H369.112C356.056 475.677 349.528 463.987 349.528 448.456C349.528 436.083 353.453 425.971 361.304 418.12C369.155 410.184 379.352 406.216 391.896 406.216C404.525 406.216 414.723 410.184 422.488 418.12C430.339 425.971 434.264 436.083 434.264 448.456C434.264 463.987 427.821 475.677 414.936 483.528H432.088V493H401.368V483.528C407.427 481.992 412.589 478.28 416.856 472.392C421.123 466.504 423.256 459.123 423.256 450.248C423.256 440.435 420.483 432.243 414.936 425.672C409.389 419.101 401.709 415.816 391.896 415.816C382.083 415.816 374.403 419.101 368.856 425.672C363.309 432.243 360.536 440.435 360.536 450.248C360.536 459.123 362.669 466.504 366.936 472.392C371.288 478.28 376.493 481.992 382.552 483.528V493H351.832V483.528Z" fill="#193F79"/>
<path d="M531.072 493H449.152L483.456 407.624H496.64L531.072 493ZM515.84 483.528L490.112 418.632L464.384 483.528H515.84Z" fill="#193F79"/>
<path d="M560.688 466.064H552.752L550.704 404.624H562.736L560.688 466.064ZM561.584 489.232C560.219 490.597 558.597 491.28 556.72 491.28C554.843 491.28 553.179 490.597 551.728 489.232C550.363 487.781 549.68 486.117 549.68 484.24C549.68 482.277 550.363 480.613 551.728 479.248C553.093 477.883 554.757 477.2 556.72 477.2C558.683 477.2 560.347 477.883 561.712 479.248C563.077 480.613 563.76 482.277 563.76 484.24C563.76 486.117 563.035 487.781 561.584 489.232Z" fill="#193F79"/>
<path d="M596.984 466.32C593.656 463.504 591.992 460.048 591.992 455.952C591.992 453.392 592.547 451.045 593.656 448.912C594.851 446.779 596.301 445.029 598.008 443.664C599.715 442.299 601.549 440.891 603.512 439.44C605.56 437.904 607.437 436.496 609.144 435.216C610.851 433.936 612.259 432.4 613.368 430.608C614.563 428.816 615.16 426.853 615.16 424.72C615.16 421.307 613.837 418.491 611.192 416.272C608.632 413.968 604.92 412.816 600.056 412.816C591.779 412.816 584.995 416.315 579.704 423.312L573.304 416.4C580.045 407.696 589.304 403.344 601.08 403.344C608.675 403.344 614.733 405.264 619.256 409.104C623.864 412.859 626.168 417.552 626.168 423.184C626.168 427.536 624.845 431.419 622.2 434.832C619.64 438.16 616.824 440.72 613.752 442.512C610.68 444.304 607.821 446.437 605.176 448.912C602.616 451.387 601.336 453.989 601.336 456.72C601.336 459.109 602.488 461.2 604.792 462.992L596.984 466.32ZM604.536 489.232C603.171 490.597 601.549 491.28 599.672 491.28C597.795 491.28 596.131 490.597 594.68 489.232C593.315 487.867 592.632 486.203 592.632 484.24C592.632 482.277 593.315 480.613 594.68 479.248C596.131 477.883 597.795 477.2 599.672 477.2C601.549 477.2 603.171 477.883 604.536 479.248C605.987 480.613 606.712 482.277 606.712 484.24C606.712 486.203 605.987 487.867 604.536 489.232Z" fill="#193F79"/>
<path d="M641.384 406.928C639.763 407.269 638.141 407.739 636.52 408.336C634.899 408.933 633.192 409.701 631.4 410.64L627.56 403.344C631.656 401.381 635.624 399.888 639.464 398.864C643.304 397.84 647.443 397.328 651.88 397.328C659.987 397.328 666.344 399.291 670.952 403.216C675.56 407.056 677.864 412.517 677.864 419.6C677.864 423.44 677.309 426.768 676.2 429.584C675.091 432.315 673.384 434.875 671.08 437.264C668.861 439.568 666.045 441.957 662.632 444.432C660.755 445.797 659.091 447.248 657.64 448.784C656.275 450.235 655.208 452.027 654.44 454.16C653.672 456.293 653.288 459.067 653.288 462.48V464.016H643.816L641.384 406.928ZM648.424 491.408C646.205 491.408 644.413 490.768 643.048 489.488C641.768 488.208 641.128 486.245 641.128 483.6C641.128 480.869 641.768 478.907 643.048 477.712C644.413 476.432 646.205 475.792 648.424 475.792C650.643 475.792 652.392 476.432 653.672 477.712C655.037 478.907 655.72 480.869 655.72 483.6C655.72 486.245 655.037 488.208 653.672 489.488C652.392 490.768 650.643 491.408 648.424 491.408ZM651.624 444.176C652.221 443.237 652.947 442.341 653.8 441.488C654.653 440.549 655.635 439.611 656.744 438.672C660.157 436.027 662.632 433.723 664.168 431.76C665.789 429.712 666.813 427.749 667.24 425.872C667.752 423.909 668.008 421.819 668.008 419.6C668.008 415.077 666.557 411.621 663.656 409.232C660.84 406.843 657.171 405.52 652.648 405.264L651.624 444.176Z" fill="#193F79"/>
<path d="M694.832 495.552L696.752 434.112H704.688L706.736 495.552H694.832ZM695.728 420.928C694.363 419.477 693.68 417.813 693.68 415.936C693.68 414.059 694.363 412.437 695.728 411.072C697.179 409.621 698.843 408.896 700.72 408.896C702.597 408.896 704.219 409.621 705.584 411.072C707.035 412.437 707.76 414.059 707.76 415.936C707.76 417.813 707.077 419.477 705.712 420.928C704.347 422.293 702.683 422.976 700.72 422.976C698.757 422.976 697.093 422.293 695.728 420.928Z" fill="#193F79"/>
<path d="M754.024 434.112C757.352 437.099 759.016 440.597 759.016 444.608C759.016 447.595 758.205 450.283 756.584 452.672C755.048 455.061 753.128 457.109 750.824 458.816C748.605 460.437 746.344 462.016 744.04 463.552C741.821 465.088 739.901 466.923 738.28 469.056C736.744 471.104 735.976 473.365 735.976 475.84C735.976 479.168 737.256 481.941 739.816 484.16C742.461 486.464 746.173 487.616 750.952 487.616C759.4 487.616 766.227 484.16 771.432 477.248L777.704 484.032C771.048 492.736 761.832 497.088 750.056 497.088C742.461 497.088 736.36 495.168 731.752 491.328C727.229 487.573 724.968 482.88 724.968 477.248C724.968 473.664 725.821 470.464 727.528 467.648C729.235 464.747 731.283 462.4 733.672 460.608C736.061 458.816 738.451 457.109 740.84 455.488C743.315 453.867 745.405 452.075 747.112 450.112C748.819 448.149 749.672 446.016 749.672 443.712C749.672 441.323 748.563 439.275 746.344 437.568L754.024 434.112ZM746.472 411.072C747.923 409.621 749.587 408.896 751.464 408.896C753.341 408.896 754.963 409.621 756.328 411.072C757.779 412.437 758.504 414.101 758.504 416.064C758.504 417.941 757.779 419.563 756.328 420.928C754.963 422.293 753.341 422.976 751.464 422.976C749.587 422.976 747.923 422.293 746.472 420.928C745.107 419.563 744.424 417.941 744.424 416.064C744.424 414.101 745.107 412.437 746.472 411.072Z" fill="#193F79"/>
<path d="M824.448 485.808C826.069 485.381 827.691 484.869 829.312 484.272C830.933 483.675 832.64 482.949 834.432 482.096L838.272 489.392C834.176 491.355 830.208 492.848 826.368 493.872C822.613 494.896 818.475 495.408 813.952 495.408C805.931 495.408 799.573 493.488 794.88 489.648C790.272 485.723 787.968 480.219 787.968 473.136C787.968 469.296 788.523 466.011 789.632 463.28C790.741 460.464 792.405 457.904 794.624 455.6C796.928 453.211 799.787 450.779 803.2 448.304C805.077 446.853 806.699 445.403 808.064 443.952C809.515 442.501 810.624 440.709 811.392 438.576C812.16 436.357 812.544 433.584 812.544 430.256V428.72H822.016L824.448 485.808ZM817.408 401.328C819.627 401.328 821.376 401.968 822.656 403.248C824.021 404.528 824.704 406.491 824.704 409.136C824.704 411.781 824.021 413.744 822.656 415.024C821.376 416.304 819.627 416.944 817.408 416.944C815.189 416.944 813.397 416.304 812.032 415.024C810.752 413.744 810.112 411.781 810.112 409.136C810.112 406.491 810.752 404.528 812.032 403.248C813.397 401.968 815.189 401.328 817.408 401.328ZM814.208 448.56C813.611 449.413 812.885 450.309 812.032 451.248C811.264 452.187 810.283 453.125 809.088 454.064C805.76 456.709 803.285 459.056 801.664 461.104C800.043 463.067 798.976 464.987 798.464 466.864C798.037 468.741 797.824 470.832 797.824 473.136C797.824 477.573 799.232 481.029 802.048 483.504C804.949 485.893 808.661 487.216 813.184 487.472L814.208 448.56Z" fill="#193F79"/>
<path d="M876.92 478.936H867.32L846.84 455.896L867.32 433.24H876.92L856.44 455.896L876.92 478.936Z" fill="#193F79"/>
<path d="M910.92 455.896L890.44 478.936H880.84L901.32 455.896L880.84 433.24H890.44L910.92 455.896Z" fill="#193F79"/>
<path d="M970.352 478.936L960.752 478.936L940.272 455.896L960.752 433.24L970.352 433.24L949.872 455.896L970.352 478.936ZM951.92 478.936L942.32 478.936L921.84 455.896L942.32 433.24L951.92 433.24L931.44 455.896L951.92 478.936Z" fill="#193F79"/>
<path d="M1003.92 455.896L983.44 478.936L973.84 478.936L994.32 455.896L973.84 433.24L983.44 433.24L1003.92 455.896ZM1022.35 455.896L1001.87 478.936L992.272 478.936L1012.75 455.896L992.272 433.24L1001.87 433.24L1022.35 455.896Z" fill="#193F79"/>
<path d="M1054.5 398.608H1066.02L1045.42 431.632H1037.99L1054.5 398.608Z" fill="#193F79"/>
<path d="M1116.03 398.608H1127.55L1106.94 431.632H1099.52L1116.03 398.608ZM1093.5 398.608H1105.02L1084.42 431.632H1076.99L1093.5 398.608Z" fill="#193F79"/>
<path d="M1062.1 480.264H1057.37C1055.06 462.771 1053.91 453.427 1053.91 452.232C1053.91 450.611 1054.47 449.245 1055.58 448.136C1056.69 446.941 1058.05 446.344 1059.67 446.344C1061.29 446.344 1062.66 446.941 1063.77 448.136C1064.96 449.245 1065.56 450.611 1065.56 452.232L1062.1 480.264ZM1085.04 480.264H1080.31C1078 462.771 1076.85 453.427 1076.85 452.232C1076.85 450.611 1077.41 449.245 1078.52 448.136C1079.63 446.941 1080.99 446.344 1082.61 446.344C1084.23 446.344 1085.6 446.941 1086.71 448.136C1087.9 449.245 1088.5 450.611 1088.5 452.232L1085.04 480.264ZM1103.6 480.264H1098.87C1096.56 462.771 1095.41 453.427 1095.41 452.232C1095.41 450.611 1095.97 449.245 1097.08 448.136C1098.27 446.941 1099.68 446.344 1101.3 446.344C1102.92 446.344 1104.29 446.941 1105.4 448.136C1106.51 449.245 1107.06 450.611 1107.06 452.232L1103.6 480.264Z" fill="#193F79"/>
<path d="M1367.21 635.756L1355.83 636.417C1355.82 648.726 1351.88 658.742 1344.01 666.464L1335.62 660.669C1342.26 654.043 1345.85 646.142 1346.38 636.966L1315.2 638.776C1314.52 642.063 1313.9 644.749 1313.33 646.833C1312.75 648.833 1311.9 651.19 1310.76 653.906C1309.55 656.626 1308.21 658.798 1306.76 660.421C1305.31 662.044 1303.42 663.478 1301.1 664.724C1298.77 665.885 1296.07 666.555 1293 666.733C1286.44 667.113 1280.86 664.959 1276.24 660.269C1271.63 655.579 1268.9 649.327 1268.04 641.513L1256.29 642.195L1255.86 634.399L1267.75 633.709C1268.21 623.34 1271.63 614.722 1278.01 607.855L1286.15 613.793C1281.06 619.132 1278.16 625.583 1277.46 633.145L1305.19 631.535C1306.08 627.466 1307.01 624.079 1307.97 621.373C1308.85 618.673 1310.19 615.817 1311.99 612.806C1313.7 609.715 1316.01 607.359 1318.91 605.737C1321.73 604.12 1325.1 603.198 1329.02 602.971C1335.49 602.595 1341.23 604.484 1346.25 608.638C1351.17 612.797 1354.23 619.457 1355.41 628.62L1366.78 627.96L1367.21 635.756ZM1330.51 613.911C1326.68 614.133 1323.77 615.712 1321.79 618.648C1319.81 621.498 1318.2 625.566 1316.95 630.853L1345.95 629.169C1345.06 623.665 1343.13 619.717 1340.18 617.324C1337.23 614.846 1334 613.708 1330.51 613.911ZM1291.77 655.778C1295 655.59 1297.49 654.121 1299.22 651.371C1300.86 648.625 1302.31 644.652 1303.57 639.451L1277.5 640.964C1278.09 645.545 1279.7 649.213 1282.33 651.966C1284.87 654.725 1288.02 655.996 1291.77 655.778Z" fill="#193F79"/>
<path d="M1329.2 734.634L1318.47 730.095C1314.64 736.994 1309.11 741.557 1301.89 743.785C1294.63 745.9 1287.07 745.295 1279.21 741.97C1271.51 738.711 1265.83 733.714 1262.17 726.977C1258.46 720.128 1257.54 712.838 1259.41 705.108L1250.81 701.467L1253.59 694.446L1261.96 697.987C1265.54 690.796 1271.23 686.068 1279.01 683.802L1282.07 692.046C1276.57 693.424 1272.5 696.518 1269.86 701.329L1313.59 719.833C1315.1 714.636 1314.3 709.48 1311.19 704.365L1318.97 700.71C1323.04 707.805 1323.88 715.293 1321.49 723.174L1331.98 727.613L1329.2 734.634ZM1282.89 732.688C1288.39 735.016 1293.64 735.662 1298.64 734.628C1303.64 733.593 1307.58 730.952 1310.46 726.704L1267.55 708.549C1266.71 713.662 1267.73 718.398 1270.59 722.757C1273.37 727.084 1277.47 730.394 1282.89 732.688Z" fill="#193F79"/>
<path d="M1218.75 790.014L1214.84 784.317L1225.78 776.295C1222.31 775.457 1219.88 774.858 1218.5 774.498C1217.13 774.018 1215.2 773.006 1212.69 771.461C1210.13 769.846 1208.03 767.843 1206.39 765.451C1202.42 759.683 1201.34 753.13 1203.13 745.791C1204.87 738.381 1208.9 732.356 1215.23 727.715C1219.91 724.284 1224.8 722.287 1229.9 721.723C1234.95 721.089 1239.72 721.93 1244.2 724.245L1240.19 733.536C1237.58 731.851 1234.49 731.047 1230.92 731.125C1227.42 731.152 1224.16 732.275 1221.13 734.495C1217.07 737.471 1214.44 741.25 1213.24 745.831C1212.04 750.412 1212.84 754.742 1215.65 758.822C1216.9 760.651 1218.42 762.182 1220.2 763.416C1221.98 764.65 1223.46 765.523 1224.63 766.034C1225.88 766.494 1227.8 767.099 1230.38 767.849C1232.92 768.528 1234.59 768.997 1235.38 769.257L1250.87 757.906L1254.78 763.604L1242.19 772.836C1243.78 774.101 1245.06 775.436 1246.03 776.843C1249.8 782.33 1250.37 788.889 1247.75 796.522C1249.03 794.628 1250.61 792.999 1252.46 791.637C1254.73 789.972 1257.86 788.794 1261.83 788.102C1265.83 787.289 1268.79 786.176 1270.71 784.763C1272.85 783.199 1274.52 781.34 1275.73 779.184C1276.89 776.958 1277.52 775.014 1277.62 773.354L1286.19 777.699C1285.09 783.477 1281.58 788.535 1275.66 792.874C1272.43 795.245 1268.6 796.832 1264.19 797.636C1259.77 798.44 1256.33 799.75 1253.85 801.566C1250.96 803.685 1247.87 808.068 1244.57 814.716L1236.98 810.445C1239.98 805.176 1241.71 800.313 1242.17 795.854C1242.64 791.275 1241.79 787.402 1239.62 784.237C1238.17 782.127 1236.21 780.395 1233.72 779.041L1218.75 790.014Z" fill="#193F79"/>
<path d="M1154.12 835.536C1143.79 835.536 1134.75 832.677 1126.98 826.96C1119.3 821.157 1114.23 813.392 1111.75 803.664H1104.97V797.008H1110.47C1110.3 794.619 1110.22 792.741 1110.22 791.376C1110.22 790.011 1110.3 788.048 1110.47 785.488H1104.97V778.832H1111.75C1114.31 769.275 1119.43 761.637 1127.11 755.92C1134.88 750.117 1143.88 747.216 1154.12 747.216C1167.77 747.216 1178.57 752.848 1186.5 764.112L1177.54 769.104C1175.07 765.435 1171.74 762.448 1167.56 760.144C1163.38 757.84 1158.9 756.688 1154.12 756.688C1146.87 756.688 1140.47 758.693 1134.92 762.704C1129.37 766.715 1125.45 772.091 1123.14 778.832H1161.93V785.488H1121.61C1121.35 787.451 1121.22 789.413 1121.22 791.376C1121.22 793.339 1121.35 795.216 1121.61 797.008H1161.93V803.664H1123.14C1125.36 810.491 1129.25 815.952 1134.79 820.048C1140.42 824.059 1146.87 826.064 1154.12 826.064C1158.9 826.064 1163.38 824.955 1167.56 822.736C1171.74 820.432 1175.07 817.403 1177.54 813.648L1186.63 818.64C1178.35 829.904 1167.52 835.536 1154.12 835.536Z" fill="#193F79"/>
<path d="M1048.95 854.608H1038.2L1049.98 801.488H1041.27V792.784H1051.77L1057.66 766.672C1058.94 760.699 1061.58 756.005 1065.59 752.592C1069.6 749.093 1074.38 747.344 1079.93 747.344C1084.96 747.344 1088.97 748.88 1091.96 751.952L1087.22 759.76C1085.69 757.797 1083.55 756.816 1080.82 756.816C1077.75 756.816 1075.06 757.883 1072.76 760.016C1070.46 762.064 1068.88 764.923 1068.02 768.592L1062.65 792.784H1080.44V801.488H1060.73L1048.95 854.608Z" fill="#193F79"/>
<path d="M975.44 834H964.816V818.384H932.816V811.6H964.816V797.904H932.816V791.248H960.208L931.152 748.624H943.568L970.064 788.304L996.56 748.624H1008.98L979.92 791.248H1007.44V797.904H975.44V811.6H1007.44V818.384H975.44V834Z" fill="#193F79"/>
<path d="M879.944 835.536C879.603 835.536 879.091 835.493 878.408 835.408C877.811 835.408 877.384 835.408 877.128 835.408L873.288 846.8H866.888L870.984 834.64C867.144 833.957 863.773 832.976 860.872 831.696L855.88 846.8H849.48L855.496 828.752C849.437 824.912 844.659 819.749 841.16 813.264C837.747 806.779 836.04 799.483 836.04 791.376C836.04 778.405 840.221 767.824 848.584 759.632C857.032 751.355 867.485 747.216 879.944 747.216C880.285 747.216 880.755 747.259 881.352 747.344C881.949 747.344 882.419 747.344 882.76 747.344L886.6 735.696H893L888.904 748.112C892.317 748.88 895.56 750.117 898.632 751.824L904.008 735.696H910.408L903.88 755.152C906.781 757.371 909.597 760.357 912.328 764.112L903.368 769.104C902.344 767.653 901.363 766.459 900.424 765.52L880.328 826.064C885.021 825.979 889.416 824.827 893.512 822.608C897.608 820.304 900.893 817.317 903.368 813.648L912.456 818.64C904.179 829.904 893.341 835.536 879.944 835.536ZM847.048 791.376C847.048 802.981 851.016 812.069 858.952 818.64L879.56 756.688C870.173 756.859 862.408 760.187 856.264 766.672C850.12 773.072 847.048 781.307 847.048 791.376ZM864.2 822.224C867.187 823.76 870.429 824.869 873.928 825.552L895.432 761.424C892.36 759.461 889.16 758.096 885.832 757.328L864.2 822.224Z" fill="#193F79"/>
<path d="M769.888 834H759.264V816.464H749.28V810.32H759.264V748.624H815.2V758.096H769.888V785.616H814.304V795.088H769.888V810.32H795.744V816.464H769.888V834Z" fill="#193F79"/>
<path d="M667.432 792.016V786.128H675.624C672.637 781.947 671.144 777.424 671.144 772.56C671.144 765.563 673.96 759.632 679.592 754.768C685.224 749.819 691.965 747.344 699.816 747.344C705.619 747.344 710.781 748.624 715.304 751.184C719.827 753.659 723.283 757.157 725.672 761.68L717.096 766.8C715.901 763.899 713.811 761.424 710.824 759.376C707.923 757.328 704.595 756.304 700.84 756.304C695.805 756.304 691.496 757.797 687.912 760.784C684.328 763.771 682.536 767.739 682.536 772.688C682.536 777.211 684.2 781.691 687.528 786.128H712.104V792.016H692.264C694.739 795.259 696.275 798.245 696.872 800.976H712.104V806.864H697.256C696.829 812.752 693.629 817.829 687.656 822.096C689.789 821.328 692.008 820.944 694.312 820.944C697.128 820.944 700.371 821.84 704.04 823.632C707.795 825.339 710.867 826.192 713.256 826.192C715.901 826.192 718.333 825.68 720.552 824.656C722.771 823.547 724.392 822.352 725.416 821.072L730.024 829.648C725.843 833.659 720.083 835.664 712.744 835.664C708.733 835.664 704.68 834.683 700.584 832.72C696.488 830.757 692.904 829.776 689.832 829.776C686.248 829.776 681.213 831.483 674.728 834.896L670.888 826.96C676.349 824.485 680.531 821.584 683.432 818.256C686.419 814.843 687.912 811.216 687.912 807.376V806.864H667.432V800.976H686.632C685.864 799.099 683.773 796.112 680.36 792.016H667.432Z" fill="#193F79"/>
<path d="M600.88 834.64C598.661 834.64 596.656 834.555 594.864 834.384C593.072 834.299 591.536 834.171 590.256 834V792.272L576.56 797.008V788.688L590.256 784.08V773.968L576.56 778.576V770.256L590.256 765.648V742.608H601.264V761.808L627.632 752.72V761.04L601.264 770.128V780.24L627.632 771.152V779.344L601.264 788.56V824.912C609.029 824.912 615.173 823.333 619.696 820.176C624.219 816.933 627.461 812.624 629.424 807.248C631.387 801.872 632.368 795.856 632.368 789.2H643.376C643.376 795.088 642.608 800.763 641.072 806.224C639.621 811.685 637.189 816.549 633.776 820.816C630.448 825.083 626.096 828.453 620.72 830.928C615.344 833.403 608.731 834.64 600.88 834.64Z" fill="#193F79"/>
<path d="M546.92 834H536.68L514.024 803.152H486.888V834H476.264V803.152H466.28V797.008H476.264V784.848H466.28V778.704H476.264V748.624H487.144L509.288 778.704H536.296V748.624H546.92V778.704H556.904V784.848H546.92V797.008H556.904V803.152H546.92V834ZM486.888 784.848V797.008H509.544L500.712 784.848H486.888ZM513.768 784.848L522.728 797.008H536.296V784.848H513.768ZM486.888 765.904V778.704H496.232L486.888 765.904ZM527.336 803.152L536.296 815.312V803.152H527.336Z" fill="#193F79"/>
<path d="M454.28 777.808H445.064C444.296 784.293 441.565 789.627 436.872 793.808C432.179 797.989 426.077 800.08 418.568 800.08H394.888V834H384.264V777.808H374.28V771.152H384.264V748.624H418.568C426.163 748.624 432.307 750.757 437 755.024C441.693 759.291 444.381 764.667 445.064 771.152H454.28V777.808ZM394.888 758.096V771.152H434.056C433.373 767.227 431.496 764.069 428.424 761.68C425.437 759.291 421.725 758.096 417.288 758.096H394.888ZM417.288 790.608C421.64 790.608 425.309 789.456 428.296 787.152C431.368 784.763 433.245 781.648 433.928 777.808H394.888V790.608H417.288Z" fill="#193F79"/>
<path d="M329.976 835.536C321.272 835.536 314.317 831.909 309.112 824.656V857.552H299.512V772.176H309.112V781.392C311.416 778.149 314.403 775.547 318.072 773.584C321.741 771.621 325.709 770.64 329.976 770.64C338.168 770.64 344.781 773.584 349.816 779.472C354.936 785.275 357.496 793.125 357.496 803.024C357.496 812.923 354.936 820.816 349.816 826.704C344.781 832.592 338.168 835.536 329.976 835.536ZM327.544 826.96C333.603 826.96 338.424 824.741 342.008 820.304C345.592 815.781 347.384 810.021 347.384 803.024C347.384 796.027 345.592 790.309 342.008 785.872C338.424 781.435 333.603 779.216 327.544 779.216C323.875 779.216 320.291 780.197 316.792 782.16C313.379 784.037 310.819 786.341 309.112 789.072V816.976C310.819 819.792 313.379 822.181 316.792 824.144C320.291 826.021 323.875 826.96 327.544 826.96ZM290.936 834H278.392L256.632 800.08H239.608V834H228.984V748.624H263.288C271.224 748.624 277.667 750.971 282.616 755.664C287.565 760.357 290.04 766.587 290.04 774.352C290.04 781.691 287.907 787.536 283.64 791.888C279.373 796.24 274.125 798.672 267.896 799.184L290.936 834ZM262.008 790.736C267.043 790.736 271.139 789.2 274.296 786.128C277.453 783.056 279.032 779.131 279.032 774.352C279.032 769.573 277.453 765.691 274.296 762.704C271.139 759.632 267.043 758.096 262.008 758.096H239.608V790.736H262.008Z" fill="#193F79"/>
<path d="M184.096 835.536C173.6 835.536 165.28 832.293 159.136 825.808L164.128 818.896C166.261 821.371 169.163 823.461 172.832 825.168C176.587 826.875 180.469 827.728 184.48 827.728C189.088 827.728 192.672 826.747 195.232 824.784C197.792 822.821 199.072 820.261 199.072 817.104C199.072 814.373 197.749 812.24 195.104 810.704C192.459 809.083 189.259 807.888 185.504 807.12C181.835 806.267 178.123 805.328 174.368 804.304C170.613 803.195 167.413 801.36 164.768 798.8C162.123 796.155 160.8 792.699 160.8 788.432C160.8 783.397 162.848 779.173 166.944 775.76C171.125 772.347 176.757 770.64 183.84 770.64C193.141 770.64 200.779 773.627 206.752 779.6L202.272 786.256C197.92 781.051 191.776 778.448 183.84 778.448C179.659 778.448 176.331 779.387 173.856 781.264C171.381 783.056 170.144 785.36 170.144 788.176C170.144 790.651 171.467 792.613 174.112 794.064C176.757 795.429 179.915 796.539 183.584 797.392C187.339 798.16 191.093 799.099 194.848 800.208C198.603 801.317 201.803 803.28 204.448 806.096C207.093 808.827 208.416 812.411 208.416 816.848C208.416 822.309 206.283 826.789 202.016 830.288C197.749 833.787 191.776 835.536 184.096 835.536ZM155.936 834H143.392L121.632 800.08H104.608V834H93.984V748.624H128.288C136.224 748.624 142.667 750.971 147.616 755.664C152.565 760.357 155.04 766.587 155.04 774.352C155.04 781.691 152.907 787.536 148.64 791.888C144.373 796.24 139.125 798.672 132.896 799.184L155.936 834ZM127.008 790.736C132.043 790.736 136.139 789.2 139.296 786.128C142.453 783.056 144.032 779.131 144.032 774.352C144.032 769.573 142.453 765.691 139.296 762.704C136.139 759.632 132.043 758.096 127.008 758.096H104.608V790.736H127.008Z" fill="#193F79"/>
<path d="M42.304 834L18.112 791.76V786.128H20.928C25.4507 786.128 29.248 785.701 32.32 784.848C35.4773 783.995 37.952 782.587 39.744 780.624C41.536 778.661 42.6027 775.973 42.944 772.56H18.112V764.368H42.816C42.2187 761.211 41.024 758.651 39.232 756.688C37.44 754.64 35.008 753.147 31.936 752.208C28.9493 751.269 25.28 750.8 20.928 750.8H18.112V742.608H71.104V750.8H46.912C48.8747 752.421 50.496 754.341 51.776 756.56C53.056 758.779 53.8667 761.381 54.208 764.368H71.104V772.56H54.464C53.8667 778.789 51.4773 783.653 47.296 787.152C43.2 790.565 37.7387 792.741 30.912 793.68L55.36 834H42.304Z" fill="#193F79"/>
<path d="M1135.91 476.544C1135.91 472.789 1136.85 469.205 1138.73 465.792C1140.69 462.379 1143.21 459.563 1146.28 457.344L1151.02 461.184C1148.97 462.549 1147.13 464.384 1145.51 466.688C1143.89 468.907 1142.99 471.04 1142.82 473.088H1143.46C1143.89 473.003 1144.23 472.96 1144.49 472.96C1146.28 472.96 1147.73 473.6 1148.84 474.88C1150.03 476.075 1150.63 477.611 1150.63 479.488C1150.63 481.365 1149.95 482.987 1148.58 484.352C1147.3 485.632 1145.73 486.272 1143.85 486.272C1141.63 486.272 1139.75 485.419 1138.22 483.712C1136.68 481.92 1135.91 479.531 1135.91 476.544ZM1156.39 476.544C1156.39 472.789 1157.33 469.205 1159.21 465.792C1161.17 462.379 1163.69 459.563 1166.76 457.344L1171.5 461.184C1169.45 462.549 1167.61 464.384 1165.99 466.688C1164.46 468.907 1163.56 471.04 1163.3 473.088H1163.94C1164.37 473.003 1164.71 472.96 1164.97 472.96C1166.76 472.96 1168.25 473.6 1169.45 474.88C1170.64 476.075 1171.24 477.611 1171.24 479.488C1171.24 481.365 1170.56 482.987 1169.19 484.352C1167.83 485.632 1166.21 486.272 1164.33 486.272C1162.11 486.272 1160.23 485.419 1158.7 483.712C1157.16 481.92 1156.39 479.531 1156.39 476.544Z" fill="#193F79"/>
<path d="M1155.53 414.928C1155.53 418.683 1154.55 422.267 1152.58 425.68C1150.62 429.179 1148.1 432.037 1145.03 434.256L1140.3 430.288C1142.43 428.923 1144.26 427.088 1145.8 424.784C1147.42 422.565 1148.36 420.432 1148.62 418.384C1148.27 418.555 1147.68 418.64 1146.82 418.64C1145.03 418.64 1143.54 418.043 1142.34 416.848C1141.23 415.568 1140.68 413.989 1140.68 412.112C1140.68 410.235 1141.32 408.613 1142.6 407.248C1143.97 405.883 1145.59 405.2 1147.46 405.2C1149.68 405.2 1151.56 406.096 1153.1 407.888C1154.72 409.595 1155.53 411.941 1155.53 414.928ZM1176.01 414.928C1176.01 418.683 1175.03 422.267 1173.06 425.68C1171.1 429.179 1168.63 432.037 1165.64 434.256L1160.9 430.288C1162.95 428.923 1164.74 427.088 1166.28 424.784C1167.9 422.565 1168.84 420.432 1169.1 418.384C1168.75 418.555 1168.2 418.64 1167.43 418.64C1165.64 418.64 1164.15 418.043 1162.95 416.848C1161.76 415.568 1161.16 413.989 1161.16 412.112C1161.16 410.235 1161.8 408.613 1163.08 407.248C1164.45 405.883 1166.07 405.2 1167.94 405.2C1170.16 405.2 1172.04 406.096 1173.58 407.888C1175.2 409.595 1176.01 411.941 1176.01 414.928Z" fill="#193F79"/>
<path d="M1219.21 507.568L1211.53 506.145L1223.17 484.742L1209.2 482.152L1197.69 503.579L1189.88 502.132L1201.53 480.729L1188.19 478.256L1191.49 471.969L1204.95 474.465L1217.62 450.908L1204.02 448.389L1207.18 442.204L1221.02 444.771L1232.56 423.218L1240.36 424.664L1228.82 446.217L1242.67 448.783L1254.21 427.23L1261.88 428.653L1250.22 450.183L1263.69 452.679L1260.66 458.887L1246.94 456.344L1234.15 479.877L1248.12 482.467L1244.95 488.778L1230.72 486.141L1219.21 507.568ZM1226.47 478.454L1239.14 454.898L1225.29 452.332L1212.63 475.888L1226.47 478.454Z" fill="#193F79"/>
<path d="M1285.73 520.039C1280.41 519.095 1276.08 516.095 1272.74 511.039C1269.4 505.982 1268.28 500.721 1269.37 495.256C1270.58 489.812 1273.63 485.371 1278.51 481.93C1283.47 478.441 1288.64 477.144 1294.03 478.039C1299.5 478.885 1303.88 481.8 1307.17 486.785C1310.5 491.842 1311.56 497.152 1310.32 502.716C1309.21 508.301 1306.17 512.839 1301.22 516.328C1296.34 519.769 1291.17 521.006 1285.73 520.039ZM1235.69 535.731L1231.88 529.963L1331.72 526.3L1335.59 532.176L1235.69 535.731ZM1272.6 583.754C1267.28 582.81 1262.95 579.809 1259.61 574.753C1256.27 569.696 1255.15 564.435 1256.24 558.97C1257.45 553.526 1260.5 549.085 1265.38 545.644C1270.33 542.155 1275.51 540.858 1280.9 541.753C1286.37 542.599 1290.74 545.514 1294.03 550.499C1297.37 555.556 1298.42 560.866 1297.19 566.43C1296.03 571.944 1292.97 576.446 1288.02 579.936C1283.13 583.376 1277.99 584.649 1272.6 583.754ZM1276.24 497.302C1275.33 500.869 1275.9 504.219 1277.97 507.353C1280.04 510.486 1282.87 512.299 1286.47 512.792C1290.13 513.236 1293.64 512.278 1296.99 509.919C1300.48 507.462 1302.65 504.414 1303.52 500.776C1304.51 497.16 1303.95 493.75 1301.83 490.545C1299.76 487.411 1296.92 485.658 1293.3 485.286C1289.75 484.865 1286.23 485.883 1282.74 488.34C1279.4 490.699 1277.23 493.686 1276.24 497.302ZM1263.04 560.91C1262.17 564.548 1262.77 567.933 1264.84 571.067C1266.91 574.2 1269.74 576.014 1273.34 576.506C1277 576.95 1280.51 575.992 1283.86 573.633C1287.34 571.176 1289.52 568.128 1290.39 564.49C1291.38 560.874 1290.81 557.464 1288.7 554.259C1286.58 551.054 1283.72 549.266 1280.1 548.893C1276.55 548.472 1273.03 549.49 1269.54 551.947C1266.19 554.306 1264.03 557.294 1263.04 560.91Z" fill="#193F79"/>
</g>
<defs>
<clipPath id="clip0_417_3593">
<rect width="1440" height="896" fill="white"/>
</clipPath>
</defs>
</svg>
