<svg width="1440" height="896" viewBox="0 0 1440 896" fill="none" xmlns="http://www.w3.org/2000/svg">
<g clip-path="url(#clip0_475_31583)">
<rect width="1440" height="896" fill="white"/>
<rect y="-348" width="1440" height="1431" fill="#193F79"/>
<path d="M1425 104H300.747C204.857 104 127.122 181.734 127.122 277.625V277.625C127.122 373.515 204.857 451.25 300.747 451.25H1139.88C1235.63 451.25 1313.26 528.873 1313.26 624.625V624.625C1313.26 720.377 1235.63 798 1139.88 798H647.628H-18" stroke="#528BC9" stroke-width="173" stroke-linecap="square" stroke-linejoin="round"/>
<rect x="1286.7" y="50.8066" width="125.393" height="112" rx="25" transform="rotate(-11.2789 1286.7 50.8066)" fill="white"/>
<rect x="981" y="48" width="143" height="112" rx="25" fill="white"/>
<rect x="820.551" y="61.8076" width="133.367" height="112" rx="25" transform="rotate(-8.69192 820.551 61.8076)" fill="white"/>
<rect x="674" y="48" width="136" height="112" rx="25" fill="white"/>
<rect x="369.74" y="27.916" width="143" height="112" rx="25" transform="rotate(16.6903 369.74 27.916)" fill="white"/>
<rect x="181.16" y="67.8057" width="135.728" height="112" rx="25" transform="rotate(-10.1015 181.16 67.8057)" fill="white"/>
<rect x="47" y="241.368" width="143" height="112" rx="25" transform="rotate(-50.5164 47 241.368)" fill="white"/>
<rect x="165.494" y="475.417" width="143" height="112" rx="25" transform="rotate(-125.231 165.494 475.417)" fill="white"/>
<rect x="411.178" y="496.076" width="143" height="112" rx="25" transform="rotate(172.634 411.178 496.076)" fill="white"/>
<rect x="564" y="501" width="143" height="112" rx="25" transform="rotate(180 564 501)" fill="white"/>
<rect x="720" y="508" width="143" height="112" rx="25" transform="rotate(180 720 508)" fill="white"/>
<rect x="893.504" y="488.023" width="143" height="112" rx="25" transform="rotate(164.686 893.504 488.023)" fill="white"/>
<rect x="1009.37" y="510.553" width="111.615" height="112" rx="25" transform="rotate(-176.164 1009.37 510.553)" fill="white"/>
<rect x="1154.24" y="496.926" width="123.255" height="112" rx="25" transform="rotate(177.92 1154.24 496.926)" fill="white"/>
<rect x="1268" y="551.836" width="126.768" height="112" rx="25" transform="rotate(-151.269 1268 551.836)" fill="white"/>
<rect x="1261" y="694" width="143" height="112" rx="25" transform="rotate(-90 1261 694)" fill="white"/>
<rect x="1160" y="756.172" width="127.761" height="112" rx="25" transform="rotate(-29.4252 1160 756.172)" fill="white"/>
<rect x="1019.27" y="727" width="143" height="112" rx="25" transform="rotate(6.28934 1019.27 727)" fill="white"/>
<rect x="850.061" y="748.566" width="143" height="112" rx="25" transform="rotate(-3.13396 850.061 748.566)" fill="white"/>
<rect x="701.617" y="733" width="143" height="112" rx="25" transform="rotate(7.49936 701.617 733)" fill="white"/>
<rect x="534" y="742" width="143" height="112" rx="25" fill="white"/>
<rect x="402" y="751.477" width="106.975" height="112" rx="25" transform="rotate(-7.77787 402 751.477)" fill="white"/>
<rect x="249" y="744" width="143" height="112" rx="25" fill="white"/>
<rect x="84" y="766.115" width="128.393" height="112" rx="25" transform="rotate(-19.6722 84 766.115)" fill="white"/>
<rect x="-57" y="744" width="135" height="112" rx="25" fill="white"/>
<rect x="510" y="67.5303" width="131.992" height="112" rx="25" transform="rotate(-14.393 510 67.5303)" fill="white"/>
<rect x="1160.38" y="32" width="129.659" height="112" rx="25" transform="rotate(14.68 1160.38 32)" fill="white"/>
<path d="M371.248 86.4003L391.11 92.3557L397.717 70.3208L403.614 72.0888L397.007 94.1237L416.87 100.079L415.257 105.458L395.394 99.5031L388.974 120.917L383.077 119.149L389.498 97.7351L369.635 91.7797L371.248 86.4003Z" fill="#193F79"/>
<path d="M429.205 103.687L474.827 117.366L473.214 122.746L427.592 109.067L429.205 103.687Z" fill="#193F79"/>
<path d="M538.806 95.6444L558.274 107.431L569.956 87.9896L574.79 90.9165L563.108 110.358L582.445 122.066L579.544 127.005L560.181 115.192L548.394 134.66L543.534 131.628L555.242 112.291L535.88 100.479L538.806 95.6444Z" fill="#193F79"/>
<path d="M612.881 120.252C611.679 119.584 610.915 118.585 610.588 117.257C610.262 115.928 610.468 114.655 611.206 113.435C611.961 112.286 613.003 111.548 614.332 111.221C615.66 110.895 616.891 111.074 618.023 111.76C619.173 112.515 619.911 113.557 620.237 114.886C620.563 116.214 620.384 117.445 619.698 118.577C619.03 119.779 618.032 120.544 616.703 120.87C615.305 121.214 614.031 121.008 612.881 120.252ZM586.168 99.3471L633.679 87.6716L635.019 93.1253L587.509 104.801L586.168 99.3471ZM603.036 80.1883C601.833 79.5199 601.069 78.5214 600.743 77.193C600.416 75.8645 600.622 74.5905 601.36 73.3711C602.116 72.2216 603.158 71.4836 604.486 71.1571C605.815 70.8307 607.045 71.0102 608.177 71.6958C609.327 72.4513 610.065 73.4933 610.391 74.8218C610.718 76.1503 610.538 77.3807 609.853 78.513C609.184 79.7152 608.186 80.4796 606.857 80.8061C605.529 81.1325 604.255 80.9266 603.036 80.1883Z" fill="#193F79"/>
<path d="M689.24 113.632L736.868 113.632L736.868 119.356L689.24 119.356L689.24 113.632ZM689.24 92.788L736.868 92.788L736.868 98.404L689.24 98.404L689.24 92.788Z" fill="#193F79"/>
<path d="M794.868 92.788L794.868 99.16C791.484 96.784 787.524 95.596 782.988 95.596C779.676 95.596 775.932 96.64 771.756 98.728C767.508 100.816 763.332 101.86 759.228 101.86C754.908 101.86 750.912 100.888 747.24 98.944L747.24 92.572C750.768 95.02 754.764 96.244 759.228 96.244C762.612 96.244 766.392 95.164 770.568 93.004C774.744 90.916 778.884 89.872 782.988 89.872C787.524 89.872 791.484 90.844 794.868 92.788ZM794.868 113.2L794.868 119.464C791.34 117.088 787.38 115.9 782.988 115.9C779.676 115.9 775.932 116.944 771.756 119.032C767.508 121.192 763.332 122.272 759.228 122.272C754.908 122.272 750.912 121.3 747.24 119.356L747.24 112.984C750.624 115.36 754.62 116.548 759.228 116.548C762.612 116.548 766.392 115.504 770.568 113.416C774.744 111.328 778.884 110.284 782.988 110.284C787.38 110.284 791.34 111.256 794.868 113.2Z" fill="#193F79"/>
<path d="M878.974 82.5696L884.708 81.5058L879.069 95.5135L891.28 93.248L892.305 98.7698L876.589 101.685L869.81 118.431L895.082 113.742L896.126 119.37L867.243 124.729L861.69 138.61L855.85 139.694L861.509 125.792L849.297 128.058L848.253 122.43L863.969 119.514L870.748 102.769L845.476 107.457L844.451 101.936L873.334 96.5773L878.974 82.5696Z" fill="#193F79"/>
<path d="M941.217 94.3786L920.829 98.161L925.045 120.885L918.992 122.008L914.776 99.2839L894.388 103.066L893.364 97.5445L913.752 93.7621L909.674 71.7811L915.727 70.6583L919.805 92.6392L940.193 88.8568L941.217 94.3786ZM947.6 128.784L900.771 137.471L899.747 131.949L946.576 123.262L947.6 128.784Z" fill="#193F79"/>
<path d="M1107.76 127.308L1060.13 103.764L1060.13 98.04L1107.76 74.388L1107.76 81.192L1067.04 100.956L1107.76 120.612L1107.76 127.308ZM1107.76 138L1060.13 138L1060.13 132.384L1107.76 132.384L1107.76 138Z" fill="#193F79"/>
<path d="M1044.65 103.764L997.024 127.308L997.024 120.612L1037.74 100.956L997.024 81.192L997.024 74.388L1044.65 98.04L1044.65 103.764ZM1044.65 138L997.024 138L997.024 132.384L1044.65 132.384L1044.65 138Z" fill="#193F79"/>
<path d="M1208.79 90.0277L1202.06 115.728L1196.31 114.223L1201.59 94.0595L1161.26 83.4949L1162.72 77.9578L1208.79 90.0277Z" fill="#193F79"/>
<path d="M1231.1 71.0334L1236.84 72.5387L1217.49 146.402L1211.75 144.897L1231.1 71.0334Z" fill="#193F79"/>
<path d="M1258.18 78.1291L1263.93 79.6344L1255.28 112.648L1249.53 111.143L1258.18 78.1291ZM1247.48 118.979L1253.23 120.484L1244.58 153.498L1238.83 151.993L1247.48 118.979Z" fill="#193F79"/>
<path d="M1357.7 112.964L1351.14 114.274L1330.94 87.5755L1322.54 119.977L1315.97 121.287L1326.82 82.3416L1332.85 81.1376L1357.7 112.964Z" fill="#193F79"/>
<path d="M1365.46 102.435L1359.38 102.877C1359.02 99.2053 1358.85 95.9716 1358.88 93.1758C1358.84 90.3941 1359.09 87.6266 1359.65 84.8734C1360.2 82.1203 1361.26 79.8898 1362.83 78.1821C1364.4 76.4744 1366.45 75.3671 1368.99 74.8601C1371.46 74.3672 1373.65 74.6296 1375.54 75.6473C1377.44 76.7356 1379.02 78.1838 1380.26 79.9919C1381.43 81.8141 1382.56 83.6433 1383.66 85.4795C1384.69 87.3298 1385.84 88.8272 1387.09 89.9716C1388.36 91.1867 1389.74 91.6463 1391.22 91.3506C1395.67 90.4634 1397.22 83.1429 1395.87 69.3889L1401.95 68.9474C1402.3 72.5483 1402.46 75.7466 1402.43 78.5425C1402.42 81.4089 1402.13 84.2187 1401.58 86.9719C1401.03 89.725 1399.97 91.9555 1398.4 93.6632C1396.83 95.3709 1394.81 96.4712 1392.34 96.9641C1389.87 97.4569 1387.68 97.1592 1385.78 96.0709C1383.81 95.0673 1382.24 93.6191 1381.06 91.7264C1379.81 89.9183 1378.68 88.0891 1377.65 86.2387C1376.62 84.3884 1375.47 82.8557 1374.2 81.6407C1372.94 80.4963 1371.57 80.0719 1370.09 80.3676C1365.5 81.283 1363.96 88.6388 1365.46 102.435Z" fill="#193F79"/>
<path d="M299.245 144.107L297.014 144.511L273.8 112.053L284.188 73.6259L286.42 73.2221L309.614 105.573L299.245 144.107ZM297.394 139.942L305.788 106.266L286.039 77.7909L277.626 111.361L297.394 139.942Z" fill="#193F79"/>
<path d="M227.596 77.3832L233.734 76.1315L253.802 108.073L269.027 98.2464L271.897 103.171L251.623 116.011L232.065 85.0673L218.565 152.727L212.321 154L227.596 77.3832Z" fill="#193F79"/>
<path d="M144.092 162.05L150.125 159.405L152.356 164.91L146.323 167.555C144.542 168.336 143.337 169.768 142.706 171.853C142.009 173.966 142.12 176.157 143.04 178.425L167.298 238.28C168.921 242.284 169.012 246.055 167.573 249.594C166.095 253.229 163.708 255.769 160.411 257.214L154.278 259.903L152.047 254.398L158.18 251.709C159.96 250.929 161.198 249.482 161.895 247.369C162.553 245.351 162.409 243.175 161.462 240.839L137.164 180.884C135.568 176.947 135.523 173.195 137.028 169.627C138.44 166.022 140.795 163.496 144.092 162.05Z" fill="#193F79"/>
<path d="M117.193 216.168L102.917 197.175L109.23 192.1L152.512 249.684L146.199 254.759L125.564 227.305C120.719 220.859 115.21 220.117 109.037 225.079C106.736 226.929 104.967 229.366 103.731 232.392C102.494 235.417 101.929 238.318 102.035 241.095L125.071 271.743L118.758 276.818L94.7488 244.875C92.2397 241.537 89.6664 240.928 87.029 243.048C86.4117 243.544 85.9219 244.031 85.5594 244.507L80.8365 239.301C81.898 238.078 82.9338 237.061 83.9439 236.249C88.8821 232.279 93.6603 232.408 98.2786 236.636C98.1931 233.289 98.7599 229.971 99.9792 226.682C101.242 223.451 103.107 220.844 105.577 218.859C109.785 215.475 113.657 214.579 117.193 216.168Z" fill="#193F79"/>
<path d="M119.897 380.03C115.963 373.322 114.988 366.68 116.973 360.102C119.057 353.551 123.39 348.417 129.973 344.699C136.493 341.017 143.076 339.862 149.723 341.234C156.432 342.571 161.535 346.22 165.032 352.183C168.637 358.331 168.89 364.596 165.789 370.978C168.896 366.742 171.241 361.491 172.824 355.223C174.406 348.955 174.955 342.279 174.472 335.193L181.857 337.967C182.325 347.873 180.552 357.514 176.537 366.892C172.559 376.331 166.213 383.512 157.498 388.434C150.289 392.505 143.212 393.815 136.268 392.363C129.324 390.911 123.867 386.8 119.897 380.03ZM124.64 362.717C122.983 367.291 123.502 371.876 126.197 376.471C128.893 381.067 132.622 383.798 137.385 384.663C142.212 385.492 147.007 384.561 151.772 381.871C156.411 379.25 159.577 375.685 161.271 371.173C162.965 366.661 162.464 362.107 159.769 357.511C157.074 352.915 153.295 350.171 148.432 349.28C143.606 348.45 138.873 349.346 134.234 351.966C129.532 354.621 126.334 358.205 124.64 362.717Z" fill="#193F79"/>
<path d="M171.778 437.851L180.311 397.851L221.794 395.153L196.8 364.39L202.853 359.171L234.657 398.316L228.605 403.535L187.272 406.247L178.724 446.401L172.672 451.62L140.936 412.559L146.988 407.34L171.778 437.851Z" fill="#193F79"/>
<path d="M334.169 491.48L326.102 492.523L315.449 426.442L290.276 429.696L300.929 495.777L292.863 496.819L282.21 430.739L271.616 432.108L270.462 424.948L332.956 416.87L334.11 424.03L323.516 425.399L334.169 491.48Z" fill="#193F79"/>
<path d="M389.765 478.465L382.552 479.876L374.709 439.769L350.472 444.509L358.315 484.615L351.101 486.026L343.259 445.919L335.565 447.424L334.323 441.076L388.376 430.507L389.617 436.854L381.923 438.359L389.765 478.465Z" fill="#193F79"/>
<path d="M433.703 459.748H446.933C436.937 453.737 431.939 444.787 431.939 432.896C431.939 423.423 434.945 415.681 440.955 409.67C446.966 403.594 454.773 400.556 464.377 400.556C474.047 400.556 481.854 403.594 487.799 409.67C493.81 415.681 496.815 423.423 496.815 432.896C496.815 444.787 491.883 453.737 482.017 459.748H495.149V467H471.629V459.748C476.268 458.572 480.221 455.73 483.487 451.222C486.754 446.714 488.387 441.063 488.387 434.268C488.387 426.755 486.264 420.483 482.017 415.452C477.771 410.421 471.891 407.906 464.377 407.906C456.864 407.906 450.984 410.421 446.737 415.452C442.491 420.483 440.367 426.755 440.367 434.268C440.367 441.063 442.001 446.714 445.267 451.222C448.599 455.73 452.585 458.572 457.223 459.748V467H433.703V459.748Z" fill="#193F79"/>
<path d="M555.543 484H492.823L519.087 418.634H529.181L555.543 484ZM543.881 476.748L524.183 427.062L504.485 476.748H543.881Z" fill="#193F79"/>
<path d="M603.768 467.804H597.072L595.344 415.964H605.496L603.768 467.804ZM604.524 487.352C603.372 488.504 602.004 489.08 600.42 489.08C598.836 489.08 597.432 488.504 596.208 487.352C595.056 486.128 594.48 484.724 594.48 483.14C594.48 481.484 595.056 480.08 596.208 478.928C597.36 477.776 598.764 477.2 600.42 477.2C602.076 477.2 603.48 477.776 604.632 478.928C605.784 480.08 606.36 481.484 606.36 483.14C606.36 484.724 605.748 486.128 604.524 487.352Z" fill="#193F79"/>
<path d="M637.924 468.02C635.116 465.644 633.712 462.728 633.712 459.272C633.712 457.112 634.18 455.132 635.116 453.332C636.124 451.532 637.348 450.056 638.788 448.904C640.228 447.752 641.776 446.564 643.432 445.34C645.16 444.044 646.744 442.856 648.184 441.776C649.624 440.696 650.812 439.4 651.748 437.888C652.756 436.376 653.26 434.72 653.26 432.92C653.26 430.04 652.144 427.664 649.912 425.792C647.752 423.848 644.62 422.876 640.516 422.876C633.532 422.876 627.808 425.828 623.344 431.732L617.944 425.9C623.632 418.556 631.444 414.884 641.38 414.884C647.788 414.884 652.9 416.504 656.716 419.744C660.604 422.912 662.548 426.872 662.548 431.624C662.548 435.296 661.432 438.572 659.2 441.452C657.04 444.26 654.664 446.42 652.072 447.932C649.48 449.444 647.068 451.244 644.836 453.332C642.676 455.42 641.596 457.616 641.596 459.92C641.596 461.936 642.568 463.7 644.512 465.212L637.924 468.02ZM644.296 487.352C643.144 488.504 641.776 489.08 640.192 489.08C638.608 489.08 637.204 488.504 635.98 487.352C634.828 486.2 634.252 484.796 634.252 483.14C634.252 481.484 634.828 480.08 635.98 478.928C637.204 477.776 638.608 477.2 640.192 477.2C641.776 477.2 643.144 477.776 644.296 478.928C645.52 480.08 646.132 481.484 646.132 483.14C646.132 484.796 645.52 486.2 644.296 487.352Z" fill="#193F79"/>
<path d="M678.824 417.908C677.456 418.196 676.088 418.592 674.72 419.096C673.352 419.6 671.912 420.248 670.4 421.04L667.16 414.884C670.616 413.228 673.964 411.968 677.204 411.104C680.444 410.24 683.936 409.808 687.68 409.808C694.52 409.808 699.884 411.464 703.772 414.776C707.66 418.016 709.604 422.624 709.604 428.6C709.604 431.84 709.136 434.648 708.2 437.024C707.264 439.328 705.824 441.488 703.88 443.504C702.008 445.448 699.632 447.464 696.752 449.552C695.168 450.704 693.764 451.928 692.54 453.224C691.388 454.448 690.488 455.96 689.84 457.76C689.192 459.56 688.868 461.9 688.868 464.78V466.076H680.876L678.824 417.908ZM684.764 489.188C682.892 489.188 681.38 488.648 680.228 487.568C679.148 486.488 678.608 484.832 678.608 482.6C678.608 480.296 679.148 478.64 680.228 477.632C681.38 476.552 682.892 476.012 684.764 476.012C686.636 476.012 688.112 476.552 689.192 477.632C690.344 478.64 690.92 480.296 690.92 482.6C690.92 484.832 690.344 486.488 689.192 487.568C688.112 488.648 686.636 489.188 684.764 489.188ZM687.464 449.336C687.968 448.544 688.58 447.788 689.3 447.068C690.02 446.276 690.848 445.484 691.784 444.692C694.664 442.46 696.752 440.516 698.048 438.86C699.416 437.132 700.28 435.476 700.64 433.892C701.072 432.236 701.288 430.472 701.288 428.6C701.288 424.784 700.064 421.868 697.616 419.852C695.24 417.836 692.144 416.72 688.328 416.504L687.464 449.336Z" fill="#193F79"/>
<path d="M766.753 503.083L754.41 452.707L760.861 450.911L776.429 500.389L766.753 503.083ZM750.594 442.223C749.156 441.352 748.225 440.154 747.8 438.628C747.375 437.102 747.563 435.63 748.364 434.211C749.215 432.704 750.403 431.738 751.929 431.313C753.455 430.888 754.937 431.111 756.375 431.981C757.863 432.762 758.82 433.916 759.245 435.442C759.67 436.968 759.491 438.475 758.71 439.963C757.909 441.382 756.711 442.313 755.115 442.758C753.52 443.202 752.013 443.023 750.594 442.223Z" fill="#193F79"/>
<path d="M799.076 438.931C802.457 440.606 804.601 443.073 805.509 446.333C806.185 448.761 806.134 451.129 805.357 453.438C804.649 455.728 803.552 457.827 802.065 459.735C800.629 461.555 799.148 463.35 797.623 465.12C796.167 466.871 795.022 468.797 794.186 470.898C793.401 472.91 793.289 474.922 793.849 476.933C794.602 479.638 796.27 481.603 798.853 482.827C801.524 484.101 804.802 484.198 808.687 483.116C815.554 481.205 820.32 476.851 822.987 470.054L829.621 474.149C826.18 482.73 819.674 488.353 810.102 491.018C803.929 492.737 798.535 492.557 793.92 490.478C789.394 488.45 786.494 485.147 785.22 480.569C784.409 477.656 784.378 474.861 785.128 472.186C785.859 469.442 786.993 467.071 788.529 465.073C790.066 463.076 791.622 461.148 793.197 459.29C794.842 457.412 796.135 455.482 797.079 453.501C798.022 451.519 798.232 449.592 797.711 447.719C797.17 445.777 795.805 444.363 793.616 443.478L799.076 438.931ZM787.724 421.912C788.575 420.405 789.763 419.439 791.289 419.014C792.815 418.589 794.297 418.812 795.735 419.682C797.223 420.463 798.189 421.652 798.634 423.247C799.058 424.773 798.836 426.255 797.965 427.693C797.165 429.112 796.001 430.034 794.475 430.459C792.949 430.883 791.442 430.705 789.954 429.923C788.535 429.123 787.614 427.959 787.189 426.433C786.745 424.838 786.923 423.331 787.724 421.912Z" fill="#193F79"/>
<path d="M863.268 466.83C864.489 466.117 865.692 465.334 866.874 464.481C868.057 463.629 869.28 462.653 870.544 461.554L875.316 466.615C872.431 469.138 869.543 471.249 866.654 472.951C863.833 474.633 860.585 475.985 856.909 477.009C850.389 478.824 844.787 478.702 840.103 476.643C835.469 474.495 832.351 470.542 830.748 464.785C829.879 461.664 829.587 458.868 829.87 456.397C830.135 453.857 830.908 451.4 832.19 449.025C833.522 446.562 835.296 443.938 837.51 441.154C838.708 439.55 839.697 438.004 840.479 436.516C841.33 435.008 841.826 433.301 841.967 431.393C842.09 429.416 841.774 427.075 841.021 424.369L840.674 423.121L848.373 420.977L863.268 466.83ZM838.429 399.755C840.232 399.253 841.799 399.377 843.129 400.128C844.528 400.86 845.527 402.3 846.126 404.451C846.725 406.601 846.614 408.351 845.794 409.7C845.043 411.03 843.766 411.946 841.962 412.448C840.159 412.95 838.557 412.836 837.158 412.104C835.828 411.353 834.864 409.903 834.265 407.753C833.666 405.602 833.742 403.862 834.493 402.532C835.313 401.183 836.625 400.257 838.429 399.755ZM846.516 438.871C846.223 439.7 845.836 440.592 845.355 441.548C844.943 442.485 844.358 443.47 843.6 444.504C841.493 447.407 840.013 449.874 839.158 451.906C838.284 453.868 837.852 455.67 837.86 457.312C837.938 458.935 838.238 460.682 838.76 462.555C839.764 466.162 841.69 468.652 844.539 470.027C847.438 471.312 850.755 471.547 854.489 470.732L846.516 438.871Z" fill="#193F79"/>
<path d="M954.816 445.078L946.737 444.489L930.917 423.844L949.541 406.035L957.62 406.624L938.995 424.433L954.816 445.078Z" fill="#193F79"/>
<path d="M990.14 428.162L971.492 446.294L963.413 445.705L982.061 427.573L966.217 407.251L974.296 407.84L990.14 428.162Z" fill="#193F79"/>
<path d="M947.661 493.209L939.582 492.62L923.762 471.975L942.386 454.166L950.465 454.755L931.84 472.564L947.661 493.209ZM932.15 492.078L924.071 491.489L908.251 470.844L926.875 453.035L934.954 453.624L916.329 471.433L932.15 492.078Z" fill="#193F79"/>
<path d="M985.427 476.471L966.779 494.603L958.7 494.014L977.348 475.882L961.504 455.56L969.583 456.149L985.427 476.471ZM1000.94 477.602L982.29 495.734L974.211 495.145L992.859 477.013L977.015 456.691L985.094 457.28L1000.94 477.602Z" fill="#193F79"/>
<path d="M1061.29 403.608H1072.81L1052.2 436.632H1044.78L1061.29 403.608Z" fill="#193F79"/>
<path d="M1126.82 403.608H1138.34L1117.73 436.632H1110.31L1126.82 403.608ZM1104.29 403.608H1115.81L1095.2 436.632H1087.78L1104.29 403.608Z" fill="#193F79"/>
<path d="M1069.37 486.264H1064.64C1062.33 468.771 1061.18 459.427 1061.18 458.232C1061.18 456.611 1061.73 455.245 1062.84 454.136C1063.95 452.941 1065.32 452.344 1066.94 452.344C1068.56 452.344 1069.93 452.941 1071.04 454.136C1072.23 455.245 1072.83 456.611 1072.83 458.232L1069.37 486.264ZM1092.31 486.264H1087.58C1085.27 468.771 1084.12 459.427 1084.12 458.232C1084.12 456.611 1084.67 455.245 1085.78 454.136C1086.89 452.941 1088.26 452.344 1089.88 452.344C1091.5 452.344 1092.87 452.941 1093.98 454.136C1095.17 455.245 1095.77 456.611 1095.77 458.232L1092.31 486.264ZM1110.87 486.264H1106.14C1103.83 468.771 1102.68 459.427 1102.68 458.232C1102.68 456.611 1103.23 455.245 1104.34 454.136C1105.54 452.941 1106.95 452.344 1108.57 452.344C1110.19 452.344 1111.55 452.941 1112.66 454.136C1113.77 455.245 1114.33 456.611 1114.33 458.232L1110.87 486.264Z" fill="#193F79"/>
<path d="M1366.17 657.323L1356.57 657.881C1356.56 668.267 1353.24 676.717 1346.6 683.233L1339.52 678.343C1345.12 672.753 1348.15 666.086 1348.6 658.344L1322.29 659.871C1321.72 662.645 1321.19 664.911 1320.71 666.67C1320.23 668.357 1319.5 670.346 1318.55 672.637C1317.52 674.932 1316.39 676.765 1315.17 678.134C1313.95 679.503 1312.35 680.714 1310.39 681.765C1308.43 682.745 1306.15 683.309 1303.56 683.46C1298.03 683.781 1293.31 681.963 1289.42 678.006C1285.53 674.049 1283.22 668.774 1282.5 662.18L1272.58 662.756L1272.23 656.178L1282.25 655.596C1282.64 646.847 1285.53 639.575 1290.91 633.782L1297.78 638.792C1293.48 643.297 1291.04 648.739 1290.45 655.12L1313.84 653.762C1314.59 650.329 1315.38 647.471 1316.19 645.188C1316.93 642.909 1318.06 640.499 1319.58 637.959C1321.03 635.351 1322.97 633.363 1325.42 631.995C1327.8 630.63 1330.64 629.852 1333.95 629.661C1339.41 629.343 1344.26 630.937 1348.48 634.442C1352.64 637.951 1355.22 643.571 1356.22 651.302L1365.81 650.745L1366.17 657.323ZM1335.21 638.891C1331.97 639.079 1329.52 640.411 1327.85 642.888C1326.18 645.293 1324.82 648.726 1323.76 653.186L1348.24 651.765C1347.48 647.122 1345.86 643.79 1343.37 641.771C1340.87 639.68 1338.15 638.72 1335.21 638.891ZM1302.52 674.217C1305.25 674.058 1307.34 672.819 1308.8 670.498C1310.19 668.182 1311.42 664.829 1312.48 660.44L1290.48 661.717C1290.98 665.583 1292.34 668.677 1294.56 671.001C1296.7 673.328 1299.35 674.4 1302.52 674.217Z" fill="#193F79"/>
<path d="M1280.52 794.095L1276.04 785.346C1269.82 787.729 1263.77 787.685 1257.9 785.215C1252.06 782.647 1247.5 778.158 1244.22 771.749C1241 765.468 1240.04 759.157 1241.32 752.816C1242.63 746.377 1245.99 741.164 1251.39 737.18L1247.8 730.161L1253.4 727.13L1256.89 733.956C1263.11 731.248 1269.35 731.27 1275.61 734.022L1273.12 741.014C1268.82 738.923 1264.51 738.717 1260.19 740.397L1278.45 776.065C1282.24 773.523 1284.51 769.754 1285.27 764.761L1292.29 766.614C1291.07 773.408 1287.56 778.706 1281.74 782.507L1286.12 791.064L1280.52 794.095ZM1251.63 767.741C1253.92 772.227 1256.97 775.491 1260.76 777.531C1264.55 779.571 1268.53 779.997 1272.69 778.809L1254.78 743.813C1251.47 746.668 1249.56 750.28 1249.05 754.649C1248.5 758.954 1249.36 763.318 1251.63 767.741Z" fill="#193F79"/>
<path d="M1205.17 806.036L1202.41 800.899L1212.32 795.169C1209.48 794.149 1207.5 793.425 1206.37 792.997C1205.27 792.47 1203.73 791.444 1201.77 789.92C1199.77 788.332 1198.19 786.46 1197.03 784.304C1194.24 779.104 1193.92 773.508 1196.09 767.515C1198.23 761.459 1202.16 756.773 1207.9 753.457C1212.14 751.006 1216.42 749.777 1220.75 749.769C1225.04 749.698 1228.96 750.838 1232.51 753.19L1228.3 760.616C1226.26 758.965 1223.75 758.009 1220.75 757.749C1217.81 757.452 1214.97 758.097 1212.23 759.683C1208.55 761.809 1206 764.739 1204.57 768.472C1203.15 772.205 1203.43 775.91 1205.41 779.588C1206.29 781.236 1207.43 782.659 1208.81 783.857C1210.18 785.054 1211.35 785.921 1212.29 786.457C1213.29 786.957 1214.84 787.639 1216.94 788.504C1219.01 789.305 1220.36 789.851 1221.01 790.142L1235.04 782.033L1237.8 787.169L1226.39 793.764C1227.61 794.97 1228.56 796.207 1229.25 797.476C1231.91 802.421 1231.79 807.976 1228.89 814.139C1230.15 812.667 1231.61 811.445 1233.3 810.472C1235.35 809.283 1238.08 808.579 1241.48 808.361C1244.9 808.043 1247.49 807.38 1249.23 806.371C1251.16 805.253 1252.73 803.846 1253.95 802.148C1255.12 800.387 1255.83 798.814 1256.07 797.431L1262.86 801.857C1261.41 806.603 1258 810.526 1252.64 813.625C1249.71 815.319 1246.36 816.302 1242.58 816.573C1238.81 816.845 1235.8 817.629 1233.55 818.927C1230.94 820.44 1227.94 823.835 1224.57 829.11L1218.59 824.835C1221.59 820.69 1223.48 816.768 1224.27 813.07C1225.09 809.272 1224.73 805.946 1223.2 803.093C1222.17 801.191 1220.68 799.559 1218.73 798.197L1205.17 806.036Z" fill="#193F79"/>
<path d="M1108.71 835.75C1100.05 834.795 1092.73 831.562 1086.75 826.049C1080.84 820.472 1077.3 813.491 1076.13 805.103L1070.44 804.476L1071.05 798.894L1075.67 799.403C1075.75 797.383 1075.85 795.801 1075.98 794.656C1076.1 793.511 1076.35 791.872 1076.73 789.741L1072.12 789.233L1072.73 783.65L1078.42 784.277C1081.45 776.499 1086.45 770.567 1093.42 766.481C1100.47 762.333 1108.29 760.732 1116.88 761.678C1128.33 762.94 1136.86 768.661 1142.48 778.842L1134.5 782.2C1132.76 778.894 1130.25 776.082 1126.95 773.763C1123.66 771.444 1120.01 770.064 1116 769.622C1109.92 768.952 1104.37 770.042 1099.34 772.893C1094.32 775.744 1090.53 779.89 1087.98 785.33L1120.5 788.915L1119.89 794.497L1086.07 790.771C1085.68 792.393 1085.39 794.027 1085.21 795.673C1085.03 797.319 1084.96 798.906 1085.01 800.432L1118.82 804.159L1118.21 809.741L1085.68 806.156C1086.91 812.087 1089.66 817.026 1093.94 820.974C1098.29 824.858 1103.51 827.135 1109.59 827.806C1113.6 828.247 1117.46 827.731 1121.17 826.257C1124.89 824.711 1127.96 822.478 1130.38 819.558L1137.54 824.585C1129.56 833.266 1119.95 836.988 1108.71 835.75Z" fill="#193F79"/>
<path d="M1036.98 828.942L1027.96 827.948L1042.75 784.486L1035.45 783.682L1036.25 776.382L1045.06 777.352L1052.41 755.997C1054.03 751.105 1056.69 747.414 1060.37 744.922C1064.05 742.358 1068.22 741.333 1072.87 741.846C1077.1 742.311 1080.32 743.97 1082.54 746.822L1077.85 752.933C1076.74 751.145 1075.04 750.125 1072.75 749.872C1070.17 749.588 1067.82 750.235 1065.69 751.811C1063.57 753.315 1061.98 755.567 1060.93 758.565L1054.18 778.358L1069.1 780.002L1068.3 787.302L1051.77 785.48L1036.98 828.942Z" fill="#193F79"/>
<path d="M962.543 839.553L953.592 840.043L952.872 826.887L925.912 828.363L925.6 822.647L952.559 821.171L951.927 809.632L924.968 811.109L924.661 805.501L947.738 804.237L921.293 769.667L931.753 769.095L955.906 801.302L976.398 766.65L986.858 766.078L964.345 803.328L987.531 802.059L987.838 807.666L960.878 809.142L961.51 820.681L988.469 819.205L988.782 824.92L961.823 826.396L962.543 839.553Z" fill="#193F79"/>
<path d="M899.134 840.318C898.846 840.333 898.413 840.321 897.834 840.281C897.331 840.308 896.971 840.328 896.755 840.34L894.046 850.114L888.654 850.41L891.544 839.976C888.277 839.578 885.392 838.907 882.889 837.962L879.38 850.917L873.988 851.213L878.224 835.73C872.942 832.774 868.678 828.645 865.431 823.343C862.256 818.036 860.482 811.968 860.108 805.139C859.51 794.211 862.544 785.103 869.212 777.816C875.947 770.453 884.563 766.484 895.06 765.909C895.347 765.893 895.745 765.908 896.252 765.952C896.755 765.924 897.15 765.903 897.438 765.887L900.136 755.897L905.528 755.601L902.65 766.251C905.561 766.74 908.35 767.633 911.017 768.929L914.802 755.094L920.194 754.798L915.592 771.491C918.138 773.226 920.648 775.613 923.122 778.65L915.804 783.269C914.874 782.094 913.992 781.133 913.158 780.385L899.02 832.32C902.97 832.031 906.62 830.858 909.968 828.8C913.313 826.67 915.943 824.002 917.859 820.797L925.745 824.583C919.291 834.455 910.421 839.7 899.134 840.318ZM869.382 804.631C869.918 814.408 873.68 821.882 880.669 827.051L895.173 773.907C887.273 774.484 880.884 777.646 876.007 783.393C871.126 789.068 868.918 796.147 869.382 804.631ZM885.256 829.829C887.843 830.985 890.626 831.77 893.605 832.184L908.764 777.165C906.085 775.653 903.326 774.65 900.487 774.157L885.256 829.829Z" fill="#193F79"/>
<path d="M778.182 836.881L769.295 835.711L771.226 821.041L762.874 819.942L763.55 814.802L771.902 815.902L778.696 764.291L825.489 770.451L824.446 778.374L786.541 773.385L783.51 796.406L820.666 801.297L819.623 809.221L782.467 804.33L780.79 817.072L802.419 819.919L801.743 825.059L780.113 822.211L778.182 836.881Z" fill="#193F79"/>
<path d="M711.01 792.309L711.659 787.383L718.512 788.285C716.474 784.459 715.722 780.511 716.258 776.442C717.029 770.588 720.037 765.937 725.284 762.489C730.541 758.969 736.453 757.641 743.02 758.505C747.874 759.144 752.052 760.784 755.553 763.423C759.064 765.991 761.57 769.299 763.071 773.345L755.333 776.684C754.653 774.125 753.176 771.825 750.903 769.783C748.702 767.75 746.031 766.527 742.89 766.113C738.678 765.559 734.909 766.334 731.582 768.437C728.255 770.541 726.319 773.663 725.774 777.803C725.276 781.587 726.174 785.518 728.47 789.596L749.028 792.303L748.38 797.228L731.783 795.043C733.496 798.028 734.452 800.696 734.651 803.046L747.393 804.723L746.745 809.649L734.324 808.014C733.319 812.892 730.083 816.787 724.616 819.699C726.485 819.291 728.383 819.214 730.311 819.468C732.666 819.778 735.28 820.885 738.152 822.788C741.105 824.629 743.581 825.681 745.58 825.944C747.793 826.236 749.884 826.075 751.853 825.463C753.831 824.779 755.319 823.958 756.316 823L759.226 830.682C755.287 833.576 750.248 834.62 744.109 833.812C740.754 833.37 737.471 832.103 734.261 830.01C731.05 827.917 728.16 826.701 725.59 826.363C722.592 825.968 718.193 826.841 712.392 828.983L710.053 821.921C714.894 820.452 718.712 818.486 721.505 816.021C724.38 813.495 726.028 810.625 726.451 807.413L726.507 806.985L709.375 804.73L710.024 799.804L726.085 801.918C725.649 800.263 724.229 797.535 721.825 793.732L711.01 792.309Z" fill="#193F79"/>
<path d="M632.68 835.54C630.808 835.54 629.116 835.468 627.604 835.324C626.092 835.252 624.796 835.144 623.716 835V799.792L612.16 803.788V796.768L623.716 792.88V784.348L612.16 788.236V781.216L623.716 777.328V757.888H633.004V774.088L655.252 766.42V773.44L633.004 781.108V789.64L655.252 781.972V788.884L633.004 796.66V827.332C639.556 827.332 644.74 826 648.556 823.336C652.372 820.6 655.108 816.964 656.764 812.428C658.42 807.892 659.248 802.816 659.248 797.2H668.536C668.536 802.168 667.888 806.956 666.592 811.564C665.368 816.172 663.316 820.276 660.436 823.876C657.628 827.476 653.956 830.32 649.42 832.408C644.884 834.496 639.304 835.54 632.68 835.54Z" fill="#193F79"/>
<path d="M496.808 829.939L488.247 831.109L465.785 807.907L443.1 811.006L446.622 836.794L437.74 838.007L434.218 812.219L425.871 813.359L425.17 808.222L433.516 807.082L432.128 796.917L423.781 798.057L423.08 792.921L431.426 791.78L427.992 766.634L437.087 765.392L459.034 788.01L481.612 784.926L478.178 759.779L487.059 758.566L490.494 783.712L498.84 782.572L499.542 787.709L491.195 788.849L492.584 799.014L500.93 797.874L501.632 803.011L493.286 804.151L496.808 829.939ZM441.009 795.704L442.398 805.869L461.338 803.282L452.566 794.125L441.009 795.704ZM463.481 792.634L472.36 801.777L483.702 800.228L482.314 790.062L463.481 792.634ZM438.846 779.867L440.308 790.567L448.119 789.5L438.846 779.867ZM476.914 806.387L485.793 815.529L484.404 805.364L476.914 806.387Z" fill="#193F79"/>
<path d="M609.58 784.588H601.804C601.156 790.06 598.852 794.56 594.892 798.088C590.932 801.616 585.784 803.38 579.448 803.38H559.468V832H550.504V784.588H542.08V778.972H550.504V759.964H579.448C585.856 759.964 591.04 761.764 595 765.364C598.96 768.964 601.228 773.5 601.804 778.972H609.58V784.588ZM559.468 767.956V778.972H592.516C591.94 775.66 590.356 772.996 587.764 770.98C585.244 768.964 582.112 767.956 578.368 767.956H559.468ZM578.368 795.388C582.04 795.388 585.136 794.416 587.656 792.472C590.248 790.456 591.832 787.828 592.408 784.588H559.468V795.388H578.368Z" fill="#193F79"/>
<path d="M352.636 833.296C345.292 833.296 339.424 830.236 335.032 824.116V851.872H326.932V779.836H335.032V787.612C336.976 784.876 339.496 782.68 342.592 781.024C345.688 779.368 349.036 778.54 352.636 778.54C359.548 778.54 365.128 781.024 369.376 785.992C373.696 790.888 375.856 797.512 375.856 805.864C375.856 814.216 373.696 820.876 369.376 825.844C365.128 830.812 359.548 833.296 352.636 833.296ZM350.584 826.06C355.696 826.06 359.764 824.188 362.788 820.444C365.812 816.628 367.324 811.768 367.324 805.864C367.324 799.96 365.812 795.136 362.788 791.392C359.764 787.648 355.696 785.776 350.584 785.776C347.488 785.776 344.464 786.604 341.512 788.26C338.632 789.844 336.472 791.788 335.032 794.092V817.636C336.472 820.012 338.632 822.028 341.512 823.684C344.464 825.268 347.488 826.06 350.584 826.06ZM319.696 832H309.112L290.752 803.38H276.388V832H267.424V759.964H296.368C303.064 759.964 308.5 761.944 312.676 765.904C316.852 769.864 318.94 775.12 318.94 781.672C318.94 787.864 317.14 792.796 313.54 796.468C309.94 800.14 305.512 802.192 300.256 802.624L319.696 832ZM295.288 795.496C299.536 795.496 302.992 794.2 305.656 791.608C308.32 789.016 309.652 785.704 309.652 781.672C309.652 777.64 308.32 774.364 305.656 771.844C302.992 769.252 299.536 767.956 295.288 767.956H276.388V795.496H295.288Z" fill="#193F79"/>
<path d="M201.813 818.183C193.474 821.164 185.943 820.951 179.219 817.544L181.222 810.634C183.62 811.994 186.519 812.831 189.919 813.145C193.387 813.434 196.714 813.009 199.901 811.87C203.562 810.561 206.131 808.764 207.607 806.477C209.083 804.191 209.373 801.793 208.476 799.285C207.701 797.115 206.044 795.796 203.506 795.327C200.944 794.79 198.062 794.75 194.861 795.206C191.703 795.571 188.487 795.879 185.213 796.132C181.915 796.317 178.852 795.768 176.023 794.486C173.17 793.136 171.137 790.765 169.925 787.376C168.495 783.375 168.923 779.438 171.207 775.562C173.56 771.663 177.55 768.707 183.177 766.695C190.567 764.054 197.483 764.257 203.926 767.306L202.257 773.867C197.321 770.967 191.7 770.645 185.395 772.899C182.073 774.087 179.695 775.778 178.262 777.972C176.805 780.099 176.477 782.281 177.276 784.518C177.979 786.484 179.588 787.668 182.101 788.069C184.591 788.402 187.415 788.387 190.572 788.023C193.773 787.566 197.023 787.246 200.321 787.061C203.62 786.876 206.719 787.526 209.621 789.012C212.498 790.43 214.567 792.902 215.828 796.427C217.379 800.766 216.956 804.932 214.56 808.923C212.164 812.915 207.915 816.001 201.813 818.183ZM179.004 824.961L169.038 828.524L142.115 807.755L128.589 812.591L138.224 839.54L129.783 842.558L105.533 774.726L132.787 764.983C139.093 762.728 144.878 762.763 150.143 765.086C155.408 767.409 159.144 771.655 161.35 777.825C163.434 783.656 163.399 788.906 161.246 793.575C159.092 798.245 155.613 801.668 150.809 803.844L179.004 824.961ZM143.732 798.804C147.732 797.374 150.55 794.99 152.186 791.653C153.822 788.315 153.961 784.748 152.604 780.952C151.246 777.155 148.889 774.519 145.533 773.043C142.151 771.499 138.461 771.442 134.461 772.872L116.664 779.234L125.935 805.167L143.732 798.804Z" fill="#193F79"/>
<path d="M34.944 839L14.532 803.36V798.608H16.908C20.724 798.608 23.928 798.248 26.52 797.528C29.184 796.808 31.272 795.62 32.784 793.964C34.296 792.308 35.196 790.04 35.484 787.16H14.532V780.248H35.376C34.872 777.584 33.864 775.424 32.352 773.768C30.84 772.04 28.788 770.78 26.196 769.988C23.676 769.196 20.58 768.8 16.908 768.8H14.532V761.888H59.244V768.8H38.832C40.488 770.168 41.856 771.788 42.936 773.66C44.016 775.532 44.7 777.728 44.988 780.248H59.244V787.16H45.204C44.7 792.416 42.684 796.52 39.156 799.472C35.7 802.352 31.092 804.188 25.332 804.98L45.96 839H34.944Z" fill="#193F79"/>
<path d="M1182.74 475.217C1184.17 472.392 1186.25 470.054 1188.96 468.202C1191.74 466.383 1194.71 465.225 1197.87 464.728L1199.97 469.426C1197.91 469.671 1195.82 470.351 1193.72 471.466C1191.66 472.516 1190.17 473.78 1189.26 475.256L1189.74 475.5C1190.09 475.599 1190.37 475.697 1190.56 475.794C1191.91 476.479 1192.76 477.514 1193.1 478.901C1193.54 480.256 1193.41 481.639 1192.69 483.052C1191.97 484.465 1190.84 485.424 1189.29 485.93C1187.84 486.405 1186.41 486.283 1185 485.567C1183.33 484.72 1182.24 483.361 1181.74 481.491C1181.26 479.556 1181.6 477.465 1182.74 475.217ZM1198.15 483.036C1199.58 480.21 1201.66 477.872 1204.37 476.02C1207.15 474.201 1210.12 473.043 1213.28 472.546L1215.38 477.244C1213.32 477.489 1211.23 478.169 1209.14 479.284C1207.13 480.367 1205.64 481.63 1204.67 483.074L1205.15 483.318C1205.5 483.417 1205.78 483.515 1205.97 483.613C1207.32 484.297 1208.2 485.348 1208.61 486.767C1209.05 488.122 1208.91 489.506 1208.2 490.919C1207.48 492.331 1206.35 493.291 1204.8 493.797C1203.28 494.239 1201.82 494.102 1200.41 493.385C1198.74 492.538 1197.65 491.179 1197.15 489.309C1196.67 487.374 1197.01 485.283 1198.15 483.036Z" fill="#193F79"/>
<path d="M1225.91 433.416C1224.48 436.241 1222.37 438.563 1219.59 440.382C1216.78 442.266 1213.79 443.456 1210.63 443.952L1208.59 439.159C1210.71 438.946 1212.79 438.266 1214.83 437.118C1216.9 436.068 1218.42 434.821 1219.39 433.378C1219.07 433.376 1218.59 433.212 1217.94 432.886C1216.6 432.202 1215.7 431.182 1215.26 429.827C1214.91 428.441 1215.1 427.041 1215.81 425.629C1216.53 424.216 1217.63 423.24 1219.11 422.702C1220.66 422.196 1222.14 422.301 1223.56 423.017C1225.23 423.864 1226.3 425.255 1226.77 427.19C1227.34 429.093 1227.05 431.168 1225.91 433.416ZM1241.32 441.234C1239.89 444.059 1237.78 446.381 1235 448.2C1232.19 450.084 1229.24 451.29 1226.14 451.819L1224.09 447.026C1226.15 446.78 1228.2 446.084 1230.24 444.936C1232.31 443.886 1233.83 442.639 1234.8 441.196C1234.48 441.194 1234.03 441.046 1233.45 440.753C1232.1 440.069 1231.21 439.049 1230.76 437.694C1230.35 436.275 1230.51 434.859 1231.22 433.447C1231.94 432.034 1233.04 431.058 1234.53 430.52C1236.07 430.014 1237.55 430.119 1238.97 430.836C1240.64 431.683 1241.71 433.073 1242.18 435.008C1242.75 436.911 1242.46 438.986 1241.32 441.234Z" fill="#193F79"/>
<path d="M1240.64 514.453L1234.86 511.3L1249.8 497.184L1239.28 491.446L1224.43 505.614L1218.55 502.409L1233.49 488.294L1223.44 482.815L1227.74 478.637L1237.88 484.167L1254.21 468.593L1243.97 463.01L1248.12 458.876L1258.55 464.562L1273.45 450.299L1279.33 453.503L1264.43 467.766L1274.86 473.452L1289.76 459.189L1295.55 462.342L1280.55 476.553L1290.7 482.084L1286.64 486.269L1276.31 480.636L1259.88 496.159L1270.41 501.896L1266.21 506.126L1255.49 500.285L1240.64 514.453ZM1254.1 493.006L1270.43 477.431L1260 471.745L1243.67 487.32L1254.1 493.006Z" fill="#193F79"/>
<path d="M1323.02 589.594C1319.71 586.454 1318.06 582.328 1318.06 577.216C1318.06 572.104 1319.71 567.878 1323.02 564.538C1326.4 561.267 1330.61 559.556 1335.65 559.403C1340.76 559.248 1345.01 560.739 1348.39 563.877C1351.84 567.012 1353.57 571.1 1353.57 576.14C1353.57 581.252 1351.84 585.48 1348.39 588.825C1345.01 592.239 1340.76 594.024 1335.65 594.179C1330.61 594.332 1326.4 592.803 1323.02 589.594ZM1280.49 577.383L1280.49 571.551L1352.49 615.376L1352.49 621.316L1280.49 577.383ZM1284.16 628.356C1280.85 625.216 1279.19 621.091 1279.19 615.979C1279.19 610.867 1280.85 606.64 1284.16 603.3C1287.54 600.03 1291.75 598.318 1296.79 598.165C1301.9 598.01 1306.14 599.502 1309.53 602.639C1312.98 605.774 1314.71 609.862 1314.71 614.902C1314.71 620.014 1312.98 624.242 1309.53 627.587C1306.14 630.93 1301.9 632.678 1296.79 632.833C1291.75 632.986 1287.54 631.494 1284.16 628.356ZM1326.91 569.172C1324.6 571.258 1323.45 573.885 1323.45 577.053C1323.45 580.221 1324.6 582.814 1326.91 584.832C1329.28 586.848 1332.2 587.804 1335.65 587.699C1339.25 587.59 1342.2 586.456 1344.5 584.299C1346.88 582.211 1348.07 579.547 1348.07 576.307C1348.07 573.139 1346.88 570.583 1344.5 568.639C1342.2 566.692 1339.25 565.774 1335.65 565.883C1332.2 565.988 1329.28 567.084 1326.91 569.172ZM1288.05 607.826C1285.74 609.984 1284.59 612.647 1284.59 615.815C1284.59 618.983 1285.74 621.576 1288.05 623.594C1290.42 625.61 1293.33 626.566 1296.79 626.461C1300.39 626.352 1303.34 625.219 1305.64 623.061C1308.02 620.973 1309.2 618.309 1309.2 615.069C1309.2 611.829 1308.02 609.237 1305.64 607.293C1303.34 605.347 1300.39 604.428 1296.79 604.537C1293.33 604.642 1290.42 605.738 1288.05 607.826Z" fill="#193F79"/>
</g>
<defs>
<clipPath id="clip0_475_31583">
<rect width="1440" height="896" fill="white"/>
</clipPath>
</defs>
</svg>
