<svg width="628" height="275" viewBox="0 0 628 275" fill="none" xmlns="http://www.w3.org/2000/svg">
<mask id="path-1-outside-1_425_5292" maskUnits="userSpaceOnUse" x="22" y="32" width="170" height="203" fill="black">
<rect fill="white" x="22" y="32" width="170" height="203"/>
<path d="M190.2 234H165.3V56.1H48.3V234H23.4V33.9H190.2V234Z"/>
</mask>
<path d="M190.2 234H165.3V56.1H48.3V234H23.4V33.9H190.2V234Z" fill="#508BC9"/>
<path d="M190.2 234V235H191.2V234H190.2ZM165.3 234H164.3V235H165.3V234ZM165.3 56.1H166.3V55.1H165.3V56.1ZM48.3 56.1V55.1H47.3V56.1H48.3ZM48.3 234V235H49.3V234H48.3ZM23.4 234H22.4V235H23.4V234ZM23.4 33.9V32.9H22.4V33.9H23.4ZM190.2 33.9H191.2V32.9H190.2V33.9ZM190.2 233H165.3V235H190.2V233ZM166.3 234V56.1H164.3V234H166.3ZM165.3 55.1H48.3V57.1H165.3V55.1ZM47.3 56.1V234H49.3V56.1H47.3ZM48.3 233H23.4V235H48.3V233ZM24.4 234V33.9H22.4V234H24.4ZM23.4 34.9H190.2V32.9H23.4V34.9ZM189.2 33.9V234H191.2V33.9H189.2Z" fill="#508BC9" mask="url(#path-1-outside-1_425_5292)"/>
<mask id="path-3-outside-2_425_5292" maskUnits="userSpaceOnUse" x="233" y="88" width="124" height="147" fill="black">
<rect fill="white" x="233" y="88" width="124" height="147"/>
<path d="M355.1 234H332.6V108.9H257V234H234.5V89.1H355.1V234Z"/>
</mask>
<path d="M355.1 234H332.6V108.9H257V234H234.5V89.1H355.1V234Z" fill="#508BC9"/>
<path d="M355.1 234V235H356.1V234H355.1ZM332.6 234H331.6V235H332.6V234ZM332.6 108.9H333.6V107.9H332.6V108.9ZM257 108.9V107.9H256V108.9H257ZM257 234V235H258V234H257ZM234.5 234H233.5V235H234.5V234ZM234.5 89.1V88.1H233.5V89.1H234.5ZM355.1 89.1H356.1V88.1H355.1V89.1ZM355.1 233H332.6V235H355.1V233ZM333.6 234V108.9H331.6V234H333.6ZM332.6 107.9H257V109.9H332.6V107.9ZM256 108.9V234H258V108.9H256ZM257 233H234.5V235H257V233ZM235.5 234V89.1H233.5V234H235.5ZM234.5 90.1H355.1V88.1H234.5V90.1ZM354.1 89.1V234H356.1V89.1H354.1Z" fill="#508BC9" mask="url(#path-3-outside-2_425_5292)"/>
<path d="M190 234H165.1L204.1 56.1H87.1L48.1 234H23.2L67.3 33.9H234.1L190 234Z" fill="#193F79"/>
<path d="M354.9 234H332.4L360.9 108.9H285.3L256.8 234H234.3L267.3 89.1H387.9L354.9 234Z" fill="#193F79"/>
<path d="M627 155.5C627 206.581 585.368 248 534 248C482.632 248 441 206.581 441 155.5C441 104.419 482.632 63 534 63C585.368 63 627 104.419 627 155.5Z" stroke="#193F79" stroke-width="2"/>
<path d="M543.264 21H541.272V7.632L538.704 10.344L537.504 9.12L541.512 4.992H543.264V21ZM556.941 21H545.949V19.416C547.613 18.104 548.901 17.064 549.813 16.296C550.741 15.512 551.629 14.688 552.477 13.824C553.341 12.944 553.949 12.168 554.301 11.496C554.653 10.808 554.829 10.128 554.829 9.456C554.829 8.496 554.501 7.768 553.845 7.272C553.189 6.776 552.405 6.528 551.493 6.528C549.653 6.528 548.205 7.2 547.149 8.544L545.925 7.272C546.533 6.472 547.325 5.856 548.301 5.424C549.293 4.976 550.357 4.752 551.493 4.752C552.949 4.752 554.205 5.16 555.261 5.976C556.333 6.792 556.869 7.952 556.869 9.456C556.869 10.944 556.229 12.432 554.949 13.92C553.669 15.392 551.717 17.16 549.093 19.224H556.941V21ZM564.69 7.68C564.69 8.496 564.402 9.192 563.826 9.768C563.25 10.328 562.554 10.608 561.738 10.608C560.938 10.608 560.25 10.328 559.674 9.768C559.114 9.192 558.834 8.496 558.834 7.68C558.834 6.88 559.114 6.192 559.674 5.616C560.25 5.04 560.938 4.752 561.738 4.752C562.554 4.752 563.25 5.04 563.826 5.616C564.402 6.192 564.69 6.88 564.69 7.68ZM563.538 7.68C563.538 7.2 563.362 6.784 563.01 6.432C562.658 6.08 562.234 5.904 561.738 5.904C561.258 5.904 560.85 6.08 560.514 6.432C560.178 6.784 560.01 7.2 560.01 7.68C560.01 8.176 560.178 8.6 560.514 8.952C560.85 9.288 561.258 9.456 561.738 9.456C562.234 9.456 562.658 9.288 563.01 8.952C563.362 8.6 563.538 8.176 563.538 7.68Z" fill="#193F79"/>
<line x1="533" y1="161" x2="533" y2="29" stroke="#193F79" stroke-width="2"/>
<path d="M533.77 161.257L561.859 32.0998" stroke="#193F79" stroke-width="2"/>
<path d="M554 65.1687C548.286 63.0058 538.286 62.8656 534 63.0659V161L554 65.1687Z" fill="#193F79"/>
</svg>
