<svg width="809" height="147" viewBox="0 0 809 147" fill="none" xmlns="http://www.w3.org/2000/svg">
<path d="M1.5 34C49.924 26.3543 138 8.81392 230.821 41.294V41.294C295.006 63.7534 358.632 120.013 425.767 109.199C484.935 99.6683 544.839 80.3701 544.839 41.294C544.839 -35.9103 433.499 13.1414 433.499 63.5C433.499 111.5 517.379 165.952 614.818 137.53C692.768 114.793 718.752 103.789 722 101.13" stroke="#528BC9" stroke-width="2" stroke-linecap="round"/>
<path d="M724.127 78.6866C724.457 77.6624 725.185 77.0274 726.146 76.5462C727.652 75.7913 729.129 74.9748 730.599 74.1481C731.619 73.574 732.575 73.5723 733.585 74.1673C735.508 75.2998 737.45 76.4008 739.407 77.4775C739.673 77.623 740.139 77.6903 740.383 77.561C745.15 75.0231 749.898 72.4502 754.649 69.8831C754.738 69.8346 754.813 69.7582 754.962 69.6438C754.727 69.5093 754.542 69.3907 754.347 69.2928C750.464 67.3623 746.583 65.4267 742.691 63.5118C741.725 63.0364 741.041 62.3958 741.027 61.2698C741.013 60.1486 741.654 59.4764 742.618 58.9631C745.782 57.2816 748.936 55.5813 752.072 53.8489C752.991 53.3409 753.867 53.2329 754.873 53.5458C760.903 55.4256 766.947 57.2653 772.975 59.1453C773.679 59.364 774.232 59.3201 774.906 58.9636C777.651 57.5125 780.36 55.9501 783.23 54.7848C788.297 52.7284 793.546 52.6348 798.77 54.152C801.665 54.9942 803.328 57.0215 803.574 59.973C803.809 62.7857 802.573 64.9873 800.05 66.3741C794.789 69.2661 789.492 72.0959 784.211 74.9515C782.867 75.6781 781.509 76.3801 780.193 77.1499C779.878 77.3342 779.575 77.7111 779.478 78.0562C777.951 83.5054 776.447 88.9619 774.968 94.4241C774.704 95.4001 774.172 96.0572 773.264 96.5381C770.075 98.2266 766.91 99.9587 763.739 101.679C762.796 102.191 761.845 102.362 760.896 101.736C759.978 101.13 759.784 100.24 759.892 99.2121C760.283 95.48 760.653 91.7448 761.029 88.0117C761.044 87.8656 761.041 87.7176 761.05 87.4619C759.134 88.493 757.316 89.4774 755.49 90.4536C752.612 91.9931 749.791 93.6549 746.834 95.0342C740.649 97.9184 733.232 95.5758 729.865 89.7722C728.122 86.7683 726.467 83.7143 724.768 80.6861C724.646 80.471 724.483 80.2781 724.339 80.0744C724.268 79.6129 724.197 79.1514 724.126 78.6899L724.127 78.6866ZM765.101 95.5665C766.752 94.6819 768.269 93.8514 769.803 93.0575C770.286 92.8079 770.538 92.4814 770.68 91.9587C772.147 86.5472 773.655 81.147 775.114 75.7321C775.385 74.7281 775.912 74.0528 776.848 73.5518C783.7 69.8824 790.533 66.178 797.377 62.4972C798.289 62.006 798.934 61.3475 798.8 60.2843C798.665 59.2195 797.881 58.7476 796.869 58.5037C791.715 57.2617 786.807 57.8889 782.14 60.4052C768.557 67.7317 754.973 75.0584 741.397 82.3995C740.336 82.9736 739.375 82.9762 738.341 82.3643C736.443 81.2406 734.516 80.1625 732.591 79.0841C732.366 78.9576 732.017 78.817 731.822 78.9007C731.158 79.1846 730.536 79.5646 729.853 79.9321C731.147 82.2562 732.391 84.498 733.643 86.7355C736.288 91.4604 741.129 92.8389 745.967 90.2348C751.487 87.2618 757.003 84.2784 762.516 81.2937C763.446 80.7903 764.371 80.6717 765.285 81.2736C766.175 81.8573 766.398 82.7235 766.293 83.7225C766.048 86.0386 765.811 88.3565 765.576 90.6742C765.416 92.2616 765.266 93.8505 765.098 95.5654L765.101 95.5665ZM768.109 62.6056C767.694 62.4672 767.431 62.3717 767.164 62.2896C763.191 61.065 759.206 59.877 755.254 58.5955C754.288 58.2827 753.531 58.344 752.676 58.8642C751.373 59.6587 750.003 60.3452 748.571 61.128C752.384 63.0219 756.072 64.864 759.775 66.6736C760 66.7844 760.39 66.7417 760.63 66.6243C761.576 66.1627 762.494 65.6454 763.421 65.144C764.943 64.322 766.464 63.4953 768.109 62.6056Z" fill="#528BC9" stroke="#193F79" stroke-width="3"/>
</svg>
