<svg width="35" height="35" viewBox="0 0 35 35" fill="none" xmlns="http://www.w3.org/2000/svg">
<rect x="1" y="1" width="33" height="33" rx="4" stroke="white" stroke-width="2"/>
<path d="M4.14286 17.3988C4.25197 17.069 4.49198 16.8646 4.80892 16.7097C5.30604 16.4666 5.79312 16.2037 6.2781 15.9376C6.61478 15.7527 6.93 15.7521 7.2633 15.9437C7.89771 16.3083 8.53851 16.6628 9.18392 17.0095C9.2716 17.0564 9.4255 17.078 9.50614 17.0364C11.0788 16.2193 12.6449 15.3909 14.2124 14.5643C14.2418 14.5487 14.2667 14.5241 14.3156 14.4873C14.2381 14.444 14.1773 14.4058 14.1128 14.3743C12.8317 13.7527 11.5514 13.1295 10.2673 12.513C9.94863 12.3599 9.7231 12.1537 9.71857 11.7911C9.71376 11.4301 9.92529 11.2137 10.2433 11.0484C11.2873 10.5071 12.3277 9.9596 13.3622 9.40184C13.6655 9.23826 13.9546 9.20349 14.2864 9.30425C16.2758 9.90947 18.2696 10.5018 20.2585 11.1071C20.4908 11.1775 20.6731 11.1634 20.8954 11.0486C21.8011 10.5814 22.6949 10.0784 23.6417 9.70316C25.3133 9.04107 27.0452 9.01092 28.7684 9.49942C29.7236 9.77058 30.2721 10.4233 30.3534 11.3736C30.4308 12.2792 30.023 12.988 29.1906 13.4346C27.4551 14.3657 25.7074 15.2768 23.9653 16.1962C23.522 16.4302 23.0738 16.6562 22.6396 16.904C22.5357 16.9634 22.4358 17.0847 22.4038 17.1958C21.8999 18.9503 21.4038 20.7071 20.916 22.4658C20.8289 22.78 20.6532 22.9916 20.3538 23.1464C19.3017 23.6901 18.2576 24.2478 17.2113 24.8017C16.9001 24.9664 16.5866 25.0217 16.2735 24.8199C15.9705 24.6248 15.9067 24.3383 15.9423 24.0074C16.0713 22.8057 16.1933 21.6031 16.3175 20.4012C16.3223 20.3542 16.3211 20.3065 16.3241 20.2242C15.6921 20.5561 15.0923 20.8731 14.49 21.1874C13.5403 21.6831 12.6096 22.2181 11.6343 22.6622C9.59372 23.5908 7.14689 22.8366 6.03605 20.968C5.46082 20.0009 4.91495 19.0176 4.35444 18.0426C4.31428 17.9733 4.26035 17.9112 4.21279 17.8456C4.18936 17.697 4.16593 17.5484 4.1425 17.3999L4.14286 17.3988ZM17.6608 22.8336C18.2055 22.5488 18.7057 22.2814 19.2121 22.0258C19.3711 21.9454 19.4545 21.8403 19.5014 21.672C19.9854 19.9297 20.4828 18.191 20.964 16.4475C21.0534 16.1243 21.2275 15.9069 21.536 15.7456C23.7967 14.5641 26.0509 13.3714 28.3089 12.1863C28.6099 12.0282 28.8227 11.8161 28.7782 11.4738C28.7338 11.131 28.4753 10.9791 28.1412 10.9005C26.441 10.5006 24.8218 10.7026 23.2821 11.5128C18.801 13.8717 14.3193 16.2306 9.84058 18.5942C9.4906 18.7791 9.1733 18.7799 8.83223 18.5829C8.20623 18.2211 7.57033 17.874 6.93546 17.5268C6.86098 17.4861 6.7459 17.4408 6.68156 17.4677C6.46254 17.5591 6.25745 17.6815 6.03204 17.7998C6.45897 18.5481 6.86948 19.2699 7.28244 19.9903C8.15507 21.5116 9.75218 21.9554 11.3481 21.117C13.1693 20.1597 14.989 19.1992 16.808 18.2382C17.1148 18.0761 17.4198 18.038 17.7216 18.2317C18.0149 18.4197 18.0887 18.6985 18.0538 19.0202C17.973 19.7659 17.895 20.5122 17.8176 21.2584C17.7647 21.7695 17.7151 22.2811 17.6597 22.8333L17.6608 22.8336ZM18.6529 12.2212C18.5162 12.1766 18.4294 12.1459 18.3412 12.1195C17.0306 11.7252 15.7159 11.3427 14.4119 10.9301C14.0935 10.8294 13.8435 10.8491 13.5615 11.0166C13.1318 11.2724 12.6796 11.4935 12.2073 11.7455C13.4653 12.3553 14.6818 12.9484 15.9036 13.531C15.9778 13.5667 16.1064 13.5529 16.1856 13.5151C16.4976 13.3665 16.8005 13.1999 17.1063 13.0385C17.6086 12.7738 18.1105 12.5077 18.6529 12.2212Z" fill="white"/>
<rect x="5" y="28" width="25" height="2" fill="white"/>
</svg>
