<svg width="190" height="190" viewBox="0 0 190 190" fill="none" xmlns="http://www.w3.org/2000/svg">
<g clip-path="url(#clip0_432_7097)">
<path d="M104.799 157.326V163.818H111.356V170.532L111.455 170.44H104.963V183.679C102.522 183.679 100.389 183.679 98.2555 183.679C98.2555 181.546 98.2555 179.413 98.2555 177.273H91.9611V183.587H98.3474V189.973H85.286V183.869H65.5693V189.993H52.5014V183.725H58.7302V170.572H52.4817V137.741H39.4072V131.263H45.846C45.846 128.788 45.846 126.642 45.846 124.502L45.7476 124.594H58.868C58.868 122.067 58.868 120 58.868 117.939C63.1933 117.939 67.5121 117.939 72.1722 117.939V111.572H78.6307V118.07H85.3254V124.384H98.1177V117.88H91.692V111.362H105.003V118.07H111.225V124.66H104.819V150.842L104.911 150.75H98.5246V157.405H104.911L104.812 157.313L104.799 157.326ZM78.565 170.447H91.5148V164.159H78.6569C78.6569 166.437 78.6569 168.484 78.6569 170.539C76.4713 170.499 74.2922 170.46 72.1065 170.421C72.1065 166.095 72.1131 161.763 72.1197 157.438H91.5542V131.328H72.0869C72.0869 135.792 72.0869 140.038 72.0869 144.285H65.694V150.763H72.0869C72.1328 153.014 72.1722 155.272 72.205 157.517H59.0977V164.041H65.6481V170.316C68.0634 170.316 70.1244 170.316 72.1853 170.322V176.813H78.565V170.44V170.447ZM59.0583 137.511H65.2739V131.355H59.0583V137.511Z" fill="white"/>
<path d="M150.613 176.912V183.456H144.325V190H118.143V183.765H137.453V177.188H131.362V170.598H137.479V164.009H124.667V157.327C117.815 157.327 111.304 157.327 104.793 157.327L104.891 157.419V150.763L104.8 150.855H111.54V144.403H117.992V150.599H124.68V144.161H130.909V137.591H124.483C124.483 135.195 124.483 133.134 124.483 131.08H130.876V124.601H124.483V117.848H118.143V111.389H131.218V105.022H137.683V118.077H150.842C150.842 120.479 150.842 122.54 150.842 124.595C148.709 124.595 146.576 124.595 144.436 124.595V130.889H150.751V124.503H157.465V130.876H163.864C163.864 126.4 163.864 122.179 163.864 117.953C166.083 117.985 168.301 118.012 170.526 118.044L170.428 117.953V124.483H176.913V130.961H183.378V137.551H170.658V150.698H164.107V157.294H170.238V163.877H144.397V176.998C146.609 176.998 148.657 176.998 150.711 176.998L150.606 176.906L150.613 176.912ZM157.229 137.919H137.939V157.196H157.229V137.919Z" fill="white"/>
<path d="M78.6506 6.45805V0.0783302H98.177V13.0412H104.891L104.8 12.9428V19.3291H131.172V12.9362L131.073 13.0281H137.446V25.991H131.06V32.7055L131.159 32.6136H117.848V26.2535H111.376V32.4167H104.793V26.2798H98.2164V45.8324C95.8141 45.8324 93.7598 45.8324 91.6988 45.8324C91.6988 41.5137 91.6988 37.1949 91.6988 32.8761H78.6571V39.2689H71.9361V45.734H65.4448L65.5367 45.8259V39.1705H58.8813L58.9798 39.2624V32.7448H52.5541V26.1682H58.691V19.5916H52.541V0.0126953H58.796V13.0347H65.5302L65.4383 12.9362V19.6769H72.1133V25.9451H84.9844V19.4406H78.6571V12.9362L78.5653 13.0281H84.9515V6.37272H78.5653L78.6637 6.46461L78.6506 6.45805Z" fill="white"/>
<path d="M6.36621 65.5428H12.8903V59.0515H19.3619V52.4815H58.966V45.7539L58.8676 45.8458C61.0861 45.8458 63.3045 45.8458 65.523 45.8458L65.4311 45.7539V52.4749H71.8108V65.5494C69.5398 65.5494 67.4855 65.5494 65.4376 65.5494C65.4376 63.4163 65.4376 61.2831 65.4376 59.1434H52.5863V65.4575H65.5295C65.4902 67.6694 65.4508 69.8879 65.418 72.0998L65.5164 72.0079H52.5732V78.788H58.9726C58.9726 85.5418 58.9726 91.9543 58.9726 98.3603C56.8395 98.3603 54.7063 98.3603 52.2516 98.3603V91.8034H45.7537C45.7537 89.6702 45.7537 87.5437 45.7537 85.3908H32.548V91.7049H26.0567L26.1551 91.7968V78.7026H19.6638V72.2113H6.46466V65.4575L6.37277 65.5494L6.36621 65.5428ZM45.6356 72.2245H39.42V78.381H45.6356V72.2245ZM39.3937 59.0712V65.2869H45.5503V59.0712H39.3937ZM26.2405 65.2672H32.4102V59.0844H26.2405V65.2672Z" fill="white"/>
<path d="M137.624 52.4094H144.141V78.4599C146.478 78.565 148.486 78.6503 150.711 78.7487V84.9447H183.529V72.2377H189.908V104.622H183.66V91.902H177.182V104.812H170.434L170.526 104.911V91.6329H144.082V85.3253H137.624V98.0782H124.595V91.6919L124.497 91.7838H130.87V78.4665H104.793C104.793 76.1036 104.793 74.0427 104.793 71.9883C113.496 71.9883 122.206 71.9883 131.047 71.9883C131.047 69.5533 131.047 67.4858 131.047 65.4248C133.187 65.4248 135.333 65.4248 137.709 65.4248V52.2979L137.617 52.3963L137.624 52.4094Z" fill="white"/>
<path d="M0 45.5702V0.0195312H45.531V45.5767H0V45.5702ZM39.079 6.6421H6.66195V39.0592H39.079V6.6421Z" fill="white"/>
<path d="M144.476 0H190.007V45.531H144.476V0ZM183.391 39.0922V6.67507H150.973V39.0922H183.391Z" fill="white"/>
<path d="M0.0722656 144.403H45.6098V189.934H0.0722656V144.403ZM38.9872 183.489V151.072H6.57669V183.489H38.9938H38.9872Z" fill="white"/>
<path d="M6.34642 85.1416V91.7839C13.1068 91.7839 19.6309 91.7839 26.1485 91.7839L26.05 91.692C26.0828 93.9104 26.1157 96.1223 26.1485 98.3408C24.0088 98.3408 21.8691 98.3408 19.7688 98.3408V111.277H32.4757V104.773H26.0566V98.2489C30.4607 98.2489 34.8648 98.2555 39.2689 98.262V104.996H45.5173V111.553H39.4133V118.11H45.7405V124.608L45.839 124.516C39.4067 124.516 32.9679 124.516 26.1813 124.516V118.176H19.69V124.339H13.0937V118.163H6.34642C6.34642 113.496 6.34642 109.164 6.34642 104.839C8.47955 104.839 10.6127 104.839 12.7524 104.839V98.5443H6.43831V104.931H0.0585938V85.2466H6.43831L6.34642 85.1482V85.1416Z" fill="white"/>
<path d="M183.581 163.996H189.96V183.417H183.738V177.32H177.168V183.568H163.884L163.975 183.667C163.975 181.455 163.975 179.243 163.975 177.031L163.877 177.123H170.362V170.592H183.666V163.897L183.567 163.989L183.581 163.996Z" fill="white"/>
<path d="M170.434 72.0143V78.394H157.511C157.419 76.3593 157.334 74.3509 157.235 72.1258H151.046V58.9989H157.248V52.6191H163.812V72.1062H170.539L170.448 72.0077L170.434 72.0143Z" fill="white"/>
<path d="M170.526 72.1065V52.5801H189.994V58.7629H183.686V65.3658H177.202V72.008C174.721 72.008 172.574 72.008 170.435 72.008L170.526 72.1065Z" fill="white"/>
<path d="M131.054 32.712H137.624C137.624 39.374 137.624 45.8915 137.624 52.409L137.716 52.3106C135.497 52.3434 133.279 52.3697 131.054 52.4025C131.087 45.8062 131.119 39.2164 131.152 32.6201L131.054 32.712Z" fill="white"/>
<path d="M163.982 177.03C159.526 176.998 155.075 176.958 150.612 176.919C150.612 176.919 150.717 177.011 150.711 177.011C150.711 174.969 150.711 172.935 150.711 170.703H163.884C163.884 172.869 163.884 174.996 163.884 177.129L163.982 177.037V177.03Z" fill="white"/>
<path d="M111.356 170.539H124.293V176.847H111.455C111.455 174.714 111.455 172.58 111.455 170.447L111.356 170.539Z" fill="white"/>
<path d="M6.46511 65.4445H0.0722656V52.5801H6.36666C6.36666 56.9185 6.36666 61.2308 6.36666 65.543L6.46511 65.4511V65.4445Z" fill="white"/>
<path d="M65.5167 13.0282V6.4581C69.9864 6.4581 74.3183 6.4581 78.6502 6.4581L78.5518 6.36621V13.0216L78.6437 12.9297H65.4248L65.5167 13.0282Z" fill="white"/>
<path d="M170.44 111.481H183.554V118.031L183.653 117.939C179.249 117.939 174.845 117.946 170.44 117.952L170.539 118.044V111.389L170.447 111.487L170.44 111.481Z" fill="white"/>
<path d="M170.441 104.812C170.441 107.038 170.441 109.256 170.441 111.481L170.533 111.383C168.315 111.415 166.096 111.442 163.871 111.474V104.911H170.533L170.441 104.812Z" fill="white"/>
<path d="M58.9595 45.7471H52.5732V39.2755C54.6933 39.2755 56.8264 39.2755 58.9595 39.2755L58.8611 39.1836V45.839L58.9595 45.7471Z" fill="white"/>
<path d="M131.172 12.9365H124.608V6.37305L124.51 6.46494H131.073C131.073 8.74247 131.073 10.8822 131.073 13.0284L131.172 12.9365Z" fill="white"/>
<path d="M183.555 118.031H189.941V124.339H183.653C183.653 122.199 183.653 120.066 183.653 117.939L183.555 118.031Z" fill="white"/>
<path d="M19.6514 137.414V131.336H25.9064V137.414H19.6514Z" fill="white"/>
<path d="M104.891 13.0416V6.65527H111.198V12.9431C109.059 12.9431 106.925 12.9431 104.799 12.9431L104.891 13.0416Z" fill="white"/>
<path d="M6.43857 85.2398V78.8535H12.7461V85.1413C10.6064 85.1413 8.47325 85.1413 6.34668 85.1413L6.43857 85.2398Z" fill="white"/>
<path d="M183.672 163.903H177.286V157.596H183.574C183.574 159.735 183.574 161.869 183.574 163.995L183.672 163.903Z" fill="white"/>
<path d="M124.608 6.37322H118.222V0.0722656H124.51C124.51 2.21196 124.51 4.3451 124.51 6.47167L124.608 6.37978V6.37322Z" fill="white"/>
<path d="M163.884 183.567V189.954H157.576V183.666C159.716 183.666 161.849 183.666 163.976 183.666L163.884 183.567Z" fill="white"/>
<path d="M104.898 58.8741V72.0929H98.3735V65.6607H91.9019V71.8173H78.5518V39.1836H85.0431V45.7471H91.7641C91.7641 47.9655 91.7641 50.1774 91.7706 52.3959C89.6375 52.3959 87.5044 52.3959 85.3647 52.3959V58.6903H91.6787V52.304H98.17V58.8806H104.891L104.898 58.8741Z" fill="white"/>
<path d="M124.608 91.6985H118.071V98.1111H111.599V91.9611H104.885V104.707H98.4131V98.3473H91.8955V85.4238H124.51C124.51 87.5176 124.51 89.6573 124.51 91.797L124.608 91.7051V91.6985Z" fill="white"/>
<path d="M85.2072 104.911H65.6086V111.474H58.8613C58.8613 107.07 58.8613 102.659 58.8613 98.2552H71.9227V91.9346H78.4993V98.1633H85.2006V104.911H85.2072Z" fill="white"/>
<path d="M157.517 111.244H150.96V98.5703H157.425C157.425 102.751 157.425 107.05 157.425 111.349L157.517 111.244Z" fill="white"/>
<path d="M91.7706 111.475H85.1152V104.819H91.7706V111.475Z" fill="white"/>
<path d="M163.969 111.382V118.038H157.504C157.504 115.662 157.504 113.456 157.504 111.251C157.504 111.251 157.412 111.356 157.412 111.349C159.598 111.356 161.777 111.369 163.962 111.382H163.969Z" fill="white"/>
<path d="M124.588 124.51C124.588 126.728 124.588 128.947 124.588 131.165C122.37 131.132 120.158 131.093 117.939 131.06L118.031 131.159V124.516H124.582L124.588 124.51Z" fill="white"/>
<path d="M71.8835 78.8013H78.4339V84.9185H71.9688C71.9688 82.9297 71.9688 80.8163 71.9688 78.6963L71.877 78.8013H71.8835Z" fill="white"/>
<path d="M117.939 131.06V137.446H111.632V131.158C113.772 131.158 115.905 131.158 118.031 131.158L117.939 131.06Z" fill="white"/>
<path d="M65.4121 72.087H71.8903C71.8903 74.3777 71.8903 76.583 71.8903 78.7949C71.8903 78.7949 71.9822 78.6899 71.9822 78.6964C69.9409 78.6964 67.9062 78.6964 65.5171 78.6964C65.5171 76.2548 65.5171 74.1217 65.5171 71.9951L65.4187 72.087H65.4121Z" fill="white"/>
<path d="M58.953 111.383V118.038H52.5732V111.383H58.953Z" fill="white"/>
<path d="M39.1709 98.3478V91.6924H45.8263V98.3478H39.1709Z" fill="white"/>
<path d="M71.9883 150.855C71.9883 148.637 71.9883 146.418 71.9883 144.2H78.519V137.866H84.9052V150.855H71.9883Z" fill="white"/>
<path d="M150.678 144.502V150.613H144.403V144.502H150.678Z" fill="white"/>
<path d="M131.152 52.3105C131.152 56.7147 131.152 61.1253 131.152 65.5294H117.933V58.874H124.43V52.3105H131.152Z" fill="white"/>
<path d="M118.025 58.9664H104.806V52.5801H118.025V58.9664Z" fill="white"/>
<path d="M118.13 45.6161V39.4727H124.332V45.6161H118.13Z" fill="white"/>
<path d="M111.35 39.5059V45.5443H105.075V39.5059H111.35Z" fill="white"/>
<path d="M32.5023 13.1602V32.4306H13.1729V13.1602H32.5023Z" fill="white"/>
<path d="M157.583 13.1396H176.886V32.4166H157.583V13.1396Z" fill="white"/>
<path d="M32.5152 157.544V176.834H13.166V157.544H32.5152Z" fill="white"/>
</g>
<defs>
<clipPath id="clip0_432_7097">
<rect width="190" height="190" fill="white"/>
</clipPath>
</defs>
</svg>
