<svg width="541" height="250" viewBox="0 0 541 250" fill="none" xmlns="http://www.w3.org/2000/svg">
<rect x="3" y="229" width="182" height="21" rx="5" fill="#508BC9"/>
<rect x="429" y="229" width="112" height="21" rx="5" fill="#508BC9"/>
<rect x="235" y="229" width="148" height="21" rx="5" fill="#508BC9"/>
<path d="M267.6 204.6C254.4 204.6 243.8 200.8 235.8 193.2L244.2 173.7C250.4 179.9 257.6 183 265.8 183C271.6 183 276.2 181.5 279.6 178.5C283.2 175.3 286.8 169.8 290.4 162L296.1 147.3L235.2 0.899983H261.6L308.7 119.1L356.4 0.899983H382.5L312 171.3C307.2 182.7 301.3 191.1 294.3 196.5C287.5 201.9 278.6 204.6 267.6 204.6Z" fill="#193F79"/>
<path d="M452.7 204.6C443.9 204.6 435.7 202.3 428.1 197.7L434.4 178.5C438.6 182.1 443.9 183.9 450.3 183.9C457.9 183.9 463.1 179.3 465.9 170.1L472.8 146.7L428.7 0.899983H452.7L484.8 111L517.2 0.899983H540.9L487.2 177C481.4 195.4 469.9 204.6 452.7 204.6Z" fill="#193F79"/>
<path d="M43.5 204.6C35.3 204.6 27.7 203.1 20.7 200.1C13.7 197.1 8.3 193.3 4.5 188.7L15 168.9C23.6 177.9 32.7 182.4 42.3 182.4C49.9 182.4 55.9 180.4 60.3 176.4C64.9 172.4 70.1 164.9 75.9 153.9L79.5 147L2.7 0.899983H31.2L93.9 124.8L156.6 0.899983H185.1L97.8 165.6C90.8 178.8 83.3 188.6 75.3 195C67.3 201.4 56.7 204.6 43.5 204.6Z" fill="#193F79"/>
</svg>
